<?xml version="1.0" standalone="no"?>
<!DOCTYPE svg PUBLIC "-//W3C//DTD SVG 20010904//EN"
 "http://www.w3.org/TR/2001/REC-SVG-20010904/DTD/svg10.dtd">
<svg version="1.0" xmlns="http://www.w3.org/2000/svg"
 width="300.000000pt" height="408.000000pt" viewBox="0 0 300.000000 408.000000"
 preserveAspectRatio="xMidYMid meet">
<metadata>
Created by potrace 1.10, written by Peter Selinger 2001-2011
</metadata>
<g transform="translate(0.000000,408.000000) scale(0.100000,-0.100000)"
fill="#000000" stroke="none">
<path d="M995 4070 c-126 -20 -349 -96 -442 -151 -31 -19 -79 -56 -107 -84
-51 -50 -63 -69 -109 -175 -13 -30 -64 -109 -114 -175 -185 -247 -242 -376
-214 -477 17 -61 86 -154 154 -209 32 -26 96 -65 143 -88 47 -23 130 -73 183
-111 54 -39 103 -70 109 -70 7 0 19 11 28 25 15 22 16 43 10 155 -4 72 -4 130
-1 130 20 0 85 -65 94 -93 14 -41 5 -72 -53 -190 -60 -120 -68 -181 -64 -449
3 -245 7 -259 105 -395 58 -82 72 -125 73 -223 0 -115 -49 -358 -95 -473 -4
-10 -35 -31 -69 -46 -33 -16 -78 -46 -100 -67 -49 -50 -90 -136 -82 -172 3
-15 8 -38 10 -51 8 -56 76 -81 217 -81 82 0 102 3 147 26 55 27 197 168 214
213 18 48 48 235 48 303 0 36 3 73 6 82 9 22 37 20 59 -4 10 -12 38 -29 62
-40 24 -10 46 -26 49 -34 3 -8 -12 -41 -35 -74 -22 -32 -41 -72 -43 -88 -3
-25 3 -31 52 -57 40 -21 77 -31 140 -37 125 -12 198 4 283 63 15 10 21 9 33
-7 22 -31 17 -83 -20 -186 -43 -122 -52 -146 -67 -195 -6 -22 -41 -91 -77
-153 -75 -131 -90 -193 -55 -240 11 -15 25 -44 32 -64 7 -21 26 -51 42 -69 26
-27 34 -31 74 -27 25 2 45 0 45 -5 0 -12 66 2 162 34 47 16 97 29 110 29 28 0
72 42 87 83 6 16 11 88 11 160 0 73 5 150 10 172 5 22 23 141 40 265 41 306
32 277 90 282 32 3 83 23 150 57 56 29 104 50 107 47 8 -8 -15 -86 -64 -220
-33 -89 -44 -132 -44 -177 -1 -118 68 -173 216 -174 94 0 166 28 190 76 17 32
20 97 5 119 -7 11 -10 3 -10 -30 0 -54 -32 -113 -58 -108 -13 2 -18 15 -20 53
-5 74 -17 74 -17 1 0 -80 -14 -98 -69 -94 -46 3 -44 -5 -32 123 4 47 3 66 -4
59 -5 -5 -13 -44 -16 -86 -7 -74 -8 -77 -35 -83 -36 -8 -87 18 -95 49 -3 14
-12 27 -20 30 -21 8 -18 106 7 174 11 31 38 108 60 171 46 131 75 192 131 274
59 88 40 78 -25 -12 -85 -119 -226 -207 -351 -218 l-59 -6 8 136 c7 128 1 217
-13 217 -4 0 -5 -42 -4 -92 5 -125 -12 -300 -55 -591 -23 -155 -38 -299 -42
-402 -7 -165 -13 -191 -53 -219 -36 -25 -66 -20 -87 15 l-19 31 -6 -30 c-11
-48 -58 -85 -118 -92 -74 -10 -86 16 -48 106 11 26 18 49 15 52 -2 3 -16 -22
-30 -54 -39 -89 -39 -89 -76 -89 -31 0 -35 3 -48 44 -15 49 -8 103 23 173 9
21 12 38 7 38 -5 0 -16 -21 -25 -47 -30 -87 -76 -113 -76 -42 0 31 21 85 84
217 47 98 101 224 122 282 35 96 38 114 38 210 0 85 -4 114 -21 152 -45 101
-140 217 -272 334 -46 41 -88 74 -92 74 -5 0 48 -55 117 -122 221 -215 240
-278 79 -258 -155 20 -279 66 -387 145 -45 33 -48 38 -48 81 0 25 7 73 16 106
19 76 11 89 -11 16 -21 -69 -34 -174 -35 -270 0 -78 -31 -284 -49 -329 -5 -13
-30 -46 -55 -74 -36 -40 -47 -47 -55 -36 -7 11 -13 7 -24 -20 -24 -56 -66 -88
-132 -100 -77 -14 -105 -3 -106 43 l0 33 -16 -32 c-21 -42 -32 -45 -90 -24
-71 25 -70 51 4 131 66 72 37 64 -32 -8 -47 -49 -55 -43 -27 23 33 77 57 106
117 140 100 56 153 128 170 230 4 22 15 86 26 143 20 110 25 266 10 320 -5 18
-36 68 -69 111 -93 123 -97 142 -97 426 0 269 1 273 82 439 23 49 43 99 43
110 1 12 13 -5 29 -40 48 -103 158 -186 216 -163 33 13 103 10 194 -7 100 -19
149 -16 250 16 85 27 141 72 141 114 0 14 1 26 3 26 1 0 24 -11 51 -25 57 -29
74 -30 121 -11 46 19 65 61 65 139 0 77 14 102 51 89 43 -17 87 -61 138 -140
79 -121 90 -132 165 -166 115 -53 305 -233 430 -406 66 -91 78 -146 77 -336
-1 -134 -19 -224 -70 -346 -42 -98 -30 -100 15 -2 54 115 77 259 71 432 -4
104 -2 134 8 138 21 8 112 -43 139 -78 34 -46 63 -116 97 -238 23 -82 28 -94
24 -54 -16 160 -73 278 -168 351 l-29 22 30 43 c78 114 110 218 122 398 6 84
6 138 0 144 -24 24 -90 -75 -114 -170 -21 -87 -80 -230 -111 -270 -32 -42 -60
-43 -84 -4 -10 17 -68 84 -130 150 -120 128 -250 234 -302 245 -78 17 -190
193 -197 310 -6 88 9 123 89 211 113 124 198 290 184 360 -8 47 -78 180 -113
217 -45 48 -138 118 -318 239 -188 126 -245 152 -379 167 -116 14 -402 20
-460 11z m485 -35 c90 -16 171 -45 227 -82 22 -16 108 -73 189 -128 165 -110
264 -201 309 -285 24 -45 30 -67 30 -121 0 -55 -6 -76 -37 -140 -21 -40 -67
-108 -103 -149 -112 -129 -120 -144 -120 -221 0 -183 -76 77 -100 346 -12 127
-43 236 -104 362 -32 66 -63 123 -69 127 -5 3 17 -52 49 -122 85 -186 103
-261 95 -392 -3 -58 -10 -181 -15 -275 -14 -249 -25 -301 -72 -326 -30 -16
-67 -6 -183 48 -77 35 -112 46 -149 46 -51 -1 -67 13 -67 59 0 13 -5 30 -10
38 -7 10 -8 1 -4 -31 5 -39 3 -50 -14 -67 l-20 -20 53 5 c60 6 109 -2 100 -18
-4 -5 -21 -16 -38 -24 l-32 -15 30 7 c56 13 127 9 138 -8 48 -75 -128 -157
-313 -146 -99 6 -120 12 -120 37 0 18 83 99 104 101 6 1 40 1 76 0 l65 0 -45
12 c-26 7 -44 18 -42 25 5 25 -116 -48 -152 -92 -46 -55 -80 -70 -151 -64 -40
3 -67 13 -97 34 -47 33 -60 56 -125 214 -25 63 -48 109 -50 103 -2 -5 6 -34
17 -63 l21 -53 -48 53 c-68 74 -83 101 -88 154 -6 56 -36 117 -120 242 -66 98
-103 180 -112 247 -3 21 -10 34 -14 30 -12 -12 14 -108 50 -185 15 -35 51 -90
78 -124 88 -108 107 -184 117 -461 7 -183 5 -184 -134 -83 -36 26 -114 74
-174 106 -129 70 -179 112 -234 196 -47 72 -59 125 -42 188 16 62 106 210 217
360 51 69 105 154 120 190 38 91 69 135 127 181 95 76 325 169 481 195 95 16
389 9 505 -11z m404 -1006 c8 -46 19 -104 26 -128 14 -54 1 -73 -28 -40 -28
29 -46 117 -32 153 5 15 10 46 10 68 0 61 9 42 24 -53z m1023 -596 c-6 -142
-37 -251 -95 -334 -39 -55 -61 -67 -108 -55 -36 9 -31 43 17 117 62 95 95 166
114 244 24 97 44 145 62 145 14 0 15 -16 10 -117z m-1448 -1338 c67 -21 86
-24 123 -15 59 13 74 12 92 -6 40 -40 1 -95 -99 -140 -48 -21 -159 -39 -150
-23 3 4 2 14 -1 23 -5 13 -10 12 -34 -6 -32 -24 -80 -20 -112 9 -23 21 -23 35
2 83 28 54 17 51 -16 -5 -14 -25 -35 -50 -47 -56 -19 -11 -20 -9 -13 31 12 78
68 129 143 130 18 0 68 -11 112 -25z"/>
<path d="M1690 3928 c0 -3 15 -31 34 -62 78 -130 136 -317 202 -649 23 -118
41 -186 48 -184 19 6 115 210 131 279 15 69 18 220 5 273 -5 19 -8 -18 -9 -99
-1 -100 -6 -145 -22 -200 -24 -82 -84 -206 -99 -206 -13 0 -14 2 -34 120 -27
154 -66 318 -98 420 -37 117 -108 269 -136 294 -12 11 -22 17 -22 14z"/>
<path d="M1533 3665 c-36 -15 -73 -67 -73 -102 0 -28 51 -70 94 -78 41 -8 92
16 108 50 16 36 2 90 -33 119 -35 29 -50 31 -96 11z m81 -46 c14 -17 26 -39
26 -50 0 -28 -36 -59 -69 -59 -35 0 -81 35 -81 61 0 19 1 18 20 -1 11 -11 28
-20 38 -19 15 0 15 1 -2 8 -14 5 -16 10 -8 15 17 10 15 26 -3 20 -10 -4 -15 0
-15 15 0 25 27 28 56 7 17 -13 17 -18 6 -36 -11 -19 -11 -21 0 -18 24 8 20 45
-8 67 -24 19 -25 21 -6 21 11 0 32 -14 46 -31z"/>
<path d="M738 3511 c-40 -20 -78 -74 -78 -113 0 -17 10 -39 25 -53 49 -49 168
-23 201 44 17 32 0 76 -40 105 -43 32 -70 37 -108 17z m98 -52 c30 -28 30 -50
2 -76 -34 -30 -56 -35 -88 -18 -50 26 -65 78 -33 110 22 23 87 14 119 -16z
m-106 -94 c19 -14 27 -25 19 -25 -9 0 -26 11 -39 25 -13 14 -21 25 -19 25 3 0
20 -11 39 -25z"/>
<path d="M730 3458 c0 -12 1 -19 3 -17 1 2 9 12 16 22 12 14 11 17 -3 17 -10
0 -16 -8 -16 -22z"/>
<path d="M799 3443 c0 -27 -1 -27 -9 -5 -11 25 -40 30 -40 6 0 -14 2 -15 18
-3 14 11 14 10 -2 -8 -17 -21 -17 -23 -2 -29 31 -12 73 44 46 61 -6 4 -10 -6
-11 -22z"/>
<path d="M174 3194 c13 -42 146 -287 177 -325 29 -37 129 -119 144 -119 4 0
-33 39 -82 88 -80 79 -94 99 -158 225 -64 126 -97 179 -81 131z"/>
<path d="M1310 3181 c-28 -7 -17 -9 48 -10 46 0 92 -5 102 -11 43 -23 48 -124
8 -175 -16 -21 -17 -25 -4 -25 47 0 -28 -62 -78 -65 -17 -1 -56 -8 -87 -15
-64 -14 -100 -9 -129 20 -33 33 -25 41 34 34 62 -8 74 3 45 39 -20 26 -30 27
-78 4 -20 -10 -26 -8 -48 17 -46 53 -9 123 77 146 21 6 42 15 45 20 19 31
-101 -17 -130 -52 -72 -86 29 -258 152 -258 14 0 57 8 96 17 53 13 79 25 103
50 63 62 68 188 9 243 -27 26 -101 35 -165 21z m-82 -213 c7 -7 12 -16 12 -20
0 -11 -42 -10 -60 2 -13 9 -13 11 0 20 20 13 34 12 48 -2z"/>
<path d="M1413 3025 c-34 -15 -43 -41 -21 -63 19 -19 41 -15 33 6 -13 31 -10
46 10 50 25 5 45 22 25 22 -8 -1 -30 -7 -47 -15z"/>
<path d="M1421 1022 c-6 -12 -11 -27 -11 -34 1 -7 8 0 16 15 9 16 13 31 11 34
-3 2 -10 -4 -16 -15z"/>
<path d="M2977 1551 c16 -121 -54 -273 -194 -423 -35 -37 -63 -75 -63 -85 0
-10 -9 -47 -20 -81 -24 -75 -25 -118 -4 -152 14 -25 14 -25 8 10 -3 22 3 68
15 117 12 45 21 90 21 100 0 10 25 43 56 73 69 68 145 180 174 257 25 65 33
194 13 214 -9 9 -10 1 -6 -30z"/>
<path d="M2395 778 c-4 -24 -14 -56 -22 -73 -19 -37 -12 -31 21 18 26 38 34
81 17 91 -5 4 -12 -13 -16 -36z"/>
<path d="M656 778 c-11 -41 -6 -53 9 -24 17 32 19 46 6 46 -5 0 -11 -10 -15
-22z"/>
<path d="M1856 212 c-4 -24 -6 -46 -2 -49 8 -8 18 42 14 68 -3 18 -6 13 -12
-19z"/>
</g>
</svg>
