<?xml version="1.0" standalone="no"?>
<!DOCTYPE svg PUBLIC "-//W3C//DTD SVG 20010904//EN"
 "http://www.w3.org/TR/2001/REC-SVG-20010904/DTD/svg10.dtd">
<svg version="1.0" xmlns="http://www.w3.org/2000/svg"
 width="300.000000pt" height="300.000000pt" viewBox="0 0 300.000000 300.000000"
 preserveAspectRatio="xMidYMid meet">
<metadata>
Created by potrace 1.10, written by Peter Selinger 2001-2011
</metadata>
<g transform="translate(0.000000,300.000000) scale(0.100000,-0.100000)"
fill="#000000" stroke="none">
<path d="M860 2553 c0 -3 14 -18 31 -32 l31 -26 -74 -1 c-44 -1 -88 -8 -111
-18 -38 -17 -42 -36 -7 -36 33 0 31 -18 -5 -40 -26 -16 -39 -19 -53 -11 -11 6
-105 13 -210 16 l-191 6 -17 -26 c-22 -34 -30 -177 -15 -273 19 -120 67 -255
118 -329 l46 -67 -29 -22 -28 -23 27 -12 c18 -8 24 -16 18 -23 -5 -6 -11 -25
-13 -41 -2 -24 1 -29 15 -27 14 2 17 -5 17 -37 0 -40 16 -63 29 -42 5 8 18 -3
36 -29 19 -27 44 -48 75 -61 42 -18 50 -28 80 -89 32 -66 33 -70 16 -94 -9
-14 -22 -26 -29 -26 -7 0 -22 -6 -33 -14 -18 -14 -18 -16 19 -54 l38 -39 -20
-34 c-36 -58 -23 -102 19 -64 15 14 18 7 29 -97 7 -62 15 -176 18 -254 6 -133
5 -144 -17 -187 -12 -25 -20 -53 -17 -61 16 -41 149 8 192 71 15 21 45 70 67
108 67 116 69 118 81 106 25 -25 37 -12 32 31 -6 39 -5 41 7 21 18 -30 87
-103 97 -103 5 0 19 23 31 52 20 48 23 51 36 34 7 -11 31 -27 52 -36 35 -16
40 -24 55 -76 23 -82 38 -191 35 -244 -3 -40 0 -45 23 -53 38 -14 98 1 129 31
18 19 38 63 63 142 48 154 67 197 77 180 6 -10 11 -8 19 8 7 13 17 19 26 16 8
-4 15 -1 15 5 0 6 7 8 17 4 12 -5 15 -2 10 10 -4 11 -1 17 8 17 21 0 26 -15
15 -44 -15 -41 11 -60 76 -53 74 8 104 25 140 80 75 115 99 121 171 44 63 -67
93 -124 93 -179 0 -60 9 -69 69 -70 56 -2 87 15 125 66 19 25 21 45 25 212 3
163 1 196 -19 280 -27 117 -93 252 -157 324 -41 45 -45 53 -30 62 23 12 21 26
-3 30 -18 3 -19 4 -3 37 11 21 30 39 51 48 40 16 35 26 -23 46 l-40 14 44 22
c47 24 43 40 -9 41 l-25 0 29 19 c33 22 55 53 97 134 40 79 90 131 139 147 52
17 74 6 78 -39 3 -25 7 -31 20 -27 13 4 17 -1 18 -23 2 -57 70 -121 129 -121
41 0 113 39 145 80 17 21 42 64 56 95 23 50 26 67 22 130 -9 132 -64 211 -188
266 -75 34 -227 29 -262 -8 -30 -32 -16 -40 21 -13 25 19 44 23 113 24 78 1
87 -1 150 -37 76 -42 108 -79 132 -151 22 -66 20 -134 -4 -198 -22 -58 -94
-153 -83 -109 4 17 3 22 -5 17 -7 -4 -12 -14 -12 -22 0 -17 -57 -54 -85 -54
-74 0 -139 106 -105 171 15 27 -4 24 -23 -3 -14 -20 -16 -21 -16 -5 -1 24 -40
56 -69 57 -12 0 -42 -9 -66 -20 -46 -22 -86 -70 -130 -157 -31 -63 -79 -119
-117 -139 -41 -21 -37 -38 6 -31 19 3 35 3 35 1 0 -3 -14 -17 -30 -31 -34 -28
-33 -35 6 -39 35 -4 43 -13 21 -25 -10 -6 -29 -33 -42 -62 -29 -60 -30 -61
-10 -53 8 3 15 1 15 -4 0 -15 -17 -12 -46 6 -13 9 -27 14 -30 12 -3 -3 15 -17
40 -32 92 -54 192 -223 227 -386 17 -80 20 -121 16 -260 -2 -91 -6 -176 -10
-190 -4 -14 -20 -38 -37 -53 -27 -24 -39 -28 -77 -25 l-46 3 -5 50 c-5 63 -40
129 -102 190 -73 71 -133 76 -267 19 -23 -10 -33 -10 -33 -2 0 7 -7 5 -17 -4
-10 -9 -24 -13 -31 -11 -8 3 -10 -1 -6 -11 4 -11 1 -16 -10 -16 -9 0 -16 5
-16 10 0 6 -4 10 -10 10 -5 0 -10 -7 -10 -16 0 -13 -3 -14 -14 -5 -11 9 -15 8
-20 -6 -6 -15 -8 -15 -16 -3 -8 12 -10 9 -11 -10 0 -14 -3 -19 -6 -12 -7 19
-20 14 -28 -11 -4 -13 -8 -17 -12 -9 -2 7 5 31 17 54 l21 41 -22 23 c-19 20
-20 24 -6 24 14 0 12 8 -12 41 -16 22 -33 55 -36 72 -12 58 -17 69 -26 60 -12
-12 16 -106 36 -123 8 -7 15 -18 15 -24 0 -6 -7 -2 -15 8 -8 11 -18 16 -22 13
-3 -4 3 -21 15 -37 12 -16 22 -36 22 -45 0 -8 6 -15 14 -15 11 0 7 -16 -16
-67 -17 -38 -51 -126 -75 -198 -25 -71 -49 -138 -55 -148 -13 -25 -74 -49
-107 -42 -26 5 -26 7 -27 93 0 66 -8 113 -31 197 -17 61 -34 126 -38 145 -4
19 -20 61 -36 93 -27 54 -29 65 -29 182 0 77 -4 125 -10 125 -6 0 -10 -49 -10
-126 0 -114 2 -130 26 -180 22 -47 53 -143 54 -166 0 -14 -61 25 -84 54 l-24
31 -18 -54 -18 -54 -8 40 c-13 59 -32 71 -25 16 l5 -43 -29 28 c-16 15 -34 43
-40 62 -14 44 -27 30 -31 -33 l-3 -50 -23 45 c-12 25 -22 55 -22 68 0 12 -4
22 -10 22 -13 0 -13 -31 0 -65 l10 -26 -31 18 c-50 29 -120 113 -114 134 5 15
1 19 -17 19 -13 0 -33 -7 -44 -15 -29 -22 -34 -18 -34 27 0 25 7 49 18 61 16
20 16 20 -3 12 -64 -25 -82 -13 -49 33 19 27 1 31 -34 6 -13 -9 -26 -13 -29
-10 -9 9 27 57 50 65 21 8 21 9 -8 24 -17 8 -39 25 -49 36 l-20 22 42 -7 c28
-4 42 -3 42 5 0 6 -8 11 -18 11 -29 0 -32 10 -11 31 10 10 19 28 19 40 0 11 3
19 8 17 59 -30 109 -48 134 -48 25 0 29 -3 23 -17 -22 -53 -6 -116 32 -127 62
-17 83 -16 121 3 32 16 41 27 46 56 5 26 3 44 -9 61 l-16 25 34 -6 c39 -8 164
23 226 54 46 24 111 88 136 135 14 25 28 37 50 41 43 8 145 58 145 71 0 7 21
15 48 19 26 4 74 14 107 22 69 18 134 13 220 -17 69 -24 71 -24 55 -6 -6 8
-28 20 -48 27 -53 16 -55 21 -34 70 11 25 23 65 27 89 l7 44 15 -27 c20 -39
35 -24 17 18 -20 49 -17 62 9 37 13 -12 26 -22 28 -22 3 0 4 25 1 55 -4 54 6
117 30 172 12 28 12 28 18 -20 7 -64 25 -55 25 13 0 46 8 72 53 161 29 58 62
115 74 125 21 19 21 19 14 -1 -14 -38 -23 -104 -16 -116 5 -8 10 -4 15 12 12
39 71 104 128 142 70 47 154 81 160 64 2 -7 12 -4 30 10 14 11 24 23 21 26 -9
8 -150 -39 -196 -66 -24 -14 -65 -48 -91 -76 -51 -54 -56 -53 -31 9 18 45 13
61 -11 36 -9 -8 -22 -19 -29 -23 -20 -12 -80 -110 -109 -178 -14 -33 -31 -59
-37 -57 -20 5 -61 -104 -67 -180 -6 -67 -7 -71 -21 -50 -21 32 -35 27 -30 -12
2 -22 0 -32 -8 -29 -7 2 -13 -15 -17 -49 -3 -29 -15 -76 -27 -104 l-21 -51
-49 5 c-44 4 -153 -14 -232 -39 -17 -5 -28 -4 -28 2 0 5 5 9 10 9 6 0 10 16
10 36 0 27 4 35 14 31 22 -9 24 0 15 45 -8 34 -7 43 8 54 17 12 16 15 -9 36
l-28 23 24 65 c13 36 36 117 50 181 41 183 33 409 -15 443 -21 14 -10 15 -244
-29 -163 -32 -179 -33 -229 -21 -38 8 -56 20 -80 50 -39 48 -106 82 -187 96
-76 12 -79 12 -79 3z m175 -57 c31 -16 63 -42 84 -69 25 -33 38 -43 54 -40 13
3 48 -9 80 -26 55 -29 75 -29 40 0 -14 12 -11 15 28 20 24 3 98 16 164 28 66
12 136 25 157 28 l36 5 12 -58 c8 -38 11 -104 7 -184 -4 -105 -11 -145 -42
-250 -20 -69 -39 -133 -42 -142 -9 -29 -19 -21 -37 30 -31 83 -29 79 -33 61
-2 -9 8 -48 23 -87 22 -57 33 -72 53 -77 25 -6 25 -7 6 -21 -16 -12 -18 -18
-7 -34 18 -29 15 -51 -4 -43 -14 5 -16 1 -10 -29 5 -27 3 -37 -9 -42 -9 -3
-15 -18 -15 -35 0 -24 -8 -34 -42 -54 -24 -13 -59 -28 -78 -32 -19 -4 -64 -22
-100 -41 -65 -33 -84 -40 -219 -75 -90 -23 -224 -25 -318 -3 -58 13 -147 43
-280 95 -18 8 -43 30 -59 56 -19 30 -31 40 -38 33 -21 -21 -29 -9 -23 41 6 46
5 50 -13 44 -15 -5 -17 -2 -13 15 3 11 9 20 14 20 14 0 10 30 -4 36 -10 4 -7
18 15 61 28 56 37 116 18 128 -6 4 -10 -9 -10 -32 0 -43 -9 -83 -19 -83 -16 1
-89 145 -119 235 -29 85 -35 119 -39 227 -4 93 -2 136 7 159 l13 32 121 -7
c224 -11 278 -17 272 -32 -8 -22 4 -17 65 26 32 22 67 40 80 40 19 0 15 -7
-29 -49 -44 -42 -72 -88 -95 -153 -9 -25 14 -23 73 7 55 28 57 27 36 -13 -20
-40 -27 -112 -11 -112 6 0 33 18 58 40 25 22 47 40 49 40 2 0 2 -18 0 -40 -6
-56 18 -63 64 -19 19 19 30 35 24 37 -7 3 -25 -8 -41 -24 l-29 -28 0 31 c0 18
5 44 10 59 6 15 8 29 6 32 -3 2 -33 -21 -68 -52 -34 -32 -64 -52 -66 -46 -7
19 29 114 51 138 29 31 12 28 -66 -13 -37 -19 -67 -32 -67 -27 0 4 14 30 30
59 29 51 109 123 136 123 8 0 14 4 14 9 0 5 -25 12 -57 16 -73 9 -89 15 -71
26 26 17 147 10 187 -11 21 -10 41 -17 44 -13 4 3 -15 26 -41 50 l-47 44 39
-5 c22 -3 62 -17 91 -30z m314 -1163 c-77 -80 -197 -115 -399 -117 -141 -1
-220 15 -264 53 -15 14 -56 82 -56 94 0 3 29 -6 65 -19 107 -39 261 -66 330
-59 76 9 265 59 313 84 48 25 53 9 11 -36z m-351 -155 c16 -16 15 -60 -2 -84
-17 -23 -103 -27 -129 -5 -20 16 -23 71 -5 89 7 7 37 12 68 12 31 0 61 -5 68
-12z m-281 -339 c8 -8 17 -5 32 10 27 27 51 27 51 1 0 -26 76 -102 129 -129
l40 -21 -48 -78 c-26 -42 -60 -98 -75 -125 -30 -52 -84 -92 -140 -102 -39 -8
-44 -1 -21 31 29 42 36 110 25 238 -15 170 -21 295 -12 234 5 -27 13 -53 19
-59z m1275 -67 c-15 -15 -41 -48 -58 -73 -27 -40 -39 -48 -83 -59 -28 -7 -62
-10 -74 -6 -20 5 -22 10 -19 46 3 30 8 40 18 36 19 -7 44 3 44 18 0 7 6 13 13
14 18 1 161 43 166 48 2 2 8 4 12 4 4 0 -5 -12 -19 -28z"/>
<path d="M1600 2370 c-33 -33 -78 -142 -94 -229 -9 -47 -14 -87 -11 -90 9 -9
25 21 25 49 1 42 26 132 51 185 18 37 30 51 49 53 24 4 24 3 -9 -32 -35 -36
-34 -40 4 -37 19 2 19 1 -2 -18 -28 -23 -28 -26 -3 -53 28 -31 25 -43 -6 -23
-31 20 -40 15 -24 -16 7 -12 16 -35 21 -52 l8 -30 -23 22 c-25 23 -42 16 -25
-9 5 -8 9 -29 9 -47 0 -25 -4 -31 -15 -27 -13 5 -12 1 2 -25 27 -46 36 -38 31
30 -4 58 -4 60 12 39 22 -29 29 -17 19 33 -12 60 -12 59 18 40 l26 -17 -7 29
c-4 17 -15 42 -26 56 l-19 26 30 29 c32 31 38 50 12 39 -10 -4 -25 -10 -33
-13 -8 -3 0 11 18 31 17 21 32 40 32 43 0 4 -17 3 -37 0 l-38 -7 25 20 c14 12
19 21 13 21 -7 0 -22 -9 -33 -20z"/>
<path d="M290 2332 c0 -4 5 -13 12 -20 9 -9 6 -12 -15 -12 -33 0 -34 -14 -4
-43 24 -22 24 -22 6 -52 -26 -41 -25 -58 3 -50 17 6 20 4 14 -11 -11 -30 -19
-104 -11 -104 9 0 34 31 35 43 0 5 -5 5 -11 1 -15 -9 -2 53 18 85 15 23 15 24
-11 17 -31 -8 -33 4 -5 30 l21 19 -27 21 c-26 21 -26 21 -6 27 18 4 26 -4 51
-53 28 -56 70 -194 70 -232 0 -10 5 -18 10 -18 6 0 10 8 10 18 0 30 -38 169
-59 217 -30 68 -101 150 -101 117z"/>
<path d="M344 2108 c-12 -18 -11 -118 1 -115 6 1 9 18 7 38 -2 19 2 47 7 62
11 28 0 37 -15 15z"/>
<path d="M373 2053 c-15 -26 -17 -36 -4 -28 6 3 8 -8 5 -27 -3 -18 0 -46 6
-63 11 -29 12 -29 26 -11 18 25 18 37 -1 30 -11 -5 -15 7 -17 58 -3 56 -4 61
-15 41z"/>
<path d="M587 1854 c-4 -4 -7 -14 -7 -23 1 -13 3 -13 15 3 13 17 17 17 31 5
15 -12 17 -12 12 1 -5 16 -39 25 -51 14z"/>
<path d="M1120 1845 c-6 -8 -8 -19 -4 -26 5 -8 9 -7 16 5 12 21 28 21 28 -1 0
-13 3 -14 11 -6 16 16 4 43 -19 43 -11 0 -25 -7 -32 -15z"/>
<path d="M596 1708 c-20 -28 -21 -82 -2 -97 8 -7 27 -11 43 -9 26 3 28 7 31
50 3 39 -1 49 -20 62 -29 21 -34 20 -52 -6z m52 -36 c2 -14 -2 -22 -12 -22
-19 0 -29 17 -22 36 8 22 30 12 34 -14z"/>
<path d="M1132 1688 c-18 -18 -14 -73 6 -91 25 -23 48 -21 66 5 22 31 20 45
-9 73 -27 28 -45 31 -63 13z m55 -34 c7 -20 -17 -37 -34 -23 -15 13 -6 39 13
39 8 0 17 -7 21 -16z"/>
<path d="M815 1540 c-8 -13 36 -40 63 -40 31 0 62 17 62 35 0 12 -5 12 -25 3
-18 -8 -35 -8 -60 -1 -19 6 -37 7 -40 3z"/>
<path d="M830 1451 c0 -17 6 -19 67 -18 59 2 68 4 71 22 2 12 0 16 -5 9 -9
-12 -101 -13 -120 -1 -9 6 -13 2 -13 -12z"/>
<path d="M147 1666 c-16 -17 -27 -22 -38 -16 -22 13 -59 -15 -59 -43 0 -34 26
-64 68 -77 20 -7 47 -19 60 -26 20 -13 23 -13 28 3 3 10 12 33 20 51 20 46 18
88 -6 112 -26 26 -46 25 -73 -4z m73 -32 c7 -18 4 -35 -13 -67 l-22 -43 -41
16 c-52 19 -74 37 -74 62 0 24 27 35 51 20 25 -16 29 -15 29 8 0 22 27 41 48
33 7 -3 18 -16 22 -29z"/>
<path d="M260 1476 c0 -17 35 -58 61 -72 32 -16 69 -19 69 -4 0 6 -13 10 -30
10 -20 0 -39 11 -65 37 -19 20 -35 33 -35 29z"/>
</g>
</svg>
