<?xml version="1.0" standalone="no"?>
<!DOCTYPE svg PUBLIC "-//W3C//DTD SVG 20010904//EN"
 "http://www.w3.org/TR/2001/REC-SVG-20010904/DTD/svg10.dtd">
<svg version="1.0" xmlns="http://www.w3.org/2000/svg"
 width="300.000000pt" height="309.000000pt" viewBox="0 0 300.000000 309.000000"
 preserveAspectRatio="xMidYMid meet">
<metadata>
Created by potrace 1.10, written by Peter Selinger 2001-2011
</metadata>
<g transform="translate(0.000000,309.000000) scale(0.100000,-0.100000)"
fill="#000000" stroke="none">
<path d="M1330 3060 c-20 -10 -79 -57 -133 -105 -100 -89 -131 -105 -206 -105
-24 0 -60 -4 -80 -9 -20 -6 -71 -16 -113 -22 -43 -7 -78 -17 -78 -21 0 -4 -9
-8 -20 -8 -36 0 -102 -32 -96 -46 8 -20 -2 -18 -59 13 -34 18 -92 33 -180 49
-71 12 -156 28 -189 35 -57 13 -59 13 -77 -10 -15 -19 -19 -40 -19 -105 0
-132 38 -231 124 -324 l41 -44 -35 -29 c-19 -16 -59 -37 -88 -46 -32 -10 -51
-22 -48 -29 3 -7 -8 -14 -25 -18 -32 -6 -39 -22 -11 -29 13 -4 11 -5 -5 -6
-24 -1 -33 -21 -10 -21 8 0 7 -3 -3 -10 -12 -7 -11 -10 5 -16 104 -40 130 -52
130 -61 0 -16 79 -78 154 -123 36 -21 102 -50 146 -64 44 -14 91 -30 105 -34
14 -5 50 -6 80 -2 l55 6 -60 8 c-179 24 -325 86 -413 175 -38 38 -74 64 -107
76 -55 20 -77 35 -55 36 9 0 7 4 -5 9 -18 7 -18 8 7 15 31 8 38 25 11 26 -20
1 -13 4 32 14 27 6 28 8 10 15 -17 6 -13 10 24 21 23 7 65 33 92 57 56 50 201
229 170 210 -34 -21 -52 8 -62 97 -4 43 -16 89 -24 102 -18 27 -59 47 -115 57
l-35 6 30 -14 c17 -8 42 -19 57 -24 39 -16 56 -48 68 -132 7 -51 17 -81 31
-96 l21 -23 -38 -45 c-21 -25 -42 -46 -46 -46 -4 0 -26 16 -48 36 -22 20 -40
32 -40 26 0 -5 18 -26 41 -47 30 -27 38 -40 30 -48 -17 -17 -97 67 -131 138
-48 98 -64 287 -26 301 18 7 330 -53 404 -77 l63 -21 -57 -54 c-31 -30 -54
-58 -50 -61 3 -3 27 14 53 38 27 25 65 55 86 68 20 12 35 27 31 32 -3 5 4 9
15 9 11 0 23 5 26 10 3 6 24 10 46 10 27 0 38 4 33 11 -4 8 0 9 15 4 11 -3 21
-3 21 2 0 5 8 9 18 10 9 0 33 3 52 7 70 12 165 26 179 26 7 0 2 -10 -13 -21
-15 -12 -25 -24 -22 -27 8 -7 107 69 200 156 80 74 157 122 195 122 52 0 105
-83 117 -182 6 -57 -14 -166 -41 -218 -14 -27 -14 -30 7 -50 12 -11 28 -20 35
-20 7 0 13 -4 13 -9 0 -15 59 -31 112 -31 30 0 47 -4 43 -10 -9 -14 7 -12 62
7 26 9 57 17 67 18 11 1 22 8 24 15 4 10 -1 11 -19 5 -13 -4 -66 -12 -118 -18
-83 -9 -95 -8 -103 7 -5 9 -15 16 -23 16 -23 0 -85 33 -85 44 1 6 9 36 20 66
24 70 26 197 4 263 -9 26 -28 60 -44 77 -23 25 -36 30 -72 30 -23 -1 -59 -9
-78 -20z"/>
<path d="M1355 3026 c-53 -23 -67 -49 -75 -133 -10 -100 -19 -122 -71 -167
-23 -20 -39 -36 -35 -36 20 0 55 26 99 73 37 39 47 46 44 30 -6 -26 5 -30 23
-8 18 22 33 19 20 -4 -14 -27 -13 -34 4 -28 10 4 13 1 10 -7 -3 -8 4 -16 18
-20 19 -5 20 -8 8 -16 -13 -8 -12 -11 5 -24 14 -11 17 -18 8 -24 -8 -5 -9 -13
-3 -22 14 -22 12 -33 -5 -26 -11 4 -15 -2 -15 -21 0 -26 0 -26 21 -7 13 12 19
27 16 41 -2 13 0 23 4 23 5 0 9 7 9 15 0 8 4 15 9 15 5 0 21 23 35 52 21 42
26 65 25 122 l-2 71 -7 -71 c-8 -70 -37 -155 -59 -168 -6 -4 -16 -4 -22 0 -8
4 -7 9 2 15 11 6 10 12 -4 27 -9 10 -14 22 -10 26 4 4 -2 9 -13 12 -16 4 -20
12 -16 30 5 26 -6 31 -27 12 -11 -10 -14 -10 -18 0 -7 17 -24 15 -39 -5 -11
-16 -12 -13 -4 17 6 19 10 57 10 83 0 65 13 85 73 112 29 14 43 24 32 24 -11
0 -33 -6 -50 -13z"/>
<path d="M1440 3033 c0 -5 11 -20 25 -33 14 -13 25 -19 25 -13 0 5 -11 20 -25
33 -14 13 -25 19 -25 13z"/>
<path d="M111 2788 c-8 -25 -3 -106 8 -112 3 -2 6 27 6 65 0 38 -1 69 -3 69
-1 0 -6 -10 -11 -22z"/>
<path d="M859 2597 c-64 -34 -109 -97 -109 -154 0 -60 23 -53 30 10 7 53 31
91 80 125 26 17 47 22 101 22 37 0 71 5 74 10 4 6 -19 10 -63 10 -53 0 -79 -5
-113 -23z"/>
<path d="M1815 2559 c-4 -5 -28 -23 -53 -39 -59 -37 -31 -39 34 -3 l49 27 -18
-29 c-10 -17 -37 -47 -60 -69 -23 -21 -34 -36 -24 -32 53 17 -95 -151 -188
-215 -27 -19 -144 -82 -260 -141 -115 -59 -203 -107 -194 -108 8 0 38 11 64
25 27 13 50 23 52 21 10 -10 -48 -62 -91 -81 -108 -47 -214 -69 -336 -69 -63
-1 -132 3 -152 7 l-38 8 0 -41 c0 -22 -9 -58 -20 -80 -11 -22 -20 -48 -20 -58
0 -21 -23 -43 -101 -95 -70 -47 -100 -77 -76 -77 9 0 28 5 43 10 l27 11 -27
-33 c-68 -83 -75 -168 -9 -106 33 31 37 17 8 -33 -41 -72 -28 -104 23 -56 l25
22 -8 -30 c-20 -78 -21 -93 -13 -115 l9 -25 19 25 19 25 -2 -60 c-1 -58 17
-125 33 -125 5 0 14 17 21 38 l13 37 8 -44 c10 -58 39 -114 66 -126 11 -5 24
-20 27 -33 3 -13 44 -112 90 -220 86 -201 104 -259 105 -324 l0 -36 -50 1
c-66 3 -82 -15 -88 -92 -4 -56 -2 -62 26 -90 19 -20 45 -33 71 -37 30 -5 41
-11 41 -24 0 -9 9 -25 20 -35 26 -24 222 -39 285 -23 49 13 91 56 128 134 l29
60 104 0 c97 -1 104 -2 115 -24 10 -17 10 -25 1 -34 -16 -16 -15 -60 1 -81 30
-41 251 -47 351 -10 26 10 65 32 85 49 21 18 53 33 76 37 29 4 49 16 73 43 17
21 32 42 32 48 0 6 4 17 9 25 7 11 17 8 53 -13 54 -32 92 -35 83 -7 -5 16 -1
18 44 13 28 -2 66 -1 86 2 30 6 35 10 30 27 -5 16 -2 19 25 19 33 0 130 44
130 60 0 5 -8 7 -17 4 -10 -3 0 5 22 17 56 30 224 204 257 265 30 56 84 263
94 360 12 117 -45 247 -179 406 -87 104 -121 174 -114 231 3 24 13 47 24 55
10 7 47 32 83 55 76 50 148 139 181 224 20 50 22 73 20 168 -2 61 -3 142 -2
180 0 39 -2 108 -6 155 -5 77 -7 82 -15 50 -5 -19 -16 -42 -23 -50 -14 -17
-29 -60 -21 -60 3 0 12 12 20 28 18 32 22 8 6 -34 -16 -40 -3 -43 15 -3 l16
34 -8 -55 c-9 -67 -9 -99 2 -213 6 -71 5 -99 -10 -152 -31 -117 -133 -243
-232 -287 -32 -14 -49 -29 -59 -54 -32 -76 -7 -141 105 -278 101 -122 158
-227 173 -320 9 -54 6 -79 -22 -216 -17 -85 -38 -170 -46 -188 -20 -49 -100
-138 -155 -174 -49 -31 -63 -45 -34 -34 25 9 17 -8 -18 -35 -38 -30 -80 -54
-122 -70 l-30 -12 25 -6 c24 -7 24 -7 -10 -21 -18 -8 -60 -14 -92 -14 -32 -1
-58 -4 -58 -8 0 -5 15 -15 33 -23 31 -14 28 -15 -65 -11 -54 2 -98 2 -98 -1 0
-3 8 -12 18 -19 31 -24 -8 -16 -55 11 l-43 26 0 72 c0 71 -12 166 -25 199 -6
14 -2 18 16 18 38 0 124 45 172 89 79 73 122 199 98 287 -20 75 -49 103 -171
171 -168 94 -238 141 -301 204 -107 107 -155 248 -147 434 5 113 29 165 130
284 157 185 314 258 634 296 180 21 257 45 311 101 36 36 43 49 43 84 0 46
-17 56 -18 10 -3 -101 -118 -158 -365 -180 -264 -24 -429 -99 -593 -272 -121
-128 -155 -198 -161 -333 -13 -293 103 -458 447 -636 104 -54 152 -100 170
-162 33 -121 -54 -281 -185 -337 -81 -35 -84 -34 -120 51 -36 85 -119 218
-186 296 -25 28 -92 93 -149 143 -185 161 -191 170 -276 398 -72 195 -90 222
-224 357 -36 37 -62 104 -48 129 5 9 60 41 122 71 200 96 342 209 411 330 16
28 44 70 62 94 39 52 43 76 12 66 -15 -5 -19 -4 -15 4 4 6 5 11 2 11 -3 0 -8
-5 -11 -11z m-595 -629 c0 -10 21 -43 46 -71 l45 -51 -28 -18 c-15 -9 -39 -29
-53 -44 -65 -71 -223 -126 -360 -126 -53 0 -105 8 -164 25 -47 14 -95 25 -106
25 -25 0 -25 13 0 69 11 24 20 58 20 76 l0 33 38 -14 c110 -39 437 18 520 92
33 29 42 30 42 4z m138 -175 c48 -54 77 -111 122 -240 51 -145 80 -210 111
-251 13 -17 83 -83 154 -146 178 -158 262 -264 340 -431 56 -120 79 -223 73
-336 -4 -96 -22 -138 -71 -175 -44 -33 -98 -26 -190 22 -72 38 -85 42 -152 42
-62 0 -82 -5 -130 -30 l-56 -30 -15 37 c-37 88 -48 161 -36 239 29 187 146
308 309 322 34 2 76 0 94 -7 45 -16 50 -5 6 14 -104 43 -284 -23 -356 -131
-68 -103 -95 -288 -57 -391 l15 -43 -89 0 c-52 0 -90 4 -90 10 0 5 18 39 40
74 64 105 99 181 115 248 8 34 12 64 10 66 -6 6 -25 -45 -25 -66 0 -25 -50
-126 -123 -249 -35 -59 -80 -140 -101 -180 -32 -60 -44 -74 -77 -87 -43 -17
-87 -20 -107 -8 -7 5 -15 24 -18 44 -8 47 17 96 54 104 46 10 48 12 14 13 -18
1 -42 -3 -52 -9 -26 -14 -42 -70 -34 -120 l7 -42 -34 7 c-69 15 -86 38 -75 99
7 36 29 61 61 69 13 3 9 5 -12 6 -27 1 -35 -4 -49 -31 -20 -38 -22 -101 -4
-123 10 -12 10 -15 -1 -15 -33 1 -59 41 -59 90 0 72 114 132 194 102 35 -14
46 -8 19 9 -18 10 -19 17 -10 63 13 71 3 262 -24 441 -29 197 -29 352 0 459
12 44 53 145 91 225 39 81 70 157 70 169 0 36 -17 17 -24 -27 -8 -55 -23 -59
-31 -10 -4 23 -13 56 -21 74 -13 31 -12 32 23 44 20 7 62 37 94 67 32 30 63
54 68 54 5 0 23 -16 39 -35z m-670 -123 c28 -8 52 -19 52 -24 0 -4 -4 -8 -9
-8 -13 0 -41 -64 -41 -93 0 -16 10 -34 28 -47 49 -40 142 -9 142 47 0 29 -25
80 -42 85 -7 3 28 8 78 12 51 3 118 13 150 22 62 16 77 11 79 -29 1 -12 7 -41
14 -63 13 -40 12 -44 -33 -142 -75 -164 -98 -257 -98 -392 0 -68 8 -172 21
-253 30 -195 31 -192 -31 -122 -29 32 -64 74 -76 92 -28 41 -43 36 -17 -4 l18
-28 -22 20 c-13 11 -39 46 -59 78 -20 33 -38 54 -40 48 -2 -6 3 -23 12 -36 22
-34 21 -52 -2 -31 -11 9 -31 48 -47 87 -15 38 -30 68 -32 65 -3 -3 2 -24 11
-47 15 -36 15 -41 2 -30 -23 19 -76 129 -82 173 -10 63 -27 45 -19 -19 l7 -58
-21 19 c-26 24 -51 104 -51 165 -1 42 -2 44 -15 28 -7 -11 -17 -36 -20 -58 -4
-21 -11 -39 -15 -39 -14 0 -22 103 -12 158 11 60 -1 68 -25 17 -17 -36 -33
-46 -33 -21 0 8 9 43 20 78 28 89 25 99 -16 54 -19 -21 -37 -36 -40 -33 -3 3
11 37 31 77 20 40 34 74 32 76 -2 2 -24 -11 -48 -30 -24 -19 -45 -33 -47 -31
-10 9 14 51 59 105 27 33 47 60 44 60 -3 0 -21 -7 -41 -15 -47 -19 -34 -2 29
39 29 18 61 43 71 55 22 24 36 23 134 -7z m132 -67 c27 -24 27 -81 1 -95 -11
-5 -32 -10 -46 -10 -47 0 -65 17 -63 58 1 37 1 37 5 5 5 -39 15 -42 33 -9 16
30 6 61 -16 52 -14 -5 -15 -4 -5 8 15 18 66 13 91 -9z m-77 -742 c13 -10 32
-33 42 -50 18 -31 28 -38 49 -34 5 1 28 -16 50 -37 23 -22 48 -42 57 -45 9 -3
36 -32 61 -66 25 -33 48 -57 52 -54 8 8 8 -167 0 -234 l-7 -51 -51 -6 c-70 -9
-113 -37 -136 -89 l-19 -42 0 43 c-1 23 6 58 13 77 8 19 11 35 7 35 -17 0 -36
-56 -36 -107 0 -57 -10 -66 -40 -33 -22 25 -16 77 16 121 22 31 22 31 1 20
-28 -15 -43 -44 -45 -86 -3 -50 -17 -31 -17 23 0 28 7 57 16 71 15 21 21 22
70 16 l54 -6 0 48 c0 78 -25 155 -125 381 -93 209 -123 293 -65 180 16 -31 40
-64 53 -75z m992 -610 c-19 -46 -25 -98 -15 -126 5 -17 10 -32 10 -33 0 -2
-18 -4 -39 -4 -49 0 -71 26 -71 85 0 53 15 72 65 84 57 13 58 13 50 -6z m165
-35 l80 -42 -27 -23 c-32 -26 -123 -63 -156 -63 -43 0 -62 24 -61 77 1 105 39
117 164 51z m-295 -40 c0 -29 4 -61 9 -70 6 -14 4 -16 -20 -9 -35 9 -49 31
-40 65 5 21 38 66 49 66 1 0 2 -24 2 -52z"/>
<path d="M1205 1786 c-45 -45 -47 -48 -16 -31 32 19 80 71 70 78 -2 2 -26 -20
-54 -47z"/>
<path d="M773 1554 c-3 -8 -1 -29 5 -47 8 -26 10 -28 11 -9 1 26 16 29 25 6 4
-9 9 -14 13 -10 7 7 -28 76 -40 76 -4 0 -10 -7 -14 -16z"/>
<path d="M1061 2525 c-23 -39 -36 -43 -63 -18 -17 15 -18 15 -18 0 0 -11 -8
-17 -25 -17 -33 0 -91 -53 -105 -96 -9 -25 -9 -48 -1 -85 6 -28 8 -55 5 -60
-7 -12 45 -5 123 17 61 17 97 55 140 149 21 47 37 67 63 81 22 12 36 28 38 43
l4 24 -32 -26 c-40 -34 -49 -34 -42 1 l5 27 -30 -32 c-17 -18 -33 -33 -35 -33
-3 0 -3 14 0 30 6 39 -1 38 -27 -5z m-71 -52 c0 -5 -5 -15 -10 -23 -9 -13 -11
-13 -20 0 -8 12 -10 12 -10 1 0 -8 -20 -36 -45 -62 -25 -27 -45 -42 -45 -33 0
33 31 85 62 104 33 20 68 27 68 13z m113 -52 l-28 -49 -16 28 c-10 15 -23 32
-31 36 -9 6 -1 12 27 20 75 23 78 20 48 -35z m-48 -53 c14 -55 -74 -100 -134
-68 -24 12 -25 64 -2 84 16 15 19 15 31 1 11 -13 9 -19 -9 -39 -25 -27 -18
-37 30 -38 40 -1 63 23 63 67 0 39 11 35 21 -7z m-144 -100 c-33 -14 -41 -8
-41 28 l0 35 29 -28 c24 -24 26 -29 12 -35z"/>
<path d="M432 2504 c-12 -8 -22 -20 -22 -25 0 -6 10 -3 22 5 51 36 95 13 137
-71 22 -44 41 -56 41 -27 0 17 -27 57 -72 105 -30 33 -71 38 -106 13z"/>
<path d="M361 2361 c0 -8 6 -23 16 -33 24 -26 11 -32 -20 -8 -30 24 -37 25
-37 6 0 -21 26 -38 61 -40 24 -1 37 -10 58 -41 36 -53 85 -85 130 -85 57 0 71
17 20 24 -38 5 -65 9 -90 15 -3 0 -20 21 -37 45 l-32 44 26 6 c33 9 44 1 44
-33 0 -15 7 -36 15 -47 17 -22 20 -12 5 17 -8 15 -7 19 5 19 8 0 15 -7 15 -15
0 -23 47 -50 63 -36 10 8 17 7 25 -1 27 -27 10 28 -25 84 -55 84 -123 111
-174 68 -13 -10 -19 -19 -12 -20 6 0 15 5 18 10 3 6 24 10 47 10 33 0 47 -7
75 -35 36 -36 39 -63 4 -31 -17 16 -36 22 -113 41 -10 2 -18 0 -18 -5 0 -14
-59 23 -64 40 -3 12 -4 12 -5 1z m169 -86 c0 -8 -4 -15 -10 -15 -5 0 -10 7
-10 15 0 8 5 15 10 15 6 0 10 -7 10 -15z"/>
<path d="M661 2191 c-32 -44 -28 -94 10 -125 17 -14 37 -26 45 -26 21 0 17
-18 -7 -30 -34 -19 -63 -8 -81 30 l-18 35 0 -31 c0 -58 56 -78 111 -41 30 20
44 23 90 19 45 -3 59 0 82 18 18 14 27 31 27 48 l-1 27 -13 -31 c-16 -37 -64
-57 -113 -48 -18 3 -33 8 -33 11 0 2 10 17 21 33 26 34 20 75 -12 83 -11 3
-41 0 -65 -8 -37 -11 -44 -11 -44 0 0 8 4 17 10 20 5 3 15 15 20 26 17 30 -6
23 -29 -10z m115 -55 c7 -18 -24 -86 -40 -86 -13 0 -57 29 -68 44 -13 19 -9
27 25 41 42 18 76 19 83 1z"/>
<path d="M836 1943 c-24 -13 -35 -13 -66 -3 -54 18 -74 6 -25 -15 32 -14 46
-15 77 -6 34 11 55 27 47 36 -2 2 -17 -4 -33 -12z"/>
</g>
</svg>
