<?xml version="1.0" standalone="no"?>
<!DOCTYPE svg PUBLIC "-//W3C//DTD SVG 20010904//EN"
 "http://www.w3.org/TR/2001/REC-SVG-20010904/DTD/svg10.dtd">
<svg version="1.0" xmlns="http://www.w3.org/2000/svg"
 width="300.000000pt" height="264.000000pt" viewBox="0 0 300.000000 264.000000"
 preserveAspectRatio="xMidYMid meet">
<metadata>
Created by potrace 1.10, written by Peter Selinger 2001-2011
</metadata>
<g transform="translate(0.000000,264.000000) scale(0.100000,-0.100000)"
fill="#000000" stroke="none">
<path d="M745 2521 c-68 -17 -112 -70 -122 -148 -4 -42 -2 -54 15 -71 11 -11
26 -22 33 -24 10 -4 4 -17 -23 -44 -44 -47 -117 -160 -148 -229 -40 -92 -102
-289 -107 -347 -5 -47 -2 -62 16 -92 32 -50 63 -70 171 -105 147 -48 205 -107
329 -340 100 -188 146 -243 236 -286 61 -30 121 -40 155 -26 22 8 18 10 -28
10 -30 1 -69 8 -88 17 -74 35 -130 121 -140 215 -4 30 -13 74 -20 98 -20 59
-65 151 -76 151 -11 0 -11 0 16 -56 25 -52 56 -164 56 -205 0 -13 10 -44 21
-69 20 -44 20 -45 0 -25 -11 11 -50 80 -86 154 -109 220 -187 321 -279 365
-19 9 -38 28 -44 43 -16 40 -32 162 -32 237 0 43 -4 66 -11 66 -21 0 -6 -227
18 -281 20 -45 20 -46 2 -42 -31 8 -71 105 -77 184 -7 100 38 327 65 322 5 -1
18 15 28 35 43 83 132 191 158 192 5 0 27 15 50 34 23 18 60 43 82 54 22 12
37 21 33 22 -4 0 0 19 8 42 8 23 13 47 10 54 -6 15 33 23 143 31 l83 6 -26
-26 c-14 -14 -26 -35 -26 -46 0 -25 31 -91 42 -91 5 0 4 9 -2 19 -14 26 -12
82 3 102 23 30 56 40 103 33 l45 -6 -28 -18 c-63 -38 -84 -124 -42 -171 18
-21 19 -21 13 -4 -5 11 -8 39 -8 62 0 36 6 49 39 84 37 38 43 40 81 35 23 -3
56 -13 75 -23 19 -10 35 -19 37 -19 1 -1 0 -20 -4 -42 -5 -32 -10 -39 -23 -35
-9 3 17 -28 57 -68 41 -41 86 -94 100 -119 18 -31 28 -40 30 -28 2 9 -2 27 -8
38 -13 25 -13 25 21 33 23 6 28 1 58 -66 79 -171 113 -311 115 -475 1 -138 -9
-165 -72 -200 -43 -24 -64 -24 -45 0 36 47 48 268 20 358 -14 42 -14 36 -9
-100 6 -173 -10 -260 -55 -297 -15 -12 -28 -21 -30 -19 -1 1 7 27 18 57 13 32
23 86 25 134 l4 80 -20 -85 c-46 -191 -41 -183 -140 -255 -186 -137 -238 -221
-227 -369 8 -91 32 -326 45 -431 5 -38 8 -71 7 -73 -2 -2 -36 18 -76 44 -101
64 -241 208 -321 329 -64 96 -153 269 -178 348 -6 20 -15 37 -20 37 -9 0 19
-88 58 -186 19 -48 20 -58 8 -136 -10 -71 -19 -96 -59 -159 -25 -41 -80 -145
-122 -231 -42 -87 -80 -160 -84 -163 -5 -2 -6 -15 -4 -28 12 -64 -135 -131
-247 -112 l-42 7 4 49 c1 27 0 49 -3 49 -17 0 -31 -33 -25 -60 7 -36 4 -36
-40 -9 -34 20 -34 20 -19 56 22 52 18 62 -11 28 l-26 -30 6 30 c14 66 112 109
231 103 42 -2 71 0 66 5 -5 5 2 33 15 64 44 100 124 391 194 708 27 122 48
185 62 185 6 0 9 3 6 6 -4 3 -15 1 -26 -5 -25 -13 -55 -112 -131 -426 -64
-264 -106 -422 -126 -483 l-13 -37 -74 3 c-161 7 -277 -86 -226 -181 14 -27
31 -41 83 -69 33 -18 56 -22 130 -22 76 -1 97 3 139 25 57 29 88 65 90 106 1
17 6 36 12 44 13 16 124 208 124 214 0 2 10 20 22 41 21 35 22 36 37 17 37
-46 222 -143 271 -143 11 0 22 -4 25 -10 9 -14 -18 -12 -105 6 -129 27 -190
28 -228 5 -41 -27 -72 -77 -72 -120 0 -47 58 -104 130 -125 91 -27 138 -20
213 31 46 32 111 50 247 68 58 8 108 15 113 15 4 0 7 -36 6 -80 -2 -72 0 -83
22 -106 85 -91 307 -99 402 -14 28 25 32 35 32 78 0 59 -14 78 -82 113 -38 19
-64 24 -124 24 l-76 0 4 85 c7 137 48 443 72 540 l9 35 1 -38 c2 -74 23 -183
48 -245 23 -58 24 -68 13 -108 -19 -68 -6 -63 18 7 59 173 181 292 351 343 74
22 249 22 257 1 10 -24 -24 -145 -59 -212 -69 -135 -152 -223 -286 -306 -25
-16 -35 -25 -21 -20 32 10 130 6 200 -9 30 -7 111 -11 179 -10 69 1 132 -3
143 -9 45 -24 74 -113 45 -137 -10 -8 -12 -3 -9 26 2 23 -3 45 -12 57 -15 19
-16 16 -13 -40 2 -59 1 -60 -25 -63 -26 -3 -27 -1 -22 26 5 26 -17 92 -32 92
-3 0 -2 -27 2 -60 l7 -60 -39 0 c-22 0 -63 9 -92 20 -111 42 -247 71 -372 79
-69 5 -138 14 -155 20 l-30 12 55 23 c69 27 78 33 130 76 51 42 121 137 156
214 36 79 24 93 -16 18 -19 -34 -38 -62 -42 -62 -5 0 -8 -4 -8 -10 0 -30 -155
-182 -218 -214 -43 -22 -65 -26 -136 -26 -47 0 -87 -4 -91 -9 -8 -14 59 -25
110 -18 31 5 53 1 84 -13 24 -12 80 -24 143 -31 57 -5 130 -17 163 -25 102
-26 229 -66 244 -77 21 -18 182 -12 219 7 73 38 44 165 -45 203 -26 10 -58 12
-132 7 -61 -4 -143 -2 -215 6 l-116 13 65 44 c113 75 216 223 259 372 29 100
19 141 -36 141 -15 0 -28 2 -28 5 0 2 11 21 25 41 36 53 33 104 -12 206 -46
106 -50 172 -13 243 33 65 104 136 164 163 l48 23 15 -21 c28 -40 57 -60 110
-77 44 -14 59 -15 95 -4 44 13 96 46 135 86 23 25 77 117 87 152 l7 22 -40
-20 c-22 -10 -46 -19 -53 -19 -8 0 -47 16 -88 36 -64 32 -86 37 -148 38 -70 1
-75 0 -98 -29 -13 -16 -27 -46 -30 -67 -6 -34 -10 -38 -68 -59 -175 -63 -255
-164 -256 -320 0 -59 29 -164 61 -215 25 -41 24 -95 -2 -128 -12 -15 -18 -30
-14 -34 9 -9 52 45 59 75 4 12 0 39 -8 60 -8 21 -24 65 -36 98 -32 84 -32 212
0 275 31 61 92 115 181 160 72 37 77 38 82 20 4 -15 -1 -22 -21 -26 -88 -21
-203 -133 -229 -223 -21 -72 -12 -124 37 -231 45 -98 47 -118 21 -176 -23 -51
-30 -56 -69 -44 -19 5 -34 5 -37 -1 -4 -5 -21 -9 -39 -9 -34 0 -124 -23 -166
-43 -105 -49 -210 -159 -244 -255 -9 -23 -16 -32 -19 -22 -11 32 -26 108 -37
185 -6 44 -15 100 -20 125 -5 28 -4 62 2 92 9 37 8 54 -1 75 -7 16 -15 53 -17
83 -2 30 -5 64 -6 74 -2 16 15 28 89 60 129 58 153 95 153 234 0 164 -45 334
-133 506 -33 64 -35 71 -19 82 9 8 25 16 35 19 23 8 47 56 47 95 0 51 -37 114
-88 151 -39 28 -56 34 -99 34 -52 0 -65 -8 -105 -65 -13 -20 -14 -19 -64 6
-28 14 -75 31 -105 39 -76 21 -237 18 -324 -5 -41 -10 -71 -14 -74 -8 -18 49
-123 79 -206 59z m156 -54 c36 -24 45 -49 35 -101 -5 -27 -13 -34 -56 -49 -27
-10 -63 -29 -79 -43 -35 -29 -50 -27 -110 16 -32 24 -41 36 -41 60 0 48 26 98
62 120 48 29 143 28 189 -3z m779 -17 c54 -28 95 -91 95 -147 0 -49 -13 -64
-93 -103 l-42 -21 -51 55 c-27 30 -59 58 -70 61 -17 6 -19 12 -13 38 10 47 41
104 66 121 30 21 61 20 108 -4z m-952 -201 l31 -11 -39 -39 c-50 -50 -119
-150 -153 -220 -78 -160 -80 -372 -4 -456 28 -31 6 -30 -59 2 -91 45 -102 99
-55 255 46 153 60 190 102 270 32 62 133 210 143 210 2 0 17 -5 34 -11z m2012
-438 c81 -33 119 -38 153 -19 21 11 21 10 5 -13 -9 -13 -24 -23 -34 -22 -11 2
-36 6 -56 9 -32 5 -44 1 -95 -35 -66 -46 -106 -52 -173 -25 -44 18 -47 28 -26
78 31 75 89 82 226 27z m114 -70 c16 -6 17 -9 5 -16 -8 -5 -22 -11 -33 -12
-10 -2 -46 -19 -81 -38 -51 -29 -72 -35 -121 -35 -40 0 -68 6 -84 17 -51 35
-55 64 -4 34 23 -14 52 -21 84 -21 41 0 56 6 101 40 54 40 89 48 133 31z m-45
-71 c-48 -41 -96 -62 -149 -66 -50 -4 -46 0 16 15 23 6 68 29 100 51 66 44 85
45 33 0z m-1199 -387 c0 -22 -2 -25 -10 -13 -17 26 -11 5 20 -70 l30 -74 -20
-65 c-36 -116 -39 -125 -50 -186 -29 -158 -39 -256 -41 -392 -2 -93 -6 -151
-13 -155 -8 -5 -7 -8 2 -8 6 0 12 -9 12 -20 0 -11 5 -20 11 -20 6 0 9 9 6 20
-5 18 0 20 44 20 60 0 155 -35 186 -68 27 -29 22 -44 -5 -19 -21 19 -42 22
-42 7 0 -5 3 -10 8 -10 4 -1 20 -11 35 -24 l28 -23 -26 -31 c-33 -39 -41 -40
-48 -3 -6 30 -39 70 -44 54 -2 -5 5 -27 16 -48 18 -37 18 -41 3 -49 -26 -15
-163 -19 -210 -7 -23 7 -57 25 -76 41 -33 29 -34 31 -29 93 10 124 -16 409
-61 657 -23 128 -4 191 82 276 48 48 171 144 185 144 4 0 7 -12 7 -27z m-688
-463 c70 -117 95 -148 183 -233 62 -61 177 -138 233 -158 29 -10 32 -15 32
-54 l0 -42 -87 -7 c-160 -12 -207 -24 -328 -90 -16 -9 -43 -16 -60 -16 -44 0
-105 19 -105 33 0 7 12 32 25 56 27 46 26 63 0 41 -24 -20 -47 -70 -41 -86 8
-21 -6 -17 -37 11 -29 27 -27 46 8 75 9 7 21 22 26 32 16 30 -9 22 -42 -13
-16 -17 -29 -29 -29 -26 0 17 25 54 47 71 28 21 41 22 258 12 84 -4 176 -3
210 2 l60 10 -69 1 c-58 1 -86 9 -190 52 -66 28 -142 64 -169 80 -26 16 -52
29 -57 29 -25 0 -19 35 19 105 38 69 41 81 41 152 0 42 2 74 5 72 2 -3 33 -52
67 -109z"/>
<path d="M743 2420 c-35 -14 -27 -25 16 -25 26 -1 50 -10 75 -28 45 -35 50
-14 7 32 -30 32 -57 37 -98 21z"/>
<path d="M1581 2364 c-12 -15 -21 -41 -21 -58 1 -29 1 -30 15 -12 8 11 15 25
15 31 0 17 46 38 69 32 23 -6 27 3 9 21 -21 21 -65 14 -87 -14z"/>
<path d="M2545 1740 c28 -12 55 -12 55 0 0 6 -17 10 -37 9 -31 0 -34 -2 -18
-9z"/>
<path d="M1047 2398 c-14 -13 -33 -40 -41 -60 l-15 -38 25 16 c13 9 24 21 24
26 0 5 9 23 21 40 27 37 19 46 -14 16z"/>
<path d="M1326 2344 c-11 -28 -6 -71 9 -84 9 -8 15 -9 15 -2 0 6 -4 13 -9 16
-4 3 -6 24 -4 46 4 41 0 52 -11 24z"/>
<path d="M1081 2298 c0 -22 1 -22 8 -3 8 19 9 18 13 -5 5 -25 5 -25 7 3 1 18
-4 27 -14 27 -9 0 -15 -9 -14 -22z"/>
<path d="M1409 2301 c6 -10 30 -34 53 -52 l43 -32 -50 51 c-54 57 -61 62 -46
33z"/>
<path d="M1369 2300 c-12 -29 -3 -65 19 -75 12 -5 22 -13 22 -17 0 -5 6 -8 13
-8 17 0 77 -56 77 -71 0 -7 3 -9 6 -6 4 4 -1 19 -11 34 -22 34 -29 41 -77 77
-23 17 -38 37 -40 54 -2 18 -5 22 -9 12z"/>
<path d="M814 2178 c-84 -88 -147 -175 -138 -189 4 -7 3 -9 -3 -6 -6 4 -18 -4
-27 -18 -20 -30 -20 -36 -1 -29 8 4 12 11 8 17 -4 6 0 8 10 4 10 -4 21 2 30
16 8 12 25 33 37 47 73 82 168 220 151 220 -4 0 -35 -28 -67 -62z"/>
<path d="M1000 2233 c0 -4 9 -26 21 -49 28 -59 92 -91 152 -76 l42 10 -38 1
c-59 2 -107 29 -136 78 -24 38 -41 54 -41 36z"/>
<path d="M940 2184 c0 -20 8 -38 24 -53 l25 -23 -51 -77 c-60 -89 -160 -191
-206 -210 -67 -28 -57 -109 32 -250 24 -38 102 -101 125 -101 6 0 30 -18 53
-41 72 -69 107 -78 235 -59 38 5 98 14 134 19 123 17 254 103 299 196 l22 45
-22 46 c-14 29 -40 59 -69 80 -44 31 -49 39 -74 121 -39 129 -47 164 -47 203
0 20 -5 41 -12 48 -20 20 -87 14 -157 -14 -120 -48 -246 -20 -291 64 l-19 37
-1 -31z m473 -151 c4 -49 18 -125 31 -171 23 -75 30 -87 85 -140 82 -78 83
-101 4 -184 -63 -65 -139 -109 -230 -133 -66 -17 -78 -13 -33 10 42 21 31 32
-12 12 -56 -26 -127 -40 -179 -34 -56 7 -134 54 -151 93 -14 30 -28 32 -20 2
5 -20 1 -19 -41 12 -55 39 -90 87 -123 167 -24 60 -29 91 -16 108 4 6 30 25
57 44 63 42 128 121 174 208 19 38 36 70 38 72 1 2 21 -4 45 -14 27 -11 72
-17 123 -17 69 -1 86 3 125 25 26 16 60 27 81 27 l36 0 6 -87z"/>
<path d="M1081 2014 c-31 -40 -26 -94 10 -94 43 0 67 90 30 110 -16 8 -23 5
-40 -16z m29 -8 c0 -8 -4 -17 -9 -21 -12 -7 -24 12 -16 25 9 15 25 12 25 -4z"/>
<path d="M1197 2013 c-14 -13 -7 -90 9 -104 36 -29 71 41 44 91 -10 19 -40 27
-53 13z m25 -28 c0 -5 -5 -11 -11 -13 -6 -2 -11 4 -11 13 0 9 5 15 11 13 6 -2
11 -8 11 -13z"/>
<path d="M1033 1810 c-35 -14 -38 -46 -8 -86 14 -19 38 -42 52 -51 23 -15 27
-15 58 1 38 21 101 83 93 92 -11 10 -67 -25 -95 -60 l-27 -35 -33 37 c-35 41
-41 67 -17 76 25 10 83 7 105 -5 11 -5 28 -8 37 -6 27 6 -67 47 -108 46 -19 0
-45 -4 -57 -9z"/>
<path d="M905 1662 l-40 -27 32 -3 c21 -2 34 -10 38 -22 19 -59 129 -95 157
-51 11 19 13 18 30 -10 36 -59 115 -64 161 -9 18 21 31 27 46 23 11 -3 21 -1
21 5 0 12 -57 62 -71 62 -12 0 -12 -27 1 -35 20 -12 9 -32 -25 -48 -20 -9 -46
-17 -58 -17 -29 1 -80 46 -83 74 -1 11 -3 28 -4 36 -1 8 -6 2 -12 -15 -6 -16
-15 -36 -21 -42 -16 -21 -62 -15 -100 15 -33 24 -37 31 -32 60 3 17 5 32 3 31
-2 0 -21 -12 -43 -27z"/>
<path d="M830 2083 c-18 -32 -39 -66 -48 -76 -13 -14 -13 -17 -1 -12 20 8 100
145 85 145 -2 0 -19 -26 -36 -57z"/>
<path d="M1620 2047 c0 -2 16 -31 36 -63 28 -45 35 -52 29 -29 -8 38 -36 87
-53 93 -6 2 -12 2 -12 -1z"/>
<path d="M1609 1974 c17 -48 40 -95 41 -84 0 12 -40 114 -50 124 -5 5 -1 -13
9 -40z"/>
<path d="M727 1493 c-2 -4 9 -21 26 -38 l30 -30 -23 35 c-13 19 -25 36 -26 38
-1 2 -4 0 -7 -5z"/>
<path d="M780 1497 c0 -4 19 -31 43 -61 23 -29 48 -61 55 -72 7 -10 3 -1 -7
21 -19 39 -90 127 -91 112z"/>
<path d="M1116 1275 c12 -8 27 -28 34 -45 16 -40 23 -33 9 9 -6 17 -19 36 -29
41 -28 15 -37 12 -14 -5z"/>
<path d="M1020 1265 c0 -3 5 -11 10 -18 6 -7 17 -21 26 -32 13 -17 13 -16 0
12 -15 29 -36 52 -36 38z"/>
<path d="M1090 1245 c0 -18 19 -40 26 -32 4 4 0 15 -9 24 -9 10 -17 13 -17 8z"/>
<path d="M1110 1141 c0 -88 17 -162 48 -206 29 -42 113 -105 141 -105 9 0 3 8
-16 20 -56 34 -109 95 -126 145 -9 26 -20 83 -23 126 -8 92 -24 106 -24 20z"/>
</g>
</svg>
