<?xml version="1.0" standalone="no"?>
<!DOCTYPE svg PUBLIC "-//W3C//DTD SVG 20010904//EN"
 "http://www.w3.org/TR/2001/REC-SVG-20010904/DTD/svg10.dtd">
<svg version="1.0" xmlns="http://www.w3.org/2000/svg"
 width="300.000000pt" height="257.000000pt" viewBox="0 0 300.000000 257.000000"
 preserveAspectRatio="xMidYMid meet">
<metadata>
Created by potrace 1.10, written by Peter Selinger 2001-2011
</metadata>
<g transform="translate(0.000000,257.000000) scale(0.100000,-0.100000)"
fill="#000000" stroke="none">
<path d="M2040 2251 c-110 -34 -222 -128 -305 -256 -49 -75 -93 -125 -335
-380 -110 -116 -382 -474 -375 -493 3 -7 1 -10 -5 -7 -12 8 -192 -263 -184
-277 4 -6 3 -8 -3 -5 -6 4 -21 -15 -34 -41 -13 -26 -39 -68 -57 -93 -33 -49
-40 -65 -20 -53 7 4 8 3 4 -5 -4 -6 -11 -9 -16 -6 -4 3 -34 -37 -66 -87 -32
-51 -91 -128 -131 -172 -71 -75 -85 -100 -46 -77 10 6 14 11 10 11 -5 0 13 22
39 50 26 27 51 47 57 43 6 -3 7 -2 4 4 -7 10 39 60 51 56 4 -2 7 2 7 9 0 6 8
12 18 14 11 1 22 6 25 10 4 4 -2 4 -12 0 -16 -5 -17 -4 -6 9 7 8 17 12 22 9 5
-4 25 9 44 27 19 18 34 29 34 23 0 -19 -75 -120 -129 -174 -31 -30 -55 -58
-53 -62 1 -4 -4 -5 -11 -3 -6 3 -25 -4 -42 -15 -16 -11 -28 -20 -25 -21 34 -9
54 -2 92 35 74 71 150 169 187 243 23 47 26 57 11 48 -5 -3 -10 -2 -10 4 0 6
9 15 20 21 11 6 20 17 20 25 0 9 6 12 15 9 18 -7 20 -31 3 -36 -9 -3 -9 -6 -1
-11 8 -5 16 6 22 29 8 30 7 39 -9 56 -10 11 -23 17 -29 13 -7 -3 -11 2 -11 14
0 25 13 27 30 6 14 -17 40 -3 40 22 0 8 11 25 25 38 13 14 20 25 14 25 -6 0
-7 5 -3 11 4 8 9 7 15 -2 4 -7 5 -18 1 -24 -3 -5 -5 -21 -4 -35 1 -23 1 -23
-7 -5 -9 19 -11 18 -15 -2 -1 -5 -8 -19 -16 -33 -8 -14 -15 -45 -16 -70 l-2
-45 12 45 c6 25 15 43 20 42 4 -2 11 0 14 4 4 4 1 4 -6 0 -8 -5 -11 -1 -9 13
4 28 17 39 18 15 1 -27 17 15 31 80 7 34 13 44 19 35 5 -8 9 -9 9 -4 0 6 -4
17 -9 24 -8 12 -11 9 -16 -12 -4 -15 -11 -24 -16 -22 -4 3 -6 13 -3 23 4 11
-2 8 -15 -8 -11 -14 -21 -29 -21 -33 0 -5 -4 -6 -9 -3 -4 3 -16 -3 -26 -14
-16 -18 -14 -24 7 -21 4 0 2 -10 -4 -24 -6 -13 -15 -22 -21 -18 -5 3 -3 9 4
14 12 8 12 11 -1 18 -9 7 -17 6 -21 -1 -4 -6 -12 -9 -19 -6 -8 2 17 30 56 65
130 115 293 253 299 253 8 0 171 116 203 144 12 11 22 16 22 12 0 -8 53 26 88
58 12 11 29 21 37 22 25 4 103 53 118 75 10 14 16 16 19 7 5 -15 -18 -63 -32
-64 -5 -1 -15 -2 -21 -3 -5 0 -8 -5 -5 -10 3 -5 -1 -14 -9 -21 -10 -8 -12 -17
-6 -24 6 -7 4 -18 -6 -31 -15 -20 -15 -20 -11 1 3 13 0 21 -8 21 -13 0 -15 -4
-18 -33 -1 -12 -35 -49 -37 -40 -1 3 -2 10 -3 15 -2 19 -14 21 -27 4 -8 -9 -9
-14 -2 -10 6 4 14 3 18 -2 3 -5 -1 -13 -8 -18 -8 -4 -16 -18 -19 -31 -4 -12
-2 -20 3 -16 5 3 9 13 10 22 0 11 3 12 6 5 2 -7 9 -13 15 -13 7 0 6 5 -1 14
-14 17 -5 24 27 21 16 -1 22 4 22 17 0 14 6 18 23 16 16 -2 21 2 19 14 -1 9 2
19 6 22 5 3 10 -6 10 -19 0 -14 -4 -28 -9 -31 -5 -3 -9 -10 -9 -17 0 -6 7 -1
16 11 10 14 14 35 11 58 -4 25 1 41 15 57 15 17 18 18 14 5 -3 -10 -3 -18 -1
-18 8 0 32 55 29 68 -1 7 0 8 3 2 3 -8 9 -7 19 1 19 16 18 0 -2 -22 -9 -10
-11 -20 -6 -23 5 -3 15 8 22 24 7 16 15 28 19 25 4 -2 19 2 34 10 15 7 29 10
32 6 6 -11 -30 -43 -38 -34 -4 3 -7 2 -7 -4 0 -6 13 -13 29 -15 17 -2 28 -2
26 2 -2 3 5 11 16 18 20 13 24 7 20 -27 -2 -7 2 -10 8 -6 6 3 11 2 11 -3 0 -6
-7 -13 -16 -16 -9 -4 -14 -9 -11 -13 4 -3 13 -1 20 5 11 9 17 6 27 -13 7 -13
18 -22 23 -18 6 3 7 1 3 -6 -6 -9 -11 -9 -22 0 -14 11 -15 10 -18 -11 0 -5 -5
-10 -11 -10 -5 1 -9 10 -7 20 2 11 -1 20 -7 20 -6 0 -8 -8 -5 -17 5 -15 4 -15
-4 -3 -6 8 -8 18 -6 22 3 4 0 8 -7 8 -10 0 -10 3 -1 12 7 7 12 17 12 23 0 5
-7 1 -15 -9 -8 -10 -12 -23 -9 -27 3 -5 0 -9 -5 -9 -6 0 -11 4 -11 9 0 15 -32
6 -46 -14 -15 -20 -9 -39 9 -28 7 4 6 -1 -2 -10 -13 -17 -15 -17 -34 0 -19 18
-20 17 -8 -4 13 -26 14 -33 2 -33 -5 0 -12 8 -14 18 -2 9 -3 -1 -1 -23 1 -22
3 -43 3 -47 1 -5 7 -8 15 -8 14 0 16 23 3 36 -8 8 11 34 25 34 6 0 5 -7 -2
-16 -11 -12 -11 -15 0 -12 8 2 15 -4 16 -12 5 -58 5 -57 13 -35 5 12 4 23 -3
27 -7 5 -5 8 6 8 12 0 16 5 11 18 -5 14 -3 15 8 5 19 -18 26 -16 32 10 6 22 6
22 -10 2 -15 -20 -15 -20 -10 3 7 30 -14 24 -30 -9 -12 -22 -19 -19 -13 6 9
41 8 50 -3 57 -8 5 -9 10 -1 18 8 8 14 7 23 -4 7 -8 19 -12 27 -9 10 4 12 0 7
-13 -4 -12 -3 -15 5 -10 7 4 15 1 18 -8 8 -21 30 -20 38 1 6 14 9 15 15 4 6
-9 11 -10 15 -3 8 13 36 4 36 -10 0 -7 -4 -7 -13 0 -8 7 -17 6 -30 -3 -13 -9
-14 -14 -5 -17 8 -3 5 -12 -10 -28 -12 -13 -22 -20 -22 -14 0 5 -5 2 -10 -6
-8 -13 -10 -13 -10 1 0 9 7 19 15 23 8 3 15 11 14 18 0 10 -2 10 -6 0 -2 -6
-9 -10 -13 -7 -5 3 -14 -4 -20 -15 -6 -12 -16 -18 -23 -14 -7 4 -8 3 -4 -2 5
-5 14 -9 20 -9 7 -1 11 -7 9 -15 -3 -11 0 -11 12 -1 8 7 21 9 27 5 8 -4 9 -3
5 4 -4 7 -3 12 3 12 15 0 19 -23 8 -45 -9 -19 -8 -19 8 -4 13 13 15 21 6 37
-7 14 -7 27 2 46 14 30 31 35 22 6 -4 -11 -2 -20 4 -20 6 0 10 3 10 8 -3 19 2
33 10 28 5 -3 12 1 15 9 7 20 6 31 -4 28 -4 -1 -10 7 -13 17 -3 11 -1 20 4 20
5 0 9 -5 9 -11 0 -5 5 -7 12 -3 8 5 4 11 -11 18 -18 8 -25 6 -32 -7 -13 -22
-38 -11 -32 14 3 10 9 19 14 19 5 0 5 -8 2 -17 -6 -15 -5 -15 16 -1 13 9 29
14 36 12 7 -3 15 3 18 13 4 16 5 16 6 -2 1 -11 16 -31 33 -44 24 -20 31 -22
39 -10 5 8 9 10 9 4 1 -12 33 44 36 63 4 20 -3 14 -24 -22 -16 -26 -25 -33
-41 -29 -18 5 -19 7 -5 21 13 12 13 17 2 24 -10 8 -10 9 2 5 8 -2 14 -11 12
-21 -4 -22 5 -20 19 5 7 13 7 19 1 15 -17 -10 -24 11 -11 33 7 10 18 17 26 14
7 -3 10 -10 6 -16 -3 -5 -1 -7 4 -4 20 12 36 -19 23 -44 -10 -17 -9 -20 1 -14
9 6 11 3 6 -8 -5 -13 -2 -14 15 -8 12 4 24 14 27 22 3 12 2 12 -11 1 -11 -9
-18 -10 -23 -2 -3 5 -2 10 3 10 6 0 8 10 5 23 -3 16 -2 18 5 9 7 -11 10 -11
15 3 4 9 3 13 -3 10 -6 -3 -10 -3 -10 0 0 8 47 66 52 65 13 -5 38 15 34 27 -3
7 1 16 9 19 8 4 15 13 15 21 0 11 -7 7 -21 -11 -11 -14 -24 -24 -29 -21 -4 3
-6 -5 -2 -17 3 -14 1 -19 -6 -14 -6 4 -19 -5 -28 -19 -12 -18 -20 -22 -29 -15
-6 5 -15 7 -18 3 -6 -6 -11 11 -8 29 0 4 -18 -2 -42 -12 -25 -12 -41 -25 -39
-34 1 -9 -4 -13 -15 -12 -10 2 -18 11 -18 22 1 10 5 18 10 17 6 0 11 17 12 38
1 33 -1 38 -13 28 -8 -6 -11 -15 -8 -20 3 -5 0 -9 -7 -9 -8 0 -7 -5 2 -17 11
-13 11 -15 1 -9 -10 6 -13 3 -10 -11 2 -11 -4 -28 -12 -39 -14 -17 -13 -18 1
-7 13 11 19 10 33 -6 13 -14 14 -21 6 -26 -7 -4 -16 -1 -21 6 -8 12 -12 11
-23 -4 -20 -26 -28 3 -10 38 8 15 13 29 11 31 -4 4 -31 -27 -36 -41 -2 -5 -7
-9 -12 -8 -5 2 -8 -3 -6 -10 1 -6 -7 -12 -19 -11 -16 0 -20 -5 -17 -25 l4 -26
-15 25 c-18 32 -3 58 23 38 14 -12 14 -11 2 4 -7 10 -17 15 -22 12 -5 -3 -9
-1 -9 4 0 6 -6 9 -12 8 -7 0 -14 4 -15 9 -1 6 9 9 22 7 12 -2 26 2 30 8 3 5
11 8 16 4 5 -3 8 0 7 7 -2 6 2 13 9 16 7 3 9 -3 6 -16 -3 -12 -1 -21 5 -21 19
0 10 46 -12 56 -11 5 -20 17 -20 26 1 10 -2 16 -6 13 -5 -3 -11 -1 -14 4 -3 5
1 12 10 15 25 10 36 7 28 -6 -4 -7 7 2 25 20 17 18 31 39 31 45 0 7 4 6 10 -3
7 -10 5 -18 -5 -26 -7 -6 -12 -19 -10 -30 2 -10 4 -23 4 -28 1 -5 11 0 24 12
19 18 26 19 37 9 12 -10 12 -9 0 7 -12 16 -12 20 0 30 8 6 16 17 18 25 2 11 0
12 -11 3 -8 -7 -16 -10 -18 -7 -3 2 -5 -5 -6 -16 -2 -22 -20 -49 -33 -49 -13
0 -5 31 10 40 7 4 10 15 7 24 -7 17 25 40 38 28 5 -4 5 -1 1 6 -4 6 -3 12 3
12 5 0 12 -6 15 -12 4 -9 5 -8 5 2 -3 40 2 61 12 54 6 -3 9 -15 6 -25 -3 -10
-1 -22 5 -25 5 -3 7 -11 5 -18 -3 -6 2 -17 9 -24 8 -7 14 -8 14 -2 0 5 5 10
10 10 16 0 12 -15 -10 -40 -22 -26 -26 -35 -9 -24 7 4 10 1 7 -7 -3 -8 -11
-14 -18 -14 -7 0 -14 -8 -16 -18 -2 -17 -1 -17 14 -4 9 8 25 13 35 12 21 -4
22 2 2 22 -8 8 -12 19 -9 25 5 7 11 6 19 -5 10 -14 12 -14 21 1 10 15 13 14
29 -6 14 -16 22 -19 32 -10 7 6 13 18 13 27 -1 11 -5 8 -15 -9 -9 -15 -15 -19
-15 -10 0 8 -10 26 -21 40 -11 14 -18 20 -15 13 4 -6 2 -14 -3 -18 -15 -9 -31
28 -20 47 6 11 4 18 -5 21 -10 4 -13 0 -11 -14 2 -11 0 -17 -5 -14 -4 3 -11
-1 -14 -7 -3 -7 -3 1 0 17 4 23 3 27 -5 15 -11 -16 -14 -9 -12 26 3 29 -26 39
-39 14 -6 -11 -7 -20 -3 -20 4 -1 -9 -10 -30 -21 -22 -11 -41 -18 -45 -15 -3
3 -11 1 -19 -5 -9 -9 -13 -8 -13 0 0 22 2 26 13 23 7 -2 7 1 0 10 -6 7 -9 24
-8 38 2 14 4 29 4 33 1 5 6 5 12 1 8 -4 9 1 4 17 -7 22 -7 22 9 6 21 -21 26
-21 26 -3 0 23 -39 26 -54 4 -10 -14 -16 -16 -21 -8 -6 9 -10 9 -16 -1 -6 -10
-9 -10 -9 -2 0 7 -7 10 -15 7 -8 -4 -22 -1 -30 6 -13 11 -14 10 -9 -4 8 -20 0
-21 -19 -1 -13 12 -15 11 -13 -10 0 -13 9 -26 18 -28 10 -3 16 0 15 6 -2 13
28 21 49 13 12 -5 13 -10 3 -28 -7 -13 -19 -28 -27 -34 -15 -11 -8 -39 7 -29
5 2 16 -4 26 -15 10 -11 22 -17 26 -14 5 3 9 0 9 -5 0 -18 -5 -26 -12 -24 -4
2 -4 -5 -1 -15 6 -15 5 -15 -10 -3 -9 7 -17 10 -17 5 -1 -5 -9 2 -20 15 -11
12 -18 27 -15 31 3 5 0 12 -6 16 -9 5 -10 0 -6 -15 3 -14 -3 -31 -20 -51 -28
-33 -40 -37 -45 -15 -5 25 -53 -6 -55 -35 0 -14 -1 -29 -2 -33 -1 -5 -8 -1
-17 7 -14 15 -12 21 22 68 20 29 37 58 37 65 0 7 4 10 9 7 5 -4 9 0 7 7 -4 35
0 42 18 28 15 -12 16 -12 8 1 -5 8 -8 22 -7 31 2 9 -4 16 -13 16 -11 0 -13 -6
-9 -21 6 -18 5 -19 -8 -8 -13 10 -17 10 -21 -2 -4 -10 -1 -13 9 -9 16 6 18 0
5 -25 -4 -9 -16 -34 -26 -54 -15 -32 -20 -36 -38 -27 -13 8 -17 8 -13 0 4 -5
-2 -15 -13 -21 -25 -13 -38 4 -20 26 6 8 9 17 5 21 -3 3 -6 1 -6 -6 0 -7 -5
-9 -10 -6 -6 4 -8 11 -5 16 4 5 2 9 -4 9 -6 0 -8 7 -5 15 4 8 1 15 -6 15 -6 0
-8 5 -5 10 3 6 -1 10 -9 10 -13 0 -14 -4 -6 -20 5 -11 15 -29 20 -40 13 -25
14 -51 1 -32 -7 11 -9 11 -14 -2 -4 -9 -13 -13 -22 -10 -11 5 -14 2 -9 -10 6
-15 8 -15 23 -2 15 13 20 14 35 3 16 -12 16 -14 2 -26 -14 -12 -16 -11 -16 5
-1 18 -1 18 -13 -1 -12 -20 -13 -26 -16 -46 -1 -8 -6 -8 -16 1 -10 9 -15 9
-15 1 0 -6 6 -11 13 -11 6 0 -4 -15 -24 -33 -37 -34 -68 -43 -81 -23 -12 17
-9 28 4 20 7 -4 8 -3 4 4 -5 8 -13 9 -25 2 -18 -9 -31 -4 -31 11 0 5 8 5 18 2
16 -7 16 -6 -1 11 -9 10 -14 22 -11 27 3 6 -2 17 -12 25 -15 12 -15 14 -3 11
9 -3 22 -1 29 3 17 10 53 -7 45 -21 -4 -5 -1 -9 5 -9 6 0 8 -5 4 -11 -4 -8
-13 -4 -25 12 -10 13 -21 20 -25 16 -4 -4 -2 -7 4 -7 7 0 12 -5 12 -11 0 -5
-4 -7 -10 -4 -5 3 -10 1 -10 -5 0 -6 8 -10 18 -8 9 2 16 -2 15 -7 -1 -6 9 -11
23 -11 13 0 24 4 24 8 0 4 -5 8 -12 8 -9 0 -9 3 0 12 7 7 12 17 12 23 0 5 -5
3 -10 -5 -6 -10 -10 -11 -10 -2 0 21 4 26 24 29 12 2 16 -1 13 -11 -4 -10 0
-12 16 -8 12 3 16 7 9 10 -9 3 -8 11 3 32 8 16 11 31 6 34 -4 3 -13 -6 -19
-20 -9 -19 -17 -23 -37 -20 -14 3 -23 1 -20 -4 3 -5 1 -11 -4 -14 -5 -3 -12 1
-15 10 -5 13 -9 14 -21 4 -8 -7 -15 -9 -15 -4 0 5 -5 2 -11 -6 -9 -12 -10 -12
-5 3 3 10 6 24 6 30 0 9 2 9 8 0 5 -8 12 -2 20 20 10 27 9 29 -2 15 -15 -20
-31 -24 -20 -5 4 7 3 9 -2 4 -5 -5 -10 -13 -10 -18 -1 -5 -2 -13 -3 -18 0 -5
-8 -17 -17 -26 -13 -13 -14 -18 -3 -31 15 -18 21 -44 10 -44 -15 0 -6 -40 10
-45 10 -3 20 -12 22 -20 3 -7 17 -12 31 -11 14 2 27 -3 30 -10 3 -9 -3 -11
-21 -8 -20 4 -24 1 -20 -10 4 -9 1 -18 -6 -22 -7 -4 -9 -4 -5 1 4 4 3 16 -3
27 -9 16 -13 17 -25 7 -9 -7 -13 -21 -11 -31 3 -10 1 -16 -4 -12 -5 3 -9 0 -9
-6 0 -6 -5 -8 -12 -4 -9 5 -9 2 1 -9 14 -18 5 -22 -17 -9 -10 7 -8 14 8 35 12
15 16 28 10 32 -5 3 -10 3 -10 -1 0 -4 -6 1 -14 12 -20 26 -44 6 -27 -23 11
-16 11 -16 6 5 -4 13 -2 22 4 22 6 0 12 -4 12 -10 1 -5 2 -16 3 -22 4 -21 -14
-49 -26 -42 -6 4 -8 3 -5 -3 3 -5 -7 -25 -23 -44 -27 -32 -29 -32 -30 -11 0
12 7 25 15 28 8 4 13 10 10 14 -3 5 -1 11 4 15 6 3 7 13 4 23 -6 14 -8 13 -14
-8 l-6 -25 -13 27 c-7 15 -17 25 -22 22 -5 -3 -3 -13 4 -22 11 -13 10 -15 -5
-9 -11 4 -16 3 -12 -3 4 -6 13 -9 20 -8 8 2 14 0 14 -4 3 -27 0 -30 -14 -18
-8 6 -18 9 -24 6 -5 -3 -12 0 -15 6 -2 7 -4 3 -2 -9 1 -12 6 -26 11 -30 4 -5
5 -3 2 3 -4 7 0 15 9 18 12 5 15 2 10 -10 -3 -8 -6 -20 -6 -25 0 -6 -4 -8 -9
-5 -5 3 -8 -2 -7 -12 1 -12 -5 -16 -19 -14 -17 3 -18 2 -5 -10 8 -7 13 -12 11
-11 -2 2 -11 -3 -19 -10 -11 -8 -14 -8 -9 0 4 6 3 15 -3 18 -8 5 -7 11 1 21 8
10 9 18 2 25 -7 7 -15 4 -24 -8 -13 -16 -12 -17 4 -4 9 7 17 9 17 4 0 -15 -36
-44 -44 -36 -3 4 -4 -11 -2 -33 3 -21 2 -31 0 -21 -3 9 -10 17 -15 17 -6 0 -7
-5 -3 -11 4 -8 0 -9 -15 -4 -12 4 -21 2 -21 -4 0 -6 3 -10 8 -10 4 1 14 1 22
-1 11 -1 9 -4 -5 -9 -11 -5 -20 -14 -20 -21 0 -7 -6 -15 -13 -18 -7 -2 -12 0
-11 5 4 21 -2 34 -13 28 -7 -4 -5 0 5 8 10 8 17 19 16 23 -1 5 -1 17 0 28 1
15 4 16 16 6 13 -11 15 -10 10 1 -3 8 10 30 28 49 49 53 65 79 29 46 -18 -17
-32 -24 -32 -18 0 7 -5 12 -11 12 -8 0 -8 -4 -1 -13 7 -8 7 -18 2 -27 -11 -16
-11 -15 -15 17 -1 11 7 32 19 45 12 13 17 18 12 11 -5 -8 -6 -16 -2 -20 3 -3
6 -1 6 6 0 7 5 9 12 5 7 -4 10 -4 6 1 -4 4 -3 17 3 28 9 15 8 18 -2 12 -8 -5
-10 -4 -5 4 4 6 11 9 16 6 9 -6 33 21 36 42 2 8 6 18 10 21 4 4 4 -1 1 -11 -4
-11 -3 -16 3 -12 6 3 10 17 10 31 0 13 8 32 18 42 10 10 22 26 25 36 4 10 12
14 18 10 7 -4 9 -3 6 3 -4 6 12 30 35 54 23 24 39 37 35 28 -3 -9 -1 -21 5
-27 15 -15 -34 -88 -52 -77 -4 2 -14 -11 -23 -30 -9 -19 -21 -35 -27 -35 -5 0
-7 -7 -4 -15 4 -10 -3 -18 -21 -25 -14 -5 -23 -15 -20 -20 5 -8 11 -8 19 -1 7
6 16 7 20 3 4 -4 6 -2 5 3 -6 20 32 83 49 81 11 -1 16 5 14 17 -2 9 1 17 5 18
4 0 19 2 33 5 14 2 20 1 14 -3 -16 -12 -23 -40 -13 -50 7 -7 5 -12 -6 -17 -9
-3 -14 -2 -11 2 3 5 -1 9 -8 9 -20 0 -8 -24 15 -30 18 -5 25 8 20 36 -1 4 3
17 9 27 8 14 7 25 -2 40 -10 16 -10 24 0 41 10 15 11 24 3 32 -17 17 -13 30 7
23 14 -5 14 -4 -2 9 -18 13 -15 20 6 16 5 0 7 3 5 8 -1 5 16 26 38 47 22 20
39 42 37 47 -1 4 2 6 8 2 6 -4 4 -18 -6 -38 -19 -36 -33 -48 -49 -40 -5 4 -6
2 -2 -2 16 -18 35 -12 47 14 8 16 14 21 17 13 3 -7 -1 -19 -7 -28 -10 -12 -9
-18 5 -34 10 -11 24 -20 32 -20 9 0 11 -5 7 -12 -4 -8 -3 -10 2 -5 5 5 9 14 9
20 1 7 7 11 15 9 11 -3 11 0 0 12 -13 17 -25 22 -16 7 3 -5 -3 -11 -14 -14
-24 -6 -26 6 -4 27 17 18 34 21 34 7 0 -5 6 -11 13 -14 9 -3 12 3 9 22 -2 17
2 32 12 40 11 9 16 10 16 2 0 -6 7 -11 16 -11 13 0 11 5 -7 21 -17 15 -19 19
-6 15 11 -4 17 0 18 12 1 11 4 8 9 -8 4 -14 9 -18 9 -10 1 12 4 11 12 -3 13
-22 1 -67 -12 -46 -4 7 -10 11 -14 8 -3 -3 4 -16 14 -28 18 -21 20 -21 21 -4
4 62 1 88 -9 91 -8 3 -6 8 5 17 17 12 16 13 -4 26 -20 13 -20 14 -4 34 16 20
16 20 -3 2 -11 -10 -20 -28 -20 -40 0 -15 -11 -27 -35 -39 -22 -11 -28 -18
-17 -18 17 0 17 -1 3 -16 -9 -8 -16 -22 -16 -29 0 -9 -6 -12 -15 -8 -14 5 -14
8 1 24 10 11 12 19 6 19 -7 0 -12 -5 -12 -11 0 -5 -4 -8 -9 -5 -5 4 -8 -1 -7
-11 3 -18 -25 -52 -37 -45 -5 2 -1 12 8 22 11 12 13 20 5 25 -6 4 -8 15 -5 25
3 10 1 21 -5 25 -6 3 -8 11 -4 16 3 5 10 7 15 4 5 -4 12 1 15 9 3 9 11 13 18
9 6 -3 8 -3 4 2 -12 13 11 34 30 28 13 -4 14 -3 3 5 -7 5 -10 15 -6 22 6 9 9
9 16 -1 8 -13 11 -5 9 26 -1 6 15 22 43 44 15 12 17 12 11 -4 -5 -13 -4 -16 4
-11 7 4 12 18 12 31 0 12 7 25 15 29 8 3 14 9 13 13 -2 4 2 9 7 11 21 5 9 -45
-19 -81 -29 -36 -29 -38 -10 -51 10 -8 22 -12 26 -10 5 3 8 -1 8 -8 0 -10 2
-10 9 0 4 8 12 14 17 15 5 1 8 6 6 11 -2 5 5 18 15 30 18 21 18 21 -3 3 -11
-9 -24 -14 -28 -10 -4 5 -6 0 -4 -11 4 -25 -29 -30 -35 -5 -3 10 -1 19 5 19 5
0 7 4 3 9 -8 14 9 21 25 11 19 -12 51 16 43 38 -4 8 -2 13 3 9 5 -3 11 5 12
19 1 13 -3 24 -9 24 -5 0 -7 -4 -4 -10 3 -5 1 -10 -5 -10 -6 0 -9 -4 -6 -9 3
-5 -1 -12 -10 -15 -24 -9 -28 -7 -15 8 9 10 8 16 -4 26 -12 10 -13 16 -4 26
12 15 33 9 23 -7 -3 -5 11 0 32 11 26 15 35 17 31 7 -3 -8 0 -20 6 -27 9 -10
8 -12 -5 -7 -12 4 -16 1 -15 -12 1 -15 5 -16 18 -8 9 5 22 19 29 31 12 19 11
20 -2 8 -13 -11 -15 -9 -15 14 0 18 2 22 8 13 4 -7 11 -10 15 -7 3 4 -1 14
-10 23 -9 9 -16 12 -16 7 0 -5 -11 -15 -25 -22 -20 -11 -27 -11 -42 1 -14 12
-16 12 -8 0 6 -10 4 -12 -4 -7 -13 9 -6 21 12 21 7 1 11 7 9 15 -2 8 0 12 4 7
4 -4 16 1 27 10 18 16 20 16 14 2 -4 -13 -1 -16 14 -12 10 3 19 10 19 15 0 5
-4 6 -10 3 -5 -3 -10 -1 -10 4 0 6 5 11 11 11 5 0 8 4 5 9 -9 14 20 21 33 8 8
-8 11 -8 11 1 0 7 -5 12 -11 12 -5 0 -8 4 -4 9 3 5 1 12 -5 16 -5 3 -10 -1
-10 -9 0 -9 -5 -16 -11 -16 -6 0 -22 -14 -36 -30 -13 -17 -29 -27 -34 -24 -12
7 53 72 65 66 5 -3 6 0 2 7 -4 7 2 15 16 20 13 6 19 10 15 10 -4 1 5 12 20 25
33 28 39 27 22 -6 -7 -12 -14 -33 -15 -45 -5 -41 -15 -62 -28 -57 -7 3 -13 -1
-13 -9 0 -9 12 -14 31 -15 17 0 26 2 21 6 -12 9 -18 32 -7 32 4 0 16 -7 26
-15 25 -19 42 -19 27 -1 -9 10 -8 16 4 26 8 7 12 16 10 21 -3 4 2 12 11 17 15
8 15 10 -1 16 -9 3 -24 1 -33 -4 -14 -9 -12 -10 8 -4 22 6 23 5 11 -10 -7 -9
-10 -16 -6 -16 5 0 0 -9 -10 -20 -13 -14 -22 -17 -31 -10 -10 9 -9 23 5 73 14
49 23 63 42 68 13 4 20 8 14 8 -23 4 57 30 104 34 42 4 51 2 51 -11 0 -12 -3
-13 -12 -4 -15 15 -28 16 -28 2 0 -5 6 -9 13 -7 6 1 11 -3 10 -10 -2 -7 4 -10
12 -7 8 4 15 12 15 18 0 19 107 8 153 -15 20 -11 37 -25 37 -32 0 -8 -3 -8 -9
2 -5 7 -14 10 -20 7 -6 -4 -11 -1 -11 6 0 10 -3 9 -9 -1 -8 -12 -12 -12 -24
-2 -13 10 -17 9 -26 -6 -10 -17 -10 -17 -11 2 -1 15 -3 16 -7 5 -3 -8 -11 -18
-17 -22 -8 -5 -7 -8 2 -8 6 0 12 -8 12 -17 0 -16 -2 -16 -11 -3 -9 13 -10 13
-8 0 4 -38 -2 -81 -10 -75 -5 3 -12 1 -16 -5 -3 -5 -11 -10 -18 -10 -8 0 -8 3
1 12 14 14 16 32 3 24 -5 -4 -12 0 -15 6 -3 7 -3 2 0 -11 4 -15 2 -21 -4 -17
-6 3 -14 1 -18 -5 -4 -7 -3 -9 4 -5 6 3 14 1 17 -5 4 -5 13 -8 21 -5 8 3 14 2
14 -3 0 -11 -21 -29 -35 -30 -5 -1 -10 -9 -10 -18 1 -10 6 -17 13 -16 7 2 12
-4 12 -13 0 -10 -6 -14 -15 -10 -8 3 -15 1 -15 -4 0 -5 13 -8 30 -8 l29 1 -20
29 c-18 25 -19 29 -4 34 9 4 24 23 35 43 16 30 19 32 20 14 0 -13 -5 -23 -12
-23 -6 0 -3 -9 7 -20 10 -11 15 -23 12 -27 -4 -3 -7 -1 -7 6 0 7 -4 9 -10 6
-6 -4 -5 -13 2 -25 10 -16 14 -17 20 -6 9 15 131 40 170 34 l23 -3 -25 -22
c-13 -13 -20 -23 -16 -23 11 0 95 53 96 61 0 3 -21 27 -46 54 -25 27 -51 64
-59 81 -7 17 -27 41 -44 53 -54 39 -222 63 -291 42z m355 -148 c35 -37 61 -71
59 -75 -3 -4 -26 -7 -52 -7 -26 1 -63 -2 -82 -5 -90 -16 -85 -20 -84 62 0 82
7 92 63 92 29 0 43 -10 96 -67z m-630 -234 c-4 -5 -16 -9 -28 -9 -21 1 -21 1
-3 15 20 15 41 11 31 -6z m170 -214 c-1 -19 -4 -38 -8 -41 -3 -3 -3 -13 1 -22
4 -12 -1 -10 -18 5 -12 12 -27 20 -32 17 -4 -3 -8 0 -8 5 0 6 6 11 14 11 12 0
32 43 28 62 -1 4 4 5 11 2 8 -3 12 -19 12 -39z m-56 -135 c-7 -5 -18 -6 -25
-3 -6 2 -15 -1 -20 -8 -4 -7 -3 -10 3 -6 6 4 18 0 28 -7 14 -10 15 -15 5 -21
-9 -6 -11 -4 -5 5 5 9 4 11 -4 6 -6 -4 -9 -13 -6 -19 3 -7 0 -4 -7 5 -11 16
-13 15 -24 -10 l-12 -27 2 34 c3 38 37 74 62 64 12 -4 13 -8 3 -13z m-159 -6
c0 -14 -114 -123 -123 -117 -5 3 -7 1 -4 -4 8 -12 -17 -36 -26 -26 -4 3 -7 2
-7 -4 0 -6 -7 -14 -16 -17 -22 -8 34 56 104 121 53 49 72 61 72 47z m63 -15
c18 -8 23 -17 19 -36 -3 -17 1 -29 12 -35 12 -7 14 -13 7 -21 -5 -7 -10 -16
-11 -22 -1 -5 -6 -9 -11 -7 -5 1 -9 -3 -9 -10 0 -6 -3 -8 -6 -5 -4 4 -2 13 5
20 9 11 8 17 -5 28 -12 10 -17 10 -23 1 -9 -15 -73 -23 -92 -12 -10 7 -9 14 5
35 14 21 20 24 32 14 8 -6 14 -20 14 -30 0 -13 5 -16 16 -12 11 4 12 8 4 13
-8 5 -9 13 -4 21 5 8 9 22 10 32 4 43 2 42 37 26z m103 -69 c-28 -19 -43 -21
-56 -5 -7 9 -6 16 5 25 8 7 15 9 15 6 0 -4 8 -3 17 2 11 6 21 6 28 -2 10 -8 8
-14 -9 -26z m207 -17 c-3 -10 -3 -15 2 -11 9 8 40 -20 32 -29 -3 -3 -18 5 -34
17 -26 20 -28 20 -40 4 -7 -10 -13 -13 -13 -7 0 14 25 34 33 26 4 -3 7 -1 7 5
0 7 4 12 10 12 5 0 7 -8 3 -17z m-640 -103 c3 -11 2 -20 -3 -20 -4 0 -10 9
-13 20 -3 11 -2 20 3 20 4 0 10 -9 13 -20z m498 -54 c8 4 9 3 5 -5 -6 -9 -12
-9 -24 1 -10 7 -19 13 -21 15 -1 1 0 7 5 14 5 9 10 6 16 -10 5 -13 12 -19 19
-15z m-573 0 c-2 -1 -12 -8 -22 -16 -18 -14 -19 -14 -7 8 7 12 17 20 22 16 6
-3 9 -7 7 -8z m-282 -87 c-16 -12 -23 -27 -21 -40 2 -11 0 -17 -6 -14 -5 4 -9
2 -9 -4 0 -5 -3 -16 -6 -25 -4 -10 -1 -16 9 -16 18 0 17 -21 -1 -43 -13 -16
-36 -17 -49 -2 -4 4 -2 5 4 1 9 -5 11 -2 6 10 -5 14 -7 14 -14 2 -5 -9 -7 -24
-4 -36 2 -11 -5 -28 -16 -38 -10 -9 -19 -13 -19 -8 0 5 -9 -6 -20 -24 -18 -30
-23 -32 -37 -20 -14 11 -16 11 -11 -4 7 -17 -24 -53 -35 -42 -7 7 26 61 48 79
6 6 31 42 55 82 23 40 46 71 50 68 3 -2 15 10 25 28 25 45 56 77 67 71 5 -3
-2 -14 -16 -25z m99 -29 c1 -10 -2 -17 -6 -14 -4 2 -10 -2 -12 -8 -3 -7 -6 -1
-6 13 -2 42 21 51 24 9z m-398 -397 c-4 -3 -3 -11 2 -17 15 -20 22 -48 9 -40
-8 5 -9 2 -5 -10 4 -11 3 -15 -4 -11 -6 4 -8 13 -5 21 3 8 1 14 -5 14 -7 0 -9
-10 -5 -25 5 -19 2 -25 -9 -25 -9 0 -13 -5 -10 -10 4 -6 1 -9 -6 -8 -7 2 -13
-3 -14 -10 0 -8 -11 -20 -25 -27 -31 -18 -40 -18 -40 -3 0 6 3 8 7 5 9 -9 53
33 53 50 0 7 7 13 15 13 8 0 12 6 9 14 -6 14 21 76 33 76 3 0 3 -3 0 -7z m49
-61 c-4 -3 -11 0 -16 8 -15 24 -11 33 6 15 9 -9 13 -19 10 -23z m-66 -79 c0
-13 -17 -35 -26 -34 -5 0 -22 -10 -37 -21 -26 -20 -67 -32 -67 -19 1 21 49 53
82 56 4 0 13 6 20 13 13 13 28 16 28 5z"/>
<path d="M1031 1058 c-1 -10 4 -18 10 -18 5 0 7 -6 3 -12 -5 -9 -3 -9 9 1 16
13 14 36 -3 26 -4 -3 -11 1 -13 7 -3 8 -6 6 -6 -4z"/>
<path d="M699 561 c-13 -11 -21 -22 -18 -25 3 -3 16 5 29 19 28 30 22 33 -11
6z"/>
<path d="M2061 2208 c-5 -14 -16 -28 -23 -31 -8 -2 -9 -8 -4 -13 5 -5 11 -4
13 4 3 6 10 9 15 6 7 -4 8 -2 4 4 -5 8 0 12 13 12 23 0 24 -3 15 -37 -4 -13
-10 -20 -15 -17 -15 9 -10 -16 6 -32 10 -11 20 -12 32 -6 21 12 27 43 6 35
-10 -4 -11 -8 -3 -13 8 -5 7 -9 -3 -13 -8 -3 -17 -3 -20 -1 -10 10 10 59 23
59 7 0 15 7 17 15 4 12 3 12 -5 2 -7 -11 -15 -6 -35 19 l-26 33 -10 -26z"/>
<path d="M2008 2193 c-10 -2 -18 -9 -18 -14 0 -6 -6 -7 -12 -3 -7 4 -10 3 -5
-1 4 -5 18 -10 30 -11 12 -2 16 0 9 3 -10 4 -9 8 5 19 19 14 18 14 -9 7z"/>
<path d="M2027 2133 c4 -11 3 -14 -5 -9 -19 11 -14 -2 8 -24 11 -11 20 -16 20
-11 0 6 -4 12 -9 15 -5 3 -7 15 -4 26 3 11 0 20 -6 20 -6 0 -8 -7 -4 -17z"/>
<path d="M2165 2130 c-4 -6 -2 -17 4 -23 15 -15 25 -2 13 19 -7 12 -11 13 -17
4z"/>
<path d="M2030 2033 c0 -21 0 -47 -1 -58 -3 -45 5 -73 20 -67 9 3 12 1 7 -7
-4 -6 -4 -11 1 -10 23 4 28 -4 27 -42 0 -22 -6 -44 -13 -49 -9 -5 -10 -10 -2
-14 6 -4 11 -2 11 4 0 6 4 9 9 5 6 -3 8 9 6 27 -4 30 -3 31 10 15 7 -11 11
-26 7 -35 -4 -13 -1 -12 15 3 12 11 25 32 28 48 8 30 30 47 62 47 4 0 2 5 -5
12 -9 9 -16 7 -31 -6 -18 -17 -20 -17 -38 1 -23 22 -53 26 -53 7 0 -17 -10
-17 -32 0 -19 14 -25 32 -8 21 6 -3 10 -1 10 4 0 6 -4 11 -10 11 -5 0 -10 4
-10 10 0 5 8 7 18 3 14 -5 13 -3 -3 10 -11 9 -16 19 -11 24 5 4 11 2 13 -4 6
-17 63 12 63 32 0 16 -49 45 -75 45 -11 0 -15 -10 -15 -37z m70 -7 c0 -16 -27
-29 -42 -20 -7 5 14 23 40 33 1 1 2 -5 2 -13z m30 -127 c0 -4 -7 -12 -15 -17
-14 -7 -13 -11 5 -27 22 -20 26 -35 8 -35 -6 0 -8 3 -5 7 4 3 -2 12 -13 20
-13 9 -18 22 -16 36 5 26 3 24 21 24 8 0 15 -4 15 -8z m20 -29 c0 -13 -5 -18
-15 -14 -16 7 -19 17 -8 27 12 13 23 7 23 -13z"/>
<path d="M1973 2017 c-18 -22 -18 -22 3 -4 17 14 23 15 27 4 5 -14 -28 -41
-41 -33 -4 2 -8 -8 -9 -22 -1 -22 0 -23 9 -9 5 10 14 15 19 11 5 -3 8 0 7 8
-2 7 4 12 13 11 10 -2 15 5 15 22 0 33 -20 39 -43 12z"/>
<path d="M1887 2004 c3 -8 1 -20 -5 -27 -5 -6 -8 -20 -7 -29 2 -10 -1 -18 -7
-18 -6 0 -4 -7 3 -17 12 -14 12 -15 1 -9 -11 7 -12 4 -3 -12 6 -12 16 -24 21
-27 6 -4 8 -10 5 -15 -3 -5 -1 -12 5 -15 8 -5 7 -11 -1 -21 -13 -16 -44 -19
-34 -4 3 6 -1 10 -10 10 -9 0 -14 -4 -10 -9 3 -5 1 -12 -4 -15 -16 -10 -25 16
-10 28 20 16 47 51 32 42 -7 -4 -14 -2 -14 3 -1 6 -2 16 -3 23 -2 18 -23 20
-30 3 -3 -9 -2 -13 4 -10 6 3 10 1 10 -6 0 -6 -8 -9 -20 -6 -20 5 -28 -7 -10
-18 12 -7 1 -35 -13 -32 -12 2 -17 -21 -8 -38 12 -22 8 -36 -11 -46 -11 -6
-18 -7 -15 -2 3 5 2 15 -4 23 -7 12 -9 11 -9 -6 0 -12 -11 -33 -25 -48 -13
-14 -20 -26 -15 -26 5 0 17 11 26 24 19 30 48 24 38 -8 -6 -21 -6 -21 10 -1 9
11 15 16 14 10 -2 -5 0 -11 5 -12 4 -2 7 -1 7 2 0 3 0 12 0 20 0 10 -6 12 -17
8 -16 -6 -16 -5 -4 10 7 9 17 15 21 12 17 -10 21 16 6 31 -19 18 -20 30 -4 40
8 5 9 2 5 -9 -4 -11 1 -20 12 -27 15 -7 20 -6 25 6 5 13 9 14 21 4 8 -7 15 -9
15 -4 0 5 5 2 11 -6 9 -13 10 -12 5 2 -3 10 -2 19 2 22 13 8 123 -59 115 -69
-4 -4 -2 -5 5 -1 7 4 18 3 25 -2 10 -8 100 -45 117 -48 3 0 13 -4 23 -8 41
-19 132 15 146 53 9 24 9 24 10 4 1 -15 -11 -30 -34 -46 -19 -13 -32 -27 -29
-30 4 -4 19 2 34 13 l27 19 -1 -34 c-1 -40 -4 -42 -23 -17 -12 15 -12 13 -2
-10 7 -16 16 -28 21 -28 4 0 8 -17 7 -37 0 -21 -3 -32 -6 -25 -2 6 -9 10 -14
6 -5 -3 -5 -13 1 -25 10 -19 1 -26 -14 -11 -4 4 -13 7 -19 7 -6 0 -11 10 -10
23 2 55 3 58 12 44 7 -11 9 -10 14 3 4 10 3 14 -4 9 -8 -4 -9 1 -5 17 7 23 7
23 -8 5 -9 -11 -16 -29 -17 -40 0 -12 -3 -15 -6 -8 -2 6 -9 9 -15 6 -6 -4 -14
0 -19 7 -5 8 -9 9 -9 3 0 -11 27 -39 38 -39 2 0 5 -21 6 -47 1 -40 -2 -48 -21
-57 -13 -6 -23 -18 -23 -28 0 -15 1 -15 13 1 11 15 13 9 13 -43 -1 -34 -6 -65
-12 -69 -6 -4 -13 -15 -17 -25 -4 -10 -11 -15 -17 -12 -6 4 -7 12 -4 18 4 7 4
9 -1 5 -4 -4 -13 -4 -19 1 -8 6 -12 -1 -13 -22 -3 -37 -24 -56 -58 -53 -17 2
-23 -2 -22 -14 1 -11 7 -16 17 -13 8 3 4 -5 -10 -17 -14 -12 -52 -47 -85 -78
-141 -133 -192 -179 -230 -207 -22 -16 -56 -44 -75 -62 -19 -18 -39 -33 -43
-33 -5 0 -5 -4 -2 -10 4 -6 53 -10 118 -9 72 0 105 3 92 9 -14 6 -16 9 -5 10
8 2 18 2 23 1 4 0 7 4 7 10 0 5 4 8 9 4 5 -3 12 -1 16 5 4 6 11 8 16 5 5 -4 9
-1 9 4 0 6 10 11 22 11 21 0 21 0 2 -21 -19 -21 -19 -21 2 -18 11 2 33 -4 50
-14 29 -18 29 -18 7 1 -12 11 -19 23 -15 27 4 5 1 5 -5 1 -7 -4 -13 -2 -13 3
0 15 6 14 37 -6 19 -12 25 -14 19 -4 -7 11 -4 13 18 7 16 -4 25 -3 22 2 -3 6
-27 13 -53 17 -27 4 -53 11 -60 17 -8 6 -22 4 -42 -7 -17 -8 -70 -22 -118 -30
-49 -8 -101 -17 -117 -20 -29 -5 -29 -4 14 32 24 21 61 50 81 65 21 15 104 89
186 165 81 76 167 151 191 166 61 40 136 161 171 277 14 45 16 159 6 280 -7
86 -6 100 13 138 l21 43 -32 -6 c-28 -5 -30 -4 -12 6 22 14 45 35 45 42 0 2
-7 4 -15 4 -8 0 -12 -3 -10 -7 2 -4 -7 -13 -20 -20 -14 -7 -25 -19 -25 -26 0
-7 -13 -15 -30 -19 -16 -4 -30 -11 -30 -16 0 -6 -5 -7 -10 -4 -6 4 -10 3 -9
-2 3 -13 -25 -73 -33 -73 -4 0 -8 -7 -8 -15 0 -8 -4 -15 -10 -15 -18 0 -11
-17 9 -23 14 -3 17 0 14 13 -6 23 12 34 34 21 10 -6 13 -11 6 -11 -9 0 -9 -8
-2 -29 11 -32 39 -62 39 -42 0 6 -4 11 -10 11 -5 0 -10 7 -10 16 0 10 5 14 16
10 9 -3 12 -2 9 5 -4 6 -13 8 -21 5 -8 -3 -14 1 -14 10 0 9 5 12 13 8 7 -5 6
0 -3 11 -14 17 -13 18 8 13 25 -7 26 -5 11 23 -6 12 -17 18 -25 15 -8 -3 -14
1 -14 10 0 9 5 12 12 8 6 -4 8 -3 5 2 -3 6 3 15 13 22 12 7 21 8 25 2 3 -6 15
-1 27 10 27 25 37 17 13 -10 -10 -11 -15 -20 -10 -20 4 0 0 -11 -9 -25 -15
-23 -15 -24 1 -18 16 6 16 5 4 -10 -9 -12 -10 -17 -2 -17 7 0 9 -5 6 -10 -4
-6 -16 -8 -28 -6 -18 5 -17 3 3 -7 14 -6 25 -18 24 -24 -1 -7 -2 -19 -3 -25
-1 -10 -3 -10 -10 0 -7 11 -9 10 -14 -3 -4 -9 -3 -13 3 -10 6 3 10 3 10 -2 0
-9 -42 -29 -82 -39 -23 -5 -28 -3 -28 12 0 16 -2 17 -10 4 -5 -8 -10 -10 -10
-5 0 6 -14 11 -32 12 -38 3 -98 30 -98 44 0 6 13 7 33 4 18 -4 43 -2 57 3 32
12 51 5 43 -16 -6 -14 -5 -15 9 -2 14 14 14 16 0 24 -21 12 -72 15 -72 4 0 -5
-6 -6 -12 -1 -7 4 -26 6 -42 4 -17 -2 -26 1 -22 7 4 6 -4 9 -19 7 -14 -1 -25
2 -25 8 0 5 -7 4 -15 -3 -12 -10 -14 -8 -10 9 2 14 -1 18 -11 14 -7 -3 -11
-10 -7 -17 3 -6 2 -7 -3 -3 -12 11 -11 40 1 50 6 5 1 6 -10 3 -25 -7 -46 23
-55 80 -4 27 -2 44 7 53 17 16 17 28 -1 34 -10 4 -13 1 -9 -9z m-43 -143 c3
-4 -4 -17 -15 -27 -21 -19 -21 -19 -18 1 2 11 9 23 14 27 13 10 13 10 19 -1z
m426 -21 c0 -11 -30 -21 -41 -14 -17 10 -9 22 16 22 14 0 25 -4 25 -8z m37
-347 c15 -14 6 -76 -10 -66 -6 4 -8 0 -4 -10 3 -8 -1 -21 -9 -27 -8 -7 -14
-18 -14 -26 0 -7 -4 -15 -8 -18 -4 -2 -8 18 -7 45 0 48 8 62 19 37 3 -7 4 8 2
34 -4 48 4 56 31 31z m-113 -232 c3 -5 0 -14 -7 -19 -10 -8 -13 -6 -14 9 -2
19 11 26 21 10z"/>
<path d="M2188 2006 c-10 -7 -14 -16 -8 -22 4 -5 10 -18 12 -29 1 -11 8 -23
13 -27 14 -11 37 -10 31 1 -4 5 0 12 6 15 7 3 3 3 -9 0 -18 -4 -23 -1 -23 14
0 11 -6 22 -12 25 -10 3 -10 7 1 20 16 20 12 21 -11 3z"/>
<path d="M1919 1988 c-4 -19 -9 -51 -6 -47 1 2 8 11 15 21 9 11 10 18 2 23 -5
3 -10 5 -11 3z"/>
<path d="M2091 1981 c-8 -5 -9 -11 -3 -15 5 -3 15 1 22 9 14 16 3 20 -19 6z"/>
<path d="M1996 1934 c-3 -9 -3 -20 0 -26 4 -6 -1 -8 -12 -5 -11 4 -32 9 -49
12 -23 5 -26 4 -15 -4 8 -6 25 -11 38 -11 13 0 21 -4 18 -8 -3 -5 -19 -7 -35
-6 -17 1 -29 -2 -26 -6 3 -4 15 -6 28 -3 16 3 18 2 9 -5 -11 -7 -8 -11 9 -15
13 -4 25 -4 28 -2 2 3 -1 5 -7 5 -7 0 -12 5 -12 10 0 6 7 10 15 10 8 0 15 -6
15 -14 0 -8 6 -13 13 -12 18 3 54 25 40 26 -6 0 -15 -5 -18 -10 -4 -6 -11 -7
-17 -4 -6 4 -5 10 3 15 11 7 11 9 -1 9 -9 0 -16 9 -17 20 -1 11 2 18 8 15 5
-4 9 -2 9 4 0 18 -18 21 -24 5z"/>
<path d="M1850 1770 c0 -5 6 -10 13 -10 9 0 8 -3 -2 -9 -10 -7 -10 -10 -1 -16
7 -4 16 -1 21 6 7 12 9 12 9 0 0 -9 4 -10 13 -4 6 6 20 9 29 8 10 -2 21 2 25
7 4 7 -2 9 -15 6 -13 -4 -22 -1 -22 5 0 7 -4 6 -9 -2 -8 -12 -13 -12 -35 3
-14 9 -26 12 -26 6z"/>
<path d="M1576 1733 c-3 -8 1 -16 9 -19 20 -8 48 3 43 18 -6 16 -46 17 -52 1z"/>
<path d="M2010 1700 c0 -5 7 -10 15 -10 8 0 15 -4 15 -8 0 -4 12 -8 28 -9 52
-1 54 -2 47 -25 -7 -21 -6 -22 7 -5 9 12 20 16 31 11 14 -5 15 -9 6 -20 -9
-11 -8 -14 5 -14 13 0 16 -6 12 -22 -3 -13 -3 -18 0 -11 3 7 13 9 22 5 15 -5
15 -3 -1 13 -10 10 -16 26 -14 37 4 13 -2 20 -21 24 -15 3 -45 13 -67 21 -55
21 -85 25 -85 13z"/>
<path d="M1540 1683 c-13 -15 -12 -16 4 -10 10 4 20 7 22 7 2 0 4 5 4 10 0 15
-13 12 -30 -7z"/>
<path d="M1873 1683 c8 -13 -17 -36 -28 -25 -5 4 -5 2 -1 -5 8 -15 32 -7 40
12 3 8 0 17 -6 21 -6 4 -8 3 -5 -3z"/>
<path d="M1723 1668 c1 -7 -3 -12 -10 -11 -7 2 -10 -3 -7 -11 3 -8 1 -17 -5
-21 -6 -3 -11 -11 -11 -18 0 -6 7 -1 16 11 8 12 20 19 26 16 7 -4 8 -2 4 5 -4
6 -2 18 4 26 10 12 9 15 -4 15 -9 0 -15 -6 -13 -12z"/>
<path d="M1995 1651 c-4 -7 0 -8 11 -4 12 4 15 3 10 -5 -4 -7 -2 -12 4 -12 14
0 8 22 -7 27 -6 2 -14 -1 -18 -6z"/>
<path d="M2200 1647 c0 -4 14 -6 30 -5 17 1 30 6 30 10 0 4 -13 6 -30 5 -16
-1 -30 -5 -30 -10z"/>
<path d="M1830 1633 c9 -20 7 -26 -10 -25 -3 0 -5 -16 -6 -36 0 -20 1 -31 3
-24 3 6 9 9 15 6 6 -4 9 -1 6 7 -3 8 -2 24 3 35 5 15 3 28 -7 40 -14 18 -14
18 -4 -3z"/>
<path d="M1729 1586 c7 -8 8 -17 3 -20 -6 -3 -12 0 -15 8 -4 9 -14 12 -28 9
-20 -6 -20 -6 -3 -17 24 -14 36 -14 52 -3 17 13 15 24 -4 31 -14 5 -15 4 -5
-8z"/>
<path d="M2190 1566 c0 -20 17 -29 26 -15 5 8 3 9 -6 4 -10 -6 -12 -4 -7 8 3
10 2 17 -3 17 -6 0 -10 -6 -10 -14z"/>
<path d="M1483 1547 c0 -7 11 -13 23 -13 12 0 20 4 18 8 -3 5 -10 6 -15 3 -5
-4 -9 -1 -9 4 0 6 -4 11 -8 11 -5 0 -9 -6 -9 -13z"/>
<path d="M2077 1543 c-4 -7 -16 -10 -27 -8 -12 2 -18 0 -15 -6 4 -5 10 -7 15
-4 4 3 10 -2 13 -9 3 -8 1 -17 -6 -20 -9 -3 -9 -5 0 -5 15 -1 36 35 30 52 -2
8 -5 8 -10 0z"/>
<path d="M2157 1481 c-3 -14 -1 -18 9 -14 16 6 18 19 5 27 -5 3 -11 -3 -14
-13z"/>
<path d="M1930 1480 c0 -5 3 -9 8 -9 18 3 21 -3 12 -26 -7 -18 -6 -23 4 -19
15 6 17 34 3 52 -11 14 -27 16 -27 2z"/>
<path d="M2038 1473 c6 -2 12 -9 12 -14 0 -6 -6 -7 -12 -3 -10 5 -10 4 -1 -6
7 -8 16 -11 19 -7 10 10 -4 37 -18 36 -10 0 -10 -2 0 -6z"/>
<path d="M2120 1439 c0 -4 7 -10 16 -13 8 -3 13 -2 9 3 -3 5 1 11 7 14 7 3 3
4 -9 4 -13 -1 -23 -4 -23 -8z"/>
<path d="M1285 1430 c-4 -6 -11 -8 -16 -4 -5 3 -9 2 -8 -3 1 -4 -1 -16 -6 -26
-4 -10 -5 -21 -1 -24 3 -4 6 1 6 10 0 10 4 17 10 17 5 0 14 9 20 20 11 20 6
29 -5 10z"/>
<path d="M1537 1416 c-4 -10 -13 -16 -20 -13 -8 3 -14 -1 -14 -8 0 -7 6 -12
14 -11 20 3 36 22 31 37 -3 9 -7 7 -11 -5z"/>
<path d="M2194 1405 c-4 -8 -10 -12 -15 -9 -5 3 -9 -2 -9 -10 0 -17 20 -17 33
-1 4 6 7 -1 5 -15 -2 -14 -7 -28 -12 -31 -4 -4 -4 -9 1 -12 5 -3 14 2 20 12 9
14 8 25 -2 44 -7 14 -11 28 -7 31 3 3 2 6 -2 6 -3 0 -9 -7 -12 -15z"/>
<path d="M1311 1382 c-11 -20 -6 -52 8 -52 4 0 8 7 8 15 0 8 -4 12 -9 9 -12
-8 -10 10 4 24 6 6 9 14 6 18 -4 3 -11 -3 -17 -14z"/>
<path d="M1407 1359 c3 -10 9 -16 14 -13 13 8 11 21 -5 27 -10 4 -12 0 -9 -14z"/>
<path d="M1702 1343 c-18 -24 -23 -26 -31 -13 -6 8 -11 10 -11 4 0 -6 7 -17
15 -24 11 -9 15 -9 15 -1 0 9 5 9 20 1 15 -8 21 -6 30 11 11 19 10 20 -9 9
-23 -12 -26 -8 -11 21 15 27 8 24 -18 -8z"/>
<path d="M1662 1270 c-7 -12 -18 -18 -24 -14 -7 4 -8 3 -4 -5 4 -6 3 -18 -4
-26 -8 -10 -8 -15 1 -21 7 -4 9 -3 6 3 -4 6 5 23 19 38 14 15 24 31 22 36 -2
5 -9 0 -16 -11z"/>
<path d="M2080 1281 c0 -5 5 -13 10 -16 6 -3 10 -11 10 -16 0 -6 -4 -7 -10 -4
-5 3 -10 1 -10 -4 0 -6 -4 -11 -9 -11 -6 0 -8 10 -6 21 4 21 4 21 -15 4 -11
-10 -20 -14 -20 -10 0 5 -5 4 -12 -3 -9 -9 -9 -15 1 -24 10 -11 11 -10 6 3 -4
10 0 16 9 16 12 0 13 -5 5 -19 -6 -11 -16 -17 -23 -15 -7 3 -13 -1 -13 -9 0
-19 34 -9 65 19 12 11 22 17 22 13 0 -4 7 0 16 9 11 10 20 12 28 6 8 -7 12 0
13 22 l2 32 -19 -24 c-11 -13 -21 -20 -21 -17 -1 3 -2 11 -3 18 -1 14 -26 23
-26 9z"/>
<path d="M1973 1240 c-10 -15 -10 -21 0 -26 6 -4 9 -3 4 1 -4 5 0 17 10 27 9
10 12 18 7 18 -5 0 -15 -9 -21 -20z"/>
<path d="M1450 1235 c-11 -13 -15 -13 -21 -3 -5 7 -9 9 -10 3 0 -5 -2 -20 -3
-33 -2 -16 1 -21 11 -17 8 3 17 5 19 5 2 0 4 8 4 18 0 10 5 23 12 30 7 7 9 12
6 12 -3 0 -11 -7 -18 -15z"/>
<path d="M1386 1194 c5 -19 4 -25 -5 -20 -6 4 -11 2 -11 -4 0 -7 6 -10 13 -8
14 5 19 58 5 58 -4 0 -5 -12 -2 -26z"/>
<path d="M1952 1197 c18 -19 38 -22 38 -7 0 6 -4 10 -9 10 -5 0 -18 3 -28 7
-17 6 -17 6 -1 -10z"/>
<path d="M1603 1193 c4 -3 1 -13 -5 -22 -7 -9 -8 -13 -4 -9 5 4 15 3 23 -4 11
-9 17 -8 29 4 13 13 13 15 0 15 -8 0 -12 -5 -9 -10 3 -5 0 -7 -8 -5 -8 3 -13
12 -11 22 2 9 -3 16 -9 16 -7 0 -9 -3 -6 -7z"/>
<path d="M1550 1181 c-8 -6 -17 -8 -22 -5 -4 2 -12 -5 -18 -16 -6 -11 -14 -19
-18 -16 -4 2 -19 -4 -32 -15 -26 -20 -12 -26 20 -9 24 13 37 -5 18 -27 -7 -9
6 -4 29 10 43 27 71 21 31 -7 -12 -9 -17 -16 -11 -16 7 0 15 5 18 10 4 6 12 7
18 4 7 -4 9 -4 5 1 -4 4 2 17 15 27 l22 20 -28 -7 c-19 -5 -27 -3 -27 6 0 10
-2 11 -8 2 -8 -12 -43 -12 -42 0 0 4 0 13 0 20 0 8 4 7 10 -3 7 -12 10 -12 10
-1 0 7 6 11 13 8 8 -3 14 1 14 9 0 8 -1 14 -1 14 -1 0 -8 -4 -16 -9z"/>
<path d="M1346 1148 c4 -12 1 -18 -10 -18 -9 0 -16 5 -16 11 0 5 -4 7 -10 4
-5 -3 -10 -11 -10 -17 0 -6 3 -9 6 -5 3 3 16 2 29 -3 14 -5 26 -5 33 2 9 9 17
7 32 -7 19 -17 20 -17 29 6 11 30 8 33 -18 19 -16 -8 -21 -8 -21 2 0 9 -3 9
-12 0 -9 -9 -14 -7 -25 6 -12 16 -13 16 -7 0z"/>
<path d="M1700 1123 c10 -22 7 -28 -14 -24 -5 1 -3 -5 4 -14 12 -15 15 -15 25
4 10 20 12 20 29 4 18 -17 18 -17 0 9 -10 14 -21 22 -23 17 -1 -6 -10 -2 -18
8 -13 17 -13 16 -3 -4z"/>
<path d="M1290 1100 c0 -5 -9 -10 -20 -10 -14 0 -18 -5 -13 -17 5 -12 2 -15
-10 -10 -16 6 -30 -6 -33 -30 -1 -6 4 -9 12 -6 17 6 18 -9 2 -25 -16 -16 -31
-15 -22 1 4 6 4 9 -1 5 -4 -4 -13 -4 -19 2 -8 6 -12 2 -13 -13 -2 -18 0 -19 8
-7 9 12 10 11 6 -7 -4 -20 -3 -21 17 -10 11 7 25 18 29 25 5 7 13 10 19 6 7
-4 7 0 0 12 -11 21 5 47 48 77 19 13 21 17 7 17 -9 0 -17 -4 -17 -10z"/>
<path d="M1327 1093 c-12 -11 -7 -19 13 -20 11 -1 22 2 25 8 4 5 -2 6 -11 2
-12 -4 -15 -3 -10 5 8 13 -6 17 -17 5z"/>
<path d="M1590 1076 c-6 -8 -19 -12 -28 -9 -14 4 -15 3 -2 -5 9 -7 19 -7 26
-2 6 6 13 8 16 5 2 -3 5 2 5 10 0 19 -2 19 -17 1z"/>
<path d="M1640 1077 c0 -12 -4 -16 -12 -11 -7 4 -10 3 -6 -1 12 -12 58 -15 58
-4 0 6 -4 8 -9 4 -6 -3 -14 3 -20 12 -10 17 -10 17 -11 0z"/>
<path d="M1285 1060 c-3 -5 -3 -10 1 -10 4 0 -1 -7 -12 -15 -10 -8 -14 -15 -7
-15 6 0 15 5 18 10 4 7 14 6 28 -1 22 -10 22 -10 2 6 -11 9 -19 21 -17 26 3
12 -5 12 -13 -1z"/>
<path d="M1415 1060 c-3 -5 -3 -10 2 -10 4 -1 -3 -8 -17 -16 -14 -8 -17 -13
-7 -10 9 3 17 0 17 -5 0 -6 -10 -9 -23 -7 -13 2 -29 -1 -35 -9 -8 -8 -9 -13
-2 -13 5 0 10 -7 10 -15 0 -8 5 -16 10 -16 28 -5 35 -3 36 9 1 6 2 13 4 15 2
3 10 38 12 58 1 9 7 15 14 12 7 -2 15 0 19 6 3 7 -2 11 -14 11 -11 0 -23 -4
-26 -10z"/>
<path d="M1338 1042 c4 -10 7 -11 12 -2 4 7 13 9 19 6 6 -4 11 -2 11 3 0 6
-11 10 -24 9 -16 -2 -22 -7 -18 -16z"/>
<path d="M1458 1044 c-16 -8 -28 -17 -28 -20 0 -2 12 2 28 9 15 8 34 17 42 20
13 5 13 5 0 6 -8 0 -27 -7 -42 -15z"/>
<path d="M1824 1048 c-3 -4 -2 -8 2 -8 4 0 -10 -13 -31 -30 -21 -16 -33 -30
-27 -30 6 0 29 17 53 38 28 26 37 39 25 39 -9 0 -19 -4 -22 -9z"/>
<path d="M1720 1030 c0 -11 4 -20 8 -20 4 0 8 9 8 20 0 11 -4 20 -8 20 -4 0
-8 -9 -8 -20z"/>
<path d="M1481 1020 c-12 -11 -28 -17 -34 -13 -6 3 -7 1 -3 -5 4 -7 2 -12 -5
-12 -10 0 -10 -3 -2 -11 16 -16 72 19 70 43 -1 10 -1 18 -2 18 0 -1 -11 -9
-24 -20z"/>
<path d="M1569 1018 c0 -2 -2 -12 -4 -22 -9 -48 -16 -66 -24 -62 -5 3 -15 -2
-22 -11 -10 -12 -10 -14 -1 -9 16 9 16 -16 0 -32 -7 -7 -9 -12 -5 -12 3 0 22
24 41 54 19 29 45 64 58 76 22 22 22 22 1 11 -12 -6 -27 -19 -33 -29 -8 -14
-9 -12 -4 11 3 15 3 27 0 27 -3 0 -6 -1 -7 -2z"/>
<path d="M1305 1000 c3 -6 2 -10 -4 -10 -6 0 -8 -7 -4 -16 4 -11 0 -15 -13
-14 -37 4 -39 0 -9 -20 17 -11 38 -17 49 -14 11 4 16 2 12 -4 -4 -6 2 -8 15
-5 16 5 18 8 7 15 -9 7 -5 8 12 4 14 -3 31 -1 39 3 8 6 -7 8 -39 7 -46 -1 -53
2 -56 19 -2 11 2 22 7 26 6 4 4 9 -6 12 -9 4 -13 3 -10 -3z"/>
<path d="M1113 956 c1 -5 -5 -10 -13 -11 -8 0 -15 -4 -15 -10 0 -5 -4 -17 -9
-25 -7 -10 -3 -10 11 3 11 9 23 14 26 11 10 -10 36 16 31 30 -6 15 -34 17 -31
2z"/>
<path d="M1428 936 c-21 -11 -38 -25 -38 -30 0 -5 7 -3 15 4 8 6 20 8 27 4 7
-4 10 -3 5 1 -4 5 5 17 20 27 38 25 17 21 -29 -6z"/>
<path d="M1140 916 c-24 -19 -48 -32 -52 -30 -3 2 -9 0 -12 -5 -3 -4 4 -8 16
-7 12 0 23 -4 25 -11 3 -8 -7 -11 -31 -10 -31 3 -34 1 -25 -15 5 -10 12 -18
15 -18 3 0 2 5 -1 10 -3 6 -2 10 3 10 14 0 21 -37 10 -48 -7 -7 -2 -10 16 -8
35 4 42 13 17 21 -25 8 -27 18 -4 36 15 12 16 12 11 -3 -5 -12 -1 -16 18 -13
20 2 22 0 13 -12 -9 -11 -9 -17 0 -26 10 -9 12 -9 9 3 -4 20 61 52 92 44 42
-10 56 -47 15 -40 -14 3 -23 1 -20 -5 4 -5 2 -9 -2 -9 -16 0 -63 -51 -63 -68
0 -12 6 -8 19 12 11 16 30 35 43 42 31 18 156 17 206 0 22 -8 42 -14 44 -13 2
1 1 -1 -2 -4 -3 -4 -15 -10 -27 -14 -17 -5 -23 -2 -23 9 0 9 -4 16 -10 16 -5
0 -10 -4 -10 -9 0 -17 26 -30 54 -28 24 2 31 -3 42 -33 7 -19 13 -59 13 -87
l1 -53 -69 0 c-39 0 -72 -3 -74 -7 -3 -5 30 -7 74 -5 71 3 79 6 79 23 0 13 4
18 12 13 8 -5 9 -1 5 14 -17 56 -19 67 -8 52 9 -13 11 -13 11 3 0 10 -7 20
-15 23 -19 8 -19 21 0 21 8 0 21 -20 30 -45 18 -54 19 -66 3 -56 -7 5 -8 3 -4
-5 5 -7 0 -18 -10 -26 -11 -8 -15 -15 -11 -15 4 0 3 -8 -2 -18 -5 -10 -6 -24
-1 -32 7 -11 10 -8 15 12 4 15 4 32 0 37 -3 6 -1 11 5 11 24 0 32 46 16 94 -9
26 -16 56 -16 67 0 17 3 18 20 9 23 -12 26 -5 6 16 -17 16 -66 19 -66 4 0 -5
-7 -10 -15 -10 -13 0 -14 4 -4 23 6 12 8 19 4 15 -4 -3 -28 0 -53 9 -26 8 -53
15 -59 15 -7 1 -13 4 -13 8 0 8 -37 6 -46 -3 -4 -4 -16 -7 -27 -7 -20 0 -19 1
3 25 25 27 19 35 -7 10 -8 -9 -18 -13 -21 -10 -4 3 0 10 8 15 8 6 11 10 6 10
-5 0 -3 7 4 15 7 8 17 12 24 8 6 -4 4 2 -4 12 -9 11 -10 16 -2 11 7 -4 12 -2
12 4 0 7 7 10 15 6 8 -3 15 0 15 5 0 7 -9 9 -22 5 -13 -3 -26 -6 -29 -6 -3 0
-11 -15 -18 -34 -10 -25 -18 -32 -32 -29 -10 3 -16 9 -13 14 3 5 -8 6 -23 3
-19 -3 -38 2 -58 16 -16 11 -25 20 -19 20 5 0 15 -5 21 -11 17 -17 61 -19 74
-3 6 8 20 14 31 14 17 0 18 3 8 15 -9 11 -17 12 -30 5 -10 -6 -27 -7 -37 -4
-10 3 -8 -1 7 -11 24 -16 24 -16 2 -12 -12 3 -20 1 -16 -4 9 -15 -13 -10 -26
6 -7 8 -18 15 -25 15 -7 0 -18 -7 -25 -15 -21 -25 -32 -17 -14 10 9 14 20 23
24 20 4 -3 20 1 34 9 22 11 24 15 11 20 -21 8 -13 11 -65 -28z m34 -52 c22
-22 20 -29 -8 -29 -19 0 -22 3 -14 13 8 10 6 11 -8 5 -17 -6 -17 -5 -5 10 16
21 16 21 35 1z m393 -144 c1 -11 -2 -22 -8 -25 -10 -7 -13 28 -2 38 9 9 9 10
10 -13z"/>
<path d="M1486 934 c-3 -9 -11 -12 -18 -8 -10 5 -10 4 -1 -6 9 -10 15 -10 27
3 18 18 20 27 7 27 -5 0 -12 -7 -15 -16z"/>
<path d="M1005 932 c2 -3 0 -13 -6 -23 -14 -27 -4 -24 14 4 13 20 13 24 1 24
-8 0 -12 -2 -9 -5z"/>
<path d="M1022 891 c-3 -9 -10 -19 -16 -23 -5 -3 -11 -15 -13 -26 -1 -11 -12
-37 -24 -57 -12 -20 -19 -38 -17 -41 3 -2 13 11 22 30 16 33 38 51 50 39 3 -4
2 -11 -3 -17 -5 -6 -11 -15 -13 -21 -1 -5 -7 -9 -11 -7 -5 1 -6 -2 -2 -8 3 -6
11 -7 17 -4 7 5 9 0 6 -14 -4 -12 -1 -25 5 -29 7 -3 9 -3 5 2 -5 5 3 22 15 39
36 48 40 57 23 50 -9 -3 -14 -10 -11 -15 3 -4 -3 -12 -13 -18 -14 -7 -19 -6
-19 4 0 8 7 11 16 7 9 -3 13 -2 9 3 -4 4 -2 15 5 23 9 13 9 14 0 8 -21 -12
-36 3 -21 22 9 12 6 11 -10 -2 -26 -23 -30 -8 -4 20 39 44 43 51 26 51 -9 0
-19 -7 -22 -16z"/>
<path d="M1419 893 c-1 -5 -1 -11 0 -15 0 -5 -3 -8 -9 -8 -5 0 -9 -10 -9 -22
1 -18 2 -19 6 -5 2 9 9 14 15 11 6 -4 8 -2 5 3 -4 6 0 13 8 17 8 3 15 10 15
16 0 11 -29 14 -31 3z"/>
<path d="M1490 869 c0 -5 -6 -7 -12 -3 -9 5 -9 2 1 -9 7 -9 21 -16 30 -16 14
1 14 2 -1 6 -10 2 -15 10 -11 19 3 8 2 14 -1 14 -3 0 -6 -5 -6 -11z"/>
<path d="M1445 861 c-3 -6 0 -11 7 -11 8 -1 6 -6 -6 -15 -11 -8 -14 -15 -7
-15 7 0 10 -4 7 -8 -2 -4 9 -9 27 -10 17 -2 37 -8 44 -14 11 -8 12 -7 7 6 -3
9 -12 16 -18 16 -7 0 -21 7 -32 16 -10 8 -12 12 -4 8 13 -7 13 -6 0 12 -8 10
-15 20 -16 22 -1 2 -5 -1 -9 -7z"/>
<path d="M1371 846 c-8 -10 -9 -16 -1 -21 5 -3 13 1 16 10 9 22 -1 29 -15 11z"/>
<path d="M1515 819 c16 -4 33 -5 37 -1 4 4 -10 8 -30 9 -37 1 -37 1 -7 -8z"/>
<path d="M1580 778 c0 -6 -7 -8 -15 -4 -8 3 -15 1 -15 -4 0 -5 18 -8 39 -6 28
2 38 0 34 -9 -2 -7 1 -16 8 -21 8 -4 10 -3 5 4 -4 7 -3 12 3 12 5 0 11 -6 14
-12 2 -7 8 -9 13 -5 5 5 1 14 -9 21 -9 7 -17 17 -17 22 0 5 -13 10 -30 10 -16
1 -30 -3 -30 -8z"/>
<path d="M1900 780 c-11 -7 -4 -10 25 -10 53 0 106 -29 127 -69 24 -48 33 -52
14 -7 -9 21 -16 40 -16 43 0 7 -104 53 -120 53 -8 0 -22 -5 -30 -10z"/>
<path d="M2059 768 c-10 -18 -9 -20 6 -14 14 5 15 3 8 -6 -7 -9 -6 -23 3 -45
8 -18 16 -33 18 -33 6 0 -6 44 -16 56 -5 8 -2 14 8 18 10 4 21 1 26 -6 10 -16
11 -51 1 -45 -5 3 -9 -11 -10 -30 -3 -50 -23 -98 -34 -81 -7 10 -9 9 -9 -4 0
-22 9 -22 37 0 25 18 49 82 32 82 -6 0 -7 14 -3 34 4 24 1 42 -10 58 -9 13
-19 22 -21 21 -3 -2 -11 -3 -17 -3 -9 0 -8 4 2 10 9 6 10 10 3 10 -7 0 -17
-10 -24 -22z"/>
<path d="M1117 755 c-4 -8 -3 -14 1 -12 11 3 14 -7 7 -25 -4 -10 -11 -15 -16
-12 -5 3 -9 1 -9 -5 0 -5 5 -13 10 -16 6 -3 10 -1 10 5 0 6 5 8 10 5 6 -4 8
-10 5 -14 -2 -5 6 -6 19 -4 23 5 24 3 19 -38 -7 -56 2 -48 11 9 6 40 5 42 -19
42 -15 0 -24 4 -21 8 8 13 16 65 9 58 -3 -3 -12 -1 -18 4 -9 8 -14 6 -18 -5z"/>
<path d="M2178 763 c23 -2 59 -2 80 0 20 2 1 4 -43 4 -44 0 -61 -2 -37 -4z"/>
<path d="M2388 763 c12 -2 30 -2 40 0 9 3 -1 5 -23 4 -22 0 -30 -2 -17 -4z"/>
<path d="M2477 763 c18 -2 50 -2 70 0 21 2 7 4 -32 4 -38 0 -55 -2 -38 -4z"/>
<path d="M2863 753 c26 -2 68 -2 95 0 26 2 4 3 -48 3 -52 0 -74 -1 -47 -3z"/>
<path d="M966 735 c-10 -8 -16 -18 -15 -24 2 -5 14 -1 27 9 26 22 16 35 -12
15z"/>
<path d="M1219 704 c-7 -9 -15 -42 -17 -75 -2 -32 -8 -56 -13 -53 -13 7 -11
-1 6 -44 9 -20 25 -47 37 -59 l21 -23 876 3 c599 1 707 3 342 4 -413 3 -537 6
-543 16 -6 9 -8 9 -8 -1 0 -10 -42 -12 -192 -11 -106 1 -201 6 -210 11 -12 5
-18 5 -18 -2 0 -6 -27 -10 -67 -9 -47 0 -62 3 -48 9 19 8 19 9 -2 9 -12 1 -25
-3 -28 -9 -9 -14 -88 -12 -107 3 -25 20 -48 60 -48 82 1 15 4 12 14 -11 29
-66 98 -84 141 -38 14 15 25 32 25 38 0 6 -12 -4 -26 -21 -42 -54 -107 -38
-134 33 -14 37 -12 105 4 137 17 30 15 35 -5 11z"/>
<path d="M1043 647 c-9 -15 1 -15 32 -2 l30 12 -28 -1 c-16 0 -31 -5 -34 -9z"/>
<path d="M1101 619 c-13 -5 -32 -7 -41 -4 -9 3 -28 1 -41 -5 -24 -10 -24 -10
3 -5 15 3 38 1 52 -5 14 -5 26 -6 26 -1 0 4 10 13 23 19 27 13 11 14 -22 1z"/>
<path d="M1427 583 c18 -2 50 -2 70 0 21 2 7 4 -32 4 -38 0 -55 -2 -38 -4z"/>
<path d="M1773 583 c26 -2 68 -2 95 0 26 2 4 3 -48 3 -52 0 -74 -1 -47 -3z"/>
<path d="M1024 571 c-10 -2 -47 -19 -81 -38 -35 -19 -68 -31 -74 -27 -7 4 -9
3 -6 -3 3 -5 -25 -28 -63 -51 -37 -24 -99 -67 -137 -97 -37 -30 -72 -55 -78
-55 -11 -1 -50 -50 -40 -50 11 0 89 57 109 79 11 11 23 21 28 21 5 0 3 -7 -6
-15 -18 -18 -11 -46 10 -38 11 4 12 9 3 19 -11 13 -5 19 16 14 5 -1 7 1 3 5
-7 7 3 23 37 56 25 25 156 112 161 107 6 -7 -140 -168 -171 -188 -17 -11 -23
-20 -15 -20 20 0 90 68 170 164 71 85 106 106 181 106 27 0 49 3 49 8 0 7 -62
10 -96 3z"/>
<path d="M868 558 c14 -7 26 -8 32 -2 6 6 -2 10 -23 11 -30 2 -31 1 -9 -9z"/>
<path d="M1948 543 c193 -2 511 -2 705 0 193 1 35 2 -353 2 -388 0 -546 -1
-352 -2z"/>
<path d="M1387 513 c-18 -18 -3 -25 41 -19 26 3 62 2 81 -4 40 -11 44 -9 35
14 -5 13 -21 16 -78 16 -40 0 -76 -3 -79 -7z"/>
<path d="M1597 505 c-5 -12 79 -14 656 -15 364 0 671 0 681 -1 11 0 23 6 27
13 7 10 9 10 9 1 0 -7 8 -13 18 -12 12 0 13 2 3 6 -11 5 -11 7 0 14 8 5 -290
9 -687 9 -607 0 -703 -2 -707 -15z m1306 -2 c-13 -2 -35 -2 -50 0 -16 2 -5 4
22 4 28 0 40 -2 28 -4z"/>
<path d="M465 270 c-14 -15 -15 -23 -6 -34 8 -10 9 -16 1 -21 -6 -4 -9 -3 -8
2 8 22 -16 8 -54 -33 -23 -24 -70 -66 -105 -91 -34 -26 -60 -49 -55 -53 4 -3
11 -10 16 -15 6 -6 7 -4 3 6 -3 9 0 22 6 28 17 17 31 13 17 -4 -7 -8 -8 -15
-4 -15 16 0 164 142 158 151 -3 5 1 6 8 4 7 -3 34 16 58 41 25 26 39 44 33 40
-7 -4 -21 -2 -32 3 -14 8 -22 6 -36 -9z m-120 -160 c-21 -22 -44 -40 -50 -40
-9 0 74 79 85 80 2 0 -14 -18 -35 -40z"/>
</g>
</svg>
