<?xml version="1.0" standalone="no"?>
<!DOCTYPE svg PUBLIC "-//W3C//DTD SVG 20010904//EN"
 "http://www.w3.org/TR/2001/REC-SVG-20010904/DTD/svg10.dtd">
<svg version="1.0" xmlns="http://www.w3.org/2000/svg"
 width="300.000000pt" height="240.000000pt" viewBox="0 0 300.000000 240.000000"
 preserveAspectRatio="xMidYMid meet">
<metadata>
Created by potrace 1.10, written by Peter Selinger 2001-2011
</metadata>
<g transform="translate(0.000000,240.000000) scale(0.100000,-0.100000)"
fill="#000000" stroke="none">
<path d="M963 2383 c21 -6 22 -26 2 -43 -12 -10 -15 -10 -15 1 0 8 -10 20 -21
28 -18 11 -23 11 -30 -1 -13 -20 -11 -23 16 -38 13 -7 22 -17 19 -22 -3 -4 0
-8 6 -8 6 0 9 -4 5 -9 -3 -5 -1 -12 5 -16 5 -3 10 -15 10 -27 0 -18 -2 -19
-16 -7 -13 11 -17 10 -25 -4 -13 -23 -32 -22 -24 2 3 11 -1 26 -11 36 -15 15
-15 17 5 22 17 4 19 8 10 19 -17 20 -28 17 -39 -11 -5 -14 -14 -25 -19 -25 -6
0 -8 7 -5 15 4 11 0 15 -16 15 -15 0 -20 5 -17 14 7 16 -69 -16 -167 -71 -75
-43 -86 -52 -86 -70 0 -8 -7 -21 -15 -29 -8 -9 -15 -24 -15 -34 0 -10 -5 -22
-11 -26 -8 -4 -7 -9 2 -16 9 -5 5 -6 -13 -2 -27 6 -27 6 -17 -25 6 -17 13 -31
16 -31 3 0 2 8 -1 18 -6 16 -5 16 7 0 9 -11 21 -15 35 -11 12 3 22 1 22 -4 0
-5 7 -18 16 -29 8 -10 12 -13 9 -6 -4 8 9 3 29 -10 34 -22 44 -47 15 -39 -8 2
-27 7 -44 11 -16 5 -26 8 -21 9 5 1 -3 13 -18 28 -32 31 -46 24 -20 -10 19
-25 73 -62 86 -59 16 4 48 -33 48 -55 0 -13 -2 -23 -5 -23 -8 0 -107 61 -122
75 -8 8 -21 15 -29 15 -8 0 -14 5 -14 10 0 6 -14 10 -31 10 -26 0 -30 2 -19
15 10 12 6 18 -19 33 -17 10 -28 22 -23 26 4 5 -4 7 -18 5 -14 -2 -31 0 -37 4
-9 6 -13 1 -13 -13 0 -11 -7 -23 -14 -26 -17 -6 -63 32 -53 43 4 3 7 1 7 -5 0
-7 7 -12 17 -12 9 0 13 3 10 7 -4 3 -2 12 4 19 6 8 9 20 6 28 -4 9 2 17 14 21
10 4 19 15 19 25 0 23 21 31 89 36 29 2 59 8 66 14 10 8 14 7 18 -2 3 -8 6 -6
6 6 1 13 -4 16 -16 12 -9 -4 -51 -11 -92 -17 -140 -19 -301 -89 -287 -125 4
-11 1 -14 -12 -10 -19 6 -54 -25 -87 -76 l-17 -27 49 5 c90 9 191 9 185 0 -3
-5 2 -7 10 -3 9 3 33 2 54 -3 22 -5 57 -11 79 -14 147 -19 198 -39 188 -76 -3
-11 -10 -20 -17 -21 -6 0 -24 -2 -41 -4 -16 -1 -68 -6 -115 -9 -128 -10 -298
-55 -285 -76 3 -4 22 -11 42 -15 l38 -7 -83 -28 c-46 -15 -86 -31 -89 -34 -7
-7 -20 -6 180 -14 l157 -7 134 -137 c170 -176 222 -268 197 -354 -8 -28 -7
-31 10 -27 18 5 19 -2 19 -118 0 -68 -5 -162 -10 -209 -6 -56 -6 -86 0 -88 18
-6 11 -27 -36 -102 -80 -129 -157 -350 -189 -542 l-6 -38 268 0 c220 1 271 3
287 15 11 8 29 15 39 15 16 0 17 -3 7 -15 -18 -22 582 -22 613 0 12 8 31 15
44 15 12 0 25 5 28 10 9 15 25 12 25 -4 0 -7 -10 -17 -22 -21 -19 -6 -20 -8
-6 -12 10 -2 28 3 40 11 12 9 39 16 59 16 25 0 45 8 63 25 41 38 21 55 -31 27
-25 -14 -69 -16 -77 -4 -2 4 3 8 12 9 44 3 62 8 62 16 0 5 -9 6 -19 2 -11 -3
-22 -1 -26 5 -10 16 13 39 33 34 9 -3 30 7 46 22 23 22 30 24 37 13 5 -8 6
-26 3 -41 -5 -23 -1 -27 26 -33 31 -7 31 -7 11 -22 -12 -8 -26 -11 -33 -7 -8
5 -9 2 -5 -10 4 -10 7 -20 7 -22 0 -8 49 -4 54 5 3 5 21 12 40 15 20 4 43 17
53 29 10 12 35 30 55 41 20 10 47 29 58 41 35 37 4 42 -46 6 -25 -17 -51 -31
-59 -31 -8 0 -25 -11 -39 -25 -14 -14 -33 -25 -42 -25 -11 0 -4 10 21 28 20
15 61 48 90 75 28 26 57 47 64 47 7 0 26 7 42 16 38 19 49 12 20 -13 -21 -18
-30 -39 -11 -28 6 3 7 -1 4 -9 -3 -9 -2 -16 4 -16 5 0 13 7 16 16 3 8 11 12
17 8 6 -3 15 0 20 7 4 7 11 11 14 7 13 -13 -50 -69 -113 -100 -37 -18 -78 -43
-92 -55 -14 -13 -29 -23 -35 -23 -5 0 -21 -9 -35 -20 -37 -28 -18 -37 86 -45
l92 -7 46 42 c26 24 49 40 53 36 3 -3 1 -6 -5 -6 -7 0 -12 -6 -12 -13 0 -7
-10 -21 -22 -32 l-23 -20 35 -3 c30 -3 39 2 66 33 35 42 56 33 23 -9 l-20 -26
30 0 c20 0 36 8 49 25 11 14 23 25 26 25 14 0 91 62 91 73 0 24 -31 16 -69
-18 -61 -54 -78 -43 -22 14 27 27 46 53 43 58 -3 4 10 9 29 10 31 1 33 -1 28
-22 -7 -30 12 -42 35 -21 10 9 23 16 29 16 16 0 32 33 32 65 0 23 -2 24 -20
15 -11 -6 -20 -17 -20 -25 0 -16 -12 -18 -59 -9 l-31 6 41 40 c22 22 39 41 37
44 -3 2 -28 -7 -56 -21 -29 -14 -57 -25 -64 -25 -21 0 27 43 70 62 47 21 52
32 22 48 -16 9 -28 5 -63 -18 -49 -33 -77 -45 -77 -33 0 14 59 61 76 61 8 0
17 6 20 14 3 8 12 12 20 9 9 -3 14 2 15 13 0 13 4 9 12 -11 l11 -30 7 25 c7
23 7 23 8 -7 1 -17 6 -35 11 -38 8 -5 8 -11 1 -19 -7 -9 -7 -16 2 -25 9 -10 8
-15 -7 -27 -27 -20 2 -19 31 1 19 14 21 13 22 -8 6 -86 4 -98 -22 -125 -35
-37 -36 -58 -1 -35 22 14 74 25 74 16 0 -2 -15 -9 -34 -17 -19 -8 -40 -24 -46
-36 -6 -12 -17 -20 -23 -17 -7 2 -22 -9 -35 -24 l-24 -29 31 0 c16 0 41 4 55
10 17 6 26 6 26 0 0 -6 59 -10 150 -10 l150 0 0 65 c0 53 -3 63 -15 59 -11 -5
-13 -2 -9 10 3 9 10 16 15 16 5 0 9 11 9 25 0 32 -12 32 -46 0 -27 -25 -47
-26 -38 -1 6 16 -46 29 -61 15 -12 -12 -48 -12 -40 1 4 6 -7 10 -27 10 -25 0
-29 -3 -18 -10 11 -7 12 -10 2 -10 -13 0 -42 23 -42 33 0 2 25 3 55 2 49 -1
55 0 50 17 -6 16 41 89 70 110 40 29 46 -14 8 -54 l-27 -28 27 0 c15 0 36 9
47 20 25 25 28 25 33 -3 2 -12 5 29 6 91 1 106 0 112 -19 112 -11 0 -20 1 -20
3 0 1 4 16 9 34 7 24 6 35 -5 44 -11 9 -18 6 -33 -12 l-19 -24 4 33 c4 36 -13
45 -18 10 -2 -15 -11 -24 -25 -26 -27 -4 -29 9 -7 43 14 21 14 24 -3 33 -14 8
-21 5 -35 -19 -32 -52 -49 -28 -24 33 5 12 1 18 -15 23 -13 5 -25 3 -26 -2 -2
-6 -11 -19 -19 -29 -14 -18 -15 -17 -12 18 4 35 3 37 -27 35 -16 -2 -36 -6
-42 -10 -9 -6 -13 -2 -13 12 0 23 -55 58 -65 41 -9 -15 -25 -12 -19 4 4 9 -8
20 -33 32 -21 10 -40 20 -43 23 -12 13 -70 39 -70 32 0 -13 -27 -21 -45 -15
-11 5 -12 11 -5 24 16 30 11 49 -14 56 -13 3 -27 15 -30 27 -7 22 -7 22 -24
-3 -9 -14 -28 -36 -41 -49 -13 -14 -25 -39 -27 -59 -3 -38 -7 -43 -46 -60 -17
-7 -30 -8 -33 -2 -4 6 -1 10 6 10 7 0 10 2 7 5 -3 3 8 20 23 36 16 17 29 39
29 48 0 9 16 32 35 51 33 33 45 73 26 84 -5 3 -11 -1 -15 -9 -3 -8 -12 -15
-20 -15 -9 0 -13 -6 -10 -15 3 -8 -6 -25 -22 -40 -15 -14 -23 -25 -19 -25 4 0
0 -10 -11 -21 -10 -12 -19 -31 -19 -42 0 -33 -48 -52 -93 -39 -28 9 -41 8 -61
-3 -14 -8 -34 -17 -43 -21 -10 -3 -18 -10 -18 -15 0 -5 -8 -9 -18 -9 -10 0
-34 -12 -53 -26 -25 -19 -42 -24 -63 -20 -22 5 -32 1 -43 -14 -11 -15 -26 -20
-61 -20 -33 0 -43 -3 -32 -9 8 -6 18 -7 23 -4 5 3 8 0 5 -8 -5 -15 -39 -21
-77 -13 -19 4 -22 7 -11 14 8 5 18 6 22 4 4 -3 8 -3 8 0 0 2 -14 11 -31 20
-26 13 -31 13 -36 0 -3 -7 -11 -14 -18 -14 -7 0 -16 -6 -18 -12 -3 -8 -6 -5
-6 5 -1 16 -7 18 -41 12 -32 -5 -40 -4 -40 8 0 9 -12 16 -29 19 -24 3 -27 1
-23 -15 3 -11 13 -22 24 -24 22 -6 24 -41 3 -50 -9 -3 -22 2 -30 13 -10 13
-14 15 -15 5 0 -9 -8 -11 -25 -7 -29 7 -33 -1 -9 -19 13 -9 14 -16 6 -32 -10
-18 -9 -20 13 -15 15 2 25 0 25 -7 0 -7 5 -9 10 -6 6 3 10 1 10 -4 0 -6 -6
-11 -12 -12 -7 0 -22 -3 -33 -5 -11 -3 -27 -5 -35 -5 -8 0 -36 -5 -62 -12 -34
-7 -54 -8 -71 0 -28 13 -52 1 -44 -21 7 -18 32 -21 42 -6 3 6 27 10 53 9 l47
0 -35 -12 c-19 -7 -36 -20 -38 -30 -3 -16 2 -17 49 -11 42 6 51 4 47 -7 -2 -8
-23 -21 -47 -29 -35 -12 -43 -12 -50 -1 -5 7 -10 9 -12 3 -6 -14 -89 -27 -89
-13 0 6 9 11 20 11 28 0 36 27 16 49 -9 10 -16 24 -16 32 0 11 -12 13 -49 11
-26 -2 -59 -2 -72 0 l-23 3 26 17 c22 14 32 16 52 7 19 -9 43 -7 112 10 61 14
92 17 100 10 9 -7 16 -5 23 10 18 33 14 42 -15 30 -33 -12 -222 -10 -247 3
-10 5 -23 23 -29 40 -7 18 -14 26 -20 20 -11 -11 -74 3 -101 22 -21 16 -13 43
14 51 10 4 19 11 19 16 0 6 -9 7 -20 4 -23 -7 -24 -6 -10 30 5 14 14 23 20 20
5 -3 10 0 10 7 1 9 5 7 14 -4 7 -10 15 -15 18 -12 3 3 9 -8 13 -23 4 -17 2
-29 -4 -31 -17 -6 -13 -32 4 -32 8 0 15 5 15 10 0 17 21 11 41 -13 13 -16 19
-18 19 -7 1 9 5 5 11 -8 6 -17 4 -30 -7 -48 -9 -13 -15 -25 -13 -25 21 -8 231
-5 236 4 4 6 -3 8 -18 5 -13 -3 -35 -2 -49 2 -24 7 -24 7 14 23 21 10 47 17
57 17 12 0 19 7 19 20 0 21 30 42 47 32 5 -4 13 -14 16 -22 4 -8 4 -1 1 16 -5
30 -4 31 49 40 63 12 86 8 61 -10 -24 -18 -9 -38 20 -26 13 5 27 6 32 2 4 -4
4 -2 0 5 -3 6 -1 15 5 18 6 4 13 -2 16 -14 7 -27 23 -27 23 -1 0 14 14 26 45
41 27 13 42 26 38 33 -4 7 -2 7 7 -1 10 -9 10 -15 -3 -27 -9 -9 -18 -16 -21
-16 -2 0 -16 -4 -31 -10 -20 -8 -23 -13 -14 -22 10 -11 43 -14 121 -9 9 1 24
9 34 18 9 10 24 18 33 20 53 7 81 15 81 22 0 5 12 12 28 16 15 3 41 17 57 29
42 32 98 61 112 58 7 -2 20 10 29 25 33 52 46 64 60 52 19 -16 56 29 52 65 -4
41 -22 43 -33 4 -6 -20 -22 -39 -43 -51 -18 -11 -31 -15 -30 -11 2 5 -1 11 -7
13 -5 2 -17 -9 -25 -25 -18 -35 -41 -55 -57 -49 -7 2 -15 -5 -18 -16 -4 -10
-12 -19 -18 -19 -6 0 -20 -11 -32 -24 -16 -20 -32 -25 -82 -28 -35 -2 -63 -1
-63 3 0 10 27 19 55 19 37 0 57 10 46 24 -8 9 0 17 28 29 22 10 46 28 55 41
22 34 59 70 76 75 8 3 27 4 42 3 30 -1 54 28 44 53 -3 8 6 23 19 34 14 10 25
24 25 31 0 6 4 8 10 5 6 -3 7 1 4 9 -7 18 -20 21 -29 6 -13 -22 -20 -8 -17 31
3 31 0 44 -12 51 -9 5 -16 21 -16 36 0 15 -6 36 -14 47 -7 11 -30 67 -50 125
-20 58 -41 106 -46 108 -5 2 -6 10 -4 17 3 8 -1 29 -10 46 -18 36 -19 42 -8
35 4 -2 7 33 6 79 0 46 3 82 7 79 16 -10 19 17 5 38 l-16 22 -1 -24 c0 -15 -3
-19 -6 -10 -3 8 -17 25 -31 37 -21 18 -24 25 -14 35 21 21 13 44 -35 96 l-48
51 -18 -31 c-22 -38 -34 -30 -17 11 13 32 7 81 -10 81 -5 0 -7 -15 -5 -32 l5
-33 -10 30 c-5 17 -8 35 -6 41 3 7 -6 22 -19 34 -22 21 -24 21 -34 3 -9 -16
-10 -14 -11 12 0 30 -15 55 -32 55 -15 0 -8 -43 9 -55 14 -11 13 -13 -12 -19
-15 -4 -29 -5 -31 -3 -2 2 0 25 5 50 6 36 5 49 -6 59 -11 9 -19 7 -36 -13 -23
-25 -27 -68 -13 -120 5 -17 3 -29 -5 -34 -14 -9 25 -34 54 -35 24 0 22 -20 -3
-20 -16 0 -20 -7 -20 -30 0 -21 -5 -30 -16 -30 -11 0 -14 -6 -9 -20 4 -12 2
-27 -4 -34 -9 -10 -5 -16 19 -26 29 -12 43 -33 19 -27 -7 1 -13 -15 -15 -40
-1 -32 2 -43 12 -43 9 0 14 12 14 35 0 41 12 44 42 10 11 -13 25 -22 29 -19 4
2 13 -5 19 -17 12 -21 12 -21 26 6 8 15 14 38 14 51 0 33 16 30 23 -3 3 -16 9
-41 13 -57 5 -20 4 -27 -4 -22 -6 4 -20 -2 -32 -14 -21 -21 -26 -40 -10 -40 6
0 10 4 10 9 0 5 18 11 39 15 34 5 39 9 37 30 -1 13 -12 40 -25 61 -23 39 -22
56 3 36 12 -10 15 -9 13 7 -1 13 -7 18 -18 15 -12 -4 -16 2 -16 21 0 21 2 24
12 16 10 -8 16 -7 23 6 7 13 10 8 16 -25 3 -23 15 -49 26 -58 21 -18 28 -49 9
-37 -9 5 -10 -1 -5 -20 3 -14 2 -26 -3 -26 -5 0 -11 -12 -13 -27 -2 -16 -8
-27 -15 -26 -8 2 -13 -7 -13 -22 0 -25 19 -37 21 -12 0 6 5 1 10 -13 10 -23
11 -24 24 -7 12 17 13 17 20 0 6 -17 7 -17 21 1 8 11 14 16 14 10 -1 -28 -50
-60 -68 -42 -6 6 -12 6 -17 -1 -3 -6 1 -14 9 -17 13 -5 12 -10 -9 -26 -16 -13
-25 -29 -25 -49 0 -22 -5 -29 -19 -29 -11 0 -22 4 -25 9 -3 4 -17 6 -32 3 -19
-3 -22 -7 -12 -13 10 -7 10 -9 1 -9 -7 0 -13 -4 -13 -10 0 -5 3 -9 8 -8 4 0
15 -2 26 -7 10 -4 21 -4 25 1 12 17 53 16 67 -3 12 -16 15 -16 24 -3 7 11 5
16 -9 18 -13 2 -20 14 -23 38 -4 34 -3 36 23 30 17 -3 30 0 33 7 3 7 5 6 5 -3
1 -9 -5 -22 -11 -29 -9 -9 -9 -12 -1 -7 6 3 18 -1 26 -9 9 -8 22 -15 29 -15 9
1 7 5 -5 14 -10 8 -17 18 -16 22 4 23 -2 55 -9 50 -5 -3 -9 1 -9 9 0 20 3 19
28 -6 11 -11 18 -27 15 -35 -3 -8 -1 -14 5 -14 20 0 30 -51 17 -86 -7 -19 -15
-34 -19 -34 -11 0 -48 -80 -39 -85 4 -2 15 15 25 38 9 23 19 36 22 29 3 -7 -1
-26 -7 -43 -11 -25 -10 -32 5 -49 21 -23 31 -17 37 20 4 22 5 23 13 7 4 -11 2
-35 -5 -57 -11 -32 -11 -42 0 -55 12 -15 14 -15 23 1 6 10 10 26 11 37 2 38
21 27 39 -23 15 -41 16 -57 7 -91 -15 -54 -53 -89 -91 -85 -16 2 -29 -1 -29
-5 0 -5 5 -9 11 -9 5 0 7 -5 4 -11 -4 -6 -9 -8 -12 -5 -3 3 -12 -2 -21 -10
-11 -11 -26 -14 -52 -10 -24 4 -43 1 -57 -9 -12 -8 -43 -17 -70 -18 -27 -2
-71 -15 -102 -31 -30 -15 -60 -25 -68 -22 -7 3 -13 1 -13 -4 0 -16 -27 -12
-33 5 -5 10 4 16 28 21 19 3 35 10 35 15 0 5 7 9 16 9 14 0 89 30 126 50 11 6
19 6 23 0 4 -6 17 -4 34 5 18 9 42 12 64 8 32 -5 37 -2 51 25 17 32 38 45 61
36 25 -10 59 21 73 66 7 23 11 44 9 46 -10 11 -37 -11 -46 -37 -5 -16 -20 -33
-33 -38 -32 -12 -35 -5 -8 24 20 21 21 27 9 42 -7 10 -15 20 -16 22 -2 2 -14
-8 -27 -22 -16 -18 -35 -27 -55 -27 -16 0 -33 -5 -36 -10 -9 -14 -86 -53 -92
-46 -11 11 7 36 39 52 18 9 43 25 55 37 20 18 23 18 29 3 10 -25 22 -19 38 19
15 36 30 45 39 23 3 -7 6 -8 6 -2 2 18 -30 51 -35 37 -3 -7 -12 -13 -19 -13
-7 0 -20 -12 -30 -26 -12 -19 -23 -25 -41 -21 -18 3 -30 -2 -43 -19 -10 -13
-29 -24 -41 -24 -11 0 -19 -4 -16 -9 3 -5 -9 -8 -26 -6 -21 2 -34 9 -39 23 -9
24 13 48 32 36 18 -11 59 -13 59 -3 0 5 9 9 20 9 27 0 25 14 -4 29 -17 10 -29
10 -44 2 -32 -17 -39 -13 -34 19 2 16 8 28 12 25 5 -3 15 1 23 9 8 8 17 12 20
9 4 -3 14 -2 24 2 10 5 20 9 23 10 63 18 100 53 100 92 -1 17 -2 16 -15 -2
-25 -35 -35 -45 -46 -45 -6 0 -9 6 -6 13 19 46 19 47 -1 47 -29 0 -48 -26 -32
-45 7 -8 11 -15 9 -16 -2 0 -12 -2 -21 -4 -10 -2 -24 -10 -33 -18 -8 -9 -30
-20 -49 -27 -32 -10 -51 -33 -42 -49 6 -10 -49 -71 -63 -71 -20 0 -11 21 20
50 17 15 28 33 25 39 -4 6 0 21 9 35 11 16 12 25 5 28 -14 4 -3 78 11 78 5 0
9 -5 9 -11 0 -5 4 -8 9 -4 5 3 12 1 16 -5 3 -5 1 -10 -5 -10 -26 0 -3 -33 24
-36 22 -2 26 0 17 9 -17 17 -14 37 5 30 12 -4 15 -1 12 13 -2 13 -12 18 -38
19 -19 0 -34 5 -33 10 1 6 -3 16 -9 23 -6 6 -7 12 -4 12 4 0 0 7 -8 16 -9 8
-16 27 -17 42 -2 44 3 87 10 92 15 12 9 30 -9 30 -13 0 -20 -7 -20 -20 0 -11
-5 -20 -11 -20 -6 0 -7 -5 -2 -12 4 -7 8 -39 9 -71 2 -53 0 -58 -16 -54 -11 3
-21 0 -23 -7 -3 -8 -10 -8 -25 1 -18 11 -20 10 -16 -1 3 -8 1 -17 -5 -21 -6
-3 -11 -17 -11 -29 0 -29 -29 -38 -70 -23 -34 13 -42 35 -21 60 16 19 8 33
-23 39 -12 2 -20 -4 -22 -15 -4 -26 -12 -33 -26 -19 -9 9 -9 15 -1 23 6 6 9
18 6 26 -3 8 0 19 7 23 18 11 23 82 7 92 -9 6 -9 8 1 8 7 0 10 5 7 10 -9 15 7
12 29 -5 11 -8 14 -15 8 -15 -7 0 -12 -15 -12 -35 0 -19 5 -35 11 -35 6 0 9
12 7 27 -2 22 3 30 25 41 27 13 40 46 14 36 -10 -3 -13 5 -12 30 0 21 -5 38
-12 40 -7 3 -13 10 -13 16 0 8 6 8 20 0 11 -6 20 -17 20 -25 0 -8 8 -15 18
-14 11 0 13 2 4 6 -10 4 -7 9 8 17 13 6 22 14 21 19 0 4 -1 16 -1 27 0 16 -7
20 -31 20 -27 0 -30 2 -19 15 7 9 19 14 25 11 15 -5 15 45 1 56 -6 4 -6 12 1
20 15 17 21 100 8 105 -6 1 -16 -11 -24 -28 -11 -25 -11 -33 -1 -39 16 -10 3
-50 -16 -50 -8 0 -14 -5 -14 -11 0 -6 7 -9 15 -6 20 8 29 -10 10 -21 -9 -4
-17 -19 -19 -33 -3 -33 -14 -49 -33 -49 -9 0 -13 6 -9 15 6 18 -21 47 -37 39
-7 -3 0 6 16 20 15 14 27 30 27 35 0 6 8 15 18 20 19 11 18 12 -20 15 -21 1
-25 -1 -18 -15 6 -10 4 -23 -6 -37 -11 -17 -21 -20 -44 -15 -19 3 -30 1 -30
-6 0 -6 5 -11 12 -11 6 0 3 -7 -8 -16 -11 -8 -13 -14 -5 -12 20 6 61 -35 61
-59 0 -24 -30 -55 -30 -32 -1 10 -4 8 -11 -3 -17 -30 -39 -22 -33 11 4 16 1
32 -5 36 -6 3 -11 3 -10 -2 3 -18 -2 -33 -11 -33 -5 0 -10 7 -10 15 0 17 -25
20 -35 5 -3 -5 -11 -10 -17 -10 -13 0 -1 52 15 62 18 12 39 9 31 -3 -4 -7 -1
-10 7 -7 8 3 13 12 11 19 -6 23 20 89 35 89 7 0 13 -7 13 -15 0 -8 5 -15 10
-15 16 0 12 27 -5 34 -8 3 -15 12 -15 20 0 8 -9 18 -20 21 -11 3 -20 11 -20
16 0 12 27 12 32 -1 2 -6 9 -6 17 0 12 7 9 10 -12 15 -15 4 -27 13 -27 21 0 8
-4 14 -10 14 -5 0 -10 -7 -10 -15 0 -10 -10 -15 -30 -15 -16 0 -30 -3 -30 -7
0 -5 -14 -9 -30 -10 -34 -2 -59 -22 -52 -41 5 -17 22 -15 22 3 0 8 5 15 10 15
6 0 10 -9 10 -20 0 -11 -7 -20 -16 -20 -9 0 -14 -7 -12 -18 2 -11 -3 -26 -10
-35 -9 -11 -10 -17 -2 -22 7 -5 0 -18 -21 -36 -38 -34 -54 -37 -39 -9 6 11 8
25 5 30 -3 6 -2 10 4 10 5 0 13 -5 16 -10 4 -6 10 -8 15 -5 11 7 -8 65 -22 65
-5 0 -7 -4 -4 -9 3 -5 -1 -12 -10 -15 -23 -9 -24 -8 -24 14 0 24 -29 38 -40
20 -6 -10 -13 -8 -31 9 -12 11 -30 21 -38 21 -9 0 -24 7 -34 15 -11 7 -25 11
-32 9 -7 -3 -16 0 -20 5 -3 6 -12 8 -18 4 -8 -5 -8 -2 1 9 10 12 8 20 -9 43
-13 16 -18 30 -12 33 17 12 35 53 29 68 -3 8 -2 12 3 9 5 -3 12 -1 15 4 3 4
16 9 28 9 13 1 48 5 78 10 36 7 57 6 61 0 4 -5 9 2 11 16 5 27 -14 37 -28 14
-5 -7 -10 -3 -16 12 -7 18 -11 21 -20 12 -16 -16 -38 -15 -38 1 0 17 45 57 64
57 19 0 21 -16 4 -23 -10 -4 -10 -6 0 -6 7 -1 10 -6 6 -12 -4 -7 -1 -10 7 -7
8 3 13 11 11 19 -5 19 19 59 35 59 7 0 18 -11 23 -25 6 -15 17 -25 29 -25 10
0 21 -7 25 -15 3 -8 12 -15 20 -15 15 0 29 27 21 41 -4 5 1 6 9 3 24 -9 27
-33 5 -44 -11 -6 -17 -15 -14 -21 4 -5 -1 -9 -10 -9 -21 0 -14 -24 8 -28 10
-2 17 3 17 13 0 25 24 12 30 -15 l6 -24 16 23 c16 23 15 43 -5 69 -14 18 -2
25 21 13 12 -6 30 -11 41 -11 11 0 32 -11 47 -25 15 -14 22 -25 16 -25 -19 0
-2 -28 20 -34 18 -4 19 -7 8 -20 -7 -9 -19 -16 -27 -16 -11 0 -11 -4 -3 -20 6
-11 20 -20 31 -20 16 0 19 -4 14 -17 -25 -60 9 -80 37 -23 21 44 22 66 3 74
-9 3 -15 0 -15 -9 0 -8 -7 -15 -16 -15 -10 0 -14 7 -12 23 2 18 9 22 32 20 28
-2 56 11 56 26 0 11 -39 11 -45 0 -4 -5 -15 -9 -27 -9 -14 0 -18 5 -14 16 3 9
6 27 6 40 0 14 6 24 14 24 8 0 18 5 22 11 5 9 -1 10 -22 5 l-29 -7 23 21 c14
13 21 28 17 37 -4 13 -3 13 9 4 24 -20 30 -63 10 -78 -22 -16 -11 -30 33 -42
27 -8 30 -7 26 9 -3 11 3 42 12 70 9 28 14 58 11 67 -5 13 -10 11 -29 -11 -12
-14 -26 -26 -30 -26 -14 0 -7 31 8 36 19 8 20 24 1 24 -8 0 -17 6 -19 13 -3 7
-6 5 -6 -5 -1 -26 -19 -22 -23 5 -5 37 -32 26 -39 -15 -3 -21 -13 -46 -21 -55
-8 -10 -18 -26 -21 -35 -4 -10 -14 -18 -22 -18 -14 0 -12 6 7 32 31 45 35 84
8 98 -11 6 -20 16 -19 23 0 9 2 9 6 0 6 -16 43 -17 43 -2 0 5 -4 7 -10 4 -5
-3 -10 1 -10 9 0 19 -5 20 -32 5 -18 -10 -24 -8 -39 12 -10 13 -21 20 -25 16
-4 -4 7 -22 24 -40 36 -37 39 -51 17 -74 -14 -13 -15 -11 -13 19 3 27 0 32
-16 30 -10 -2 -15 1 -12 6 9 15 -4 42 -21 42 -8 0 -28 14 -44 31 -35 38 -48
34 -18 -5 20 -25 20 -28 5 -45 -9 -10 -14 -24 -12 -32 3 -8 -9 -25 -25 -38
-35 -28 -50 -22 -19 7 12 11 19 26 15 32 -4 6 1 20 11 31 17 19 17 20 -4 39
-30 28 -41 25 -36 -10 4 -23 1 -30 -10 -30 -9 0 -16 -5 -16 -11 0 -5 -5 -7
-11 -4 -6 5 -4 12 8 22 10 8 12 12 6 8 -8 -4 -13 0 -13 9 0 9 -5 16 -12 16 -6
0 -9 3 -5 6 9 9 -19 34 -37 34 -9 0 -16 -7 -16 -15 0 -8 5 -15 10 -15 6 0 10
-11 10 -24 0 -13 9 -30 21 -37 13 -9 18 -20 14 -31 -9 -24 -25 -23 -25 1 0 11
-5 23 -11 26 -5 4 -14 17 -20 28 -28 66 -49 83 -103 84 -22 1 -33 -1 -23 -4z
m55 -52 c3 -8 -1 -12 -9 -9 -7 2 -15 10 -17 17 -3 8 1 12 9 9 7 -2 15 -10 17
-17z m8 -37 c6 -7 16 -14 22 -14 17 0 27 -49 13 -63 -8 -8 -11 -5 -11 12 0 12
-4 19 -10 16 -5 -3 -10 2 -10 12 0 15 -2 16 -10 3 -8 -12 -10 -11 -10 7 0 14
-11 28 -27 38 l-28 16 30 -6 c17 -3 35 -13 41 -21z m274 -10 c0 -8 7 -22 15
-31 9 -8 14 -17 11 -20 -2 -3 -14 5 -25 16 -22 22 -28 51 -11 51 6 0 10 -7 10
-16z m-524 -9 c10 -26 -1 -35 -13 -10 -6 14 -7 25 -2 25 5 0 12 -7 15 -15z
m86 -51 c21 -8 22 -74 1 -74 -7 0 -13 5 -13 10 0 6 -5 9 -10 8 -6 -2 -19 16
-29 38 l-19 42 26 -9 c15 -5 35 -12 44 -15z m308 11 c-7 -9 -15 -13 -17 -11
-7 7 7 26 19 26 6 0 6 -6 -2 -15z m134 -12 c4 -9 1 -20 -6 -25 -8 -5 1 -7 24
-6 48 3 69 -15 38 -32 -19 -10 -22 -10 -18 1 4 11 -8 14 -56 13 -33 0 -71 -4
-83 -8 -12 -4 -24 -3 -27 2 -8 14 42 33 69 26 20 -5 25 -1 31 20 7 30 19 34
28 9z m-677 -15 c-3 -8 -6 -5 -6 6 -1 11 2 17 5 13 3 -3 4 -12 1 -19z m150 7
c9 -24 -1 -27 -15 -5 -8 13 -8 20 -2 20 6 0 13 -7 17 -15z m193 -5 c0 -5 -4
-10 -10 -10 -5 0 -10 5 -10 10 0 6 5 10 10 10 6 0 10 -4 10 -10z m68 -32 c-7
-4 -22 -7 -33 -7 -11 0 -14 3 -7 6 6 2 10 9 6 14 -12 20 8 30 27 13 15 -13 17
-19 7 -26z m-120 -16 c-18 -8 -25 4 -15 28 l10 25 6 -25 c4 -14 4 -26 -1 -28z
m187 28 c3 -5 1 -10 -4 -10 -6 0 -11 5 -11 10 0 6 2 10 4 10 3 0 8 -4 11 -10z
m-465 -45 c0 -7 5 -15 11 -17 19 -6 -10 -43 -44 -56 -31 -12 -60 -1 -43 15 4
4 11 1 16 -7 8 -12 10 -11 10 5 0 16 2 17 9 6 7 -10 9 -7 8 12 -2 18 -8 27
-19 27 -10 0 -18 7 -18 16 0 11 6 14 21 9 14 -5 19 -3 15 3 -4 6 2 8 14 5 11
-3 20 -11 20 -18z m132 -13 c-19 -6 -44 6 -37 18 4 7 14 6 28 -2 14 -7 17 -13
9 -16z m188 18 c0 -5 -5 -10 -11 -10 -5 0 -7 5 -4 10 3 6 8 10 11 10 2 0 4 -4
4 -10z m50 -5 c0 -8 -7 -15 -15 -15 -8 0 -15 7 -15 15 0 8 7 15 15 15 8 0 15
-7 15 -15z m-90 -5 c0 -5 -4 -10 -10 -10 -5 0 -10 5 -10 10 0 6 5 10 10 10 6
0 10 -4 10 -10z m-366 -15 c-4 -8 -8 -15 -10 -15 -2 0 -4 7 -4 15 0 8 4 15 10
15 5 0 7 -7 4 -15z m286 -1 c0 -8 -5 -12 -10 -9 -6 4 -8 11 -5 16 9 14 15 11
15 -7z m40 6 c0 -5 -2 -10 -4 -10 -3 0 -8 5 -11 10 -3 6 -1 10 4 10 6 0 11 -4
11 -10z m83 -13 c4 3 7 1 7 -6 0 -17 -32 -10 -38 9 -4 12 -3 13 10 3 8 -7 18
-10 21 -6z m-183 -13 c0 -2 -7 -4 -15 -4 -8 0 -15 4 -15 10 0 5 7 7 15 4 8 -4
15 -8 15 -10z m213 1 c-3 -9 -8 -14 -10 -11 -3 3 -2 9 2 15 9 16 15 13 8 -4z
m-78 -35 c3 -5 -1 -10 -10 -10 -9 0 -13 5 -10 10 3 6 8 10 10 10 2 0 7 -4 10
-10z m-262 -26 c-5 -14 -2 -16 20 -10 34 8 41 -5 12 -26 -21 -16 -23 -16 -34
8 -6 14 -9 30 -6 35 10 15 15 10 8 -7z m187 12 c0 -3 -5 -8 -12 -12 -7 -4 -8
-3 -4 4 7 12 16 16 16 8z m870 -6 c0 -5 -4 -10 -10 -10 -5 0 -10 5 -10 10 0 6
5 10 10 10 6 0 10 -4 10 -10z m-21 -18 c7 -13 6 -23 -1 -30 -19 -19 -25 -14
-24 18 1 34 11 39 25 12z m80 -18 c-15 -18 -22 -13 -13 10 3 9 10 13 16 10 5
-3 4 -12 -3 -20z m-1019 7 c0 -12 -20 -25 -27 -18 -7 7 6 27 18 27 5 0 9 -4 9
-9z m157 -18 c-4 -3 -7 0 -7 7 0 7 3 10 7 7 3 -4 3 -10 0 -14z m823 -3 c0 -5
-7 -10 -16 -10 -8 0 -12 5 -9 10 3 6 10 10 16 10 5 0 9 -4 9 -10z m-263 -7
c-4 -3 -10 -3 -14 0 -3 4 0 7 7 7 7 0 10 -3 7 -7z m-722 -25 l-6 -23 14 23
c12 21 15 22 26 8 17 -20 6 -48 -16 -44 -14 2 -17 -3 -15 -21 l2 -25 -18 22
c-11 12 -24 22 -30 22 -6 0 -9 7 -6 15 4 8 10 13 14 10 5 -3 11 -1 15 5 3 5 1
10 -5 10 -6 0 -8 5 -5 10 3 6 13 10 21 10 11 0 14 -6 9 -22z m1045 -2 c0 -32
-14 -40 -31 -19 -10 12 -10 14 -1 9 8 -5 12 0 12 13 0 12 5 21 10 21 6 0 10
-11 10 -24z m-70 -7 c0 -6 -4 -7 -10 -4 -5 3 -10 11 -10 16 0 6 5 7 10 4 6 -3
10 -11 10 -16z m-1053 -16 c-4 -3 -7 0 -7 7 0 7 3 10 7 7 3 -4 3 -10 0 -14z
m1242 -47 c-1 -25 -3 -26 -6 -8 -4 23 -5 23 -20 5 -14 -17 -14 -17 -9 0 3 10
6 28 6 39 0 17 3 18 15 8 8 -7 14 -27 14 -44z m-147 1 c23 -20 38 -37 32 -37
-7 0 -15 -17 -19 -37 -8 -44 -22 -73 -35 -73 -9 0 -4 50 10 108 7 26 5 34 -10
42 -25 13 -33 13 -27 -2 2 -7 0 -23 -4 -35 -5 -13 -4 -25 1 -28 11 -7 2 -35
-11 -35 -5 0 -9 9 -9 20 0 11 -11 30 -25 42 l-24 21 27 26 c15 15 32 26 39 26
6 -1 31 -18 55 -38z m-1052 3 c0 -5 -4 -10 -9 -10 -6 0 -13 5 -16 10 -3 6 1
10 9 10 9 0 16 -4 16 -10z m70 6 c0 -3 -5 -8 -12 -12 -7 -4 -8 -3 -4 4 7 12
16 16 16 8z m1060 0 c0 -3 -4 -8 -10 -11 -5 -3 -10 -1 -10 4 0 6 5 11 10 11 6
0 10 -2 10 -4z m-524 -28 c4 -7 3 -8 -4 -4 -7 4 -12 2 -12 -5 0 -7 -3 -10 -6
-6 -6 5 3 27 11 27 2 0 7 -5 11 -12z m-606 -18 c0 -5 -4 -10 -10 -10 -5 0 -10
5 -10 10 0 6 5 10 10 10 6 0 10 -4 10 -10z m656 -17 c-3 -8 -6 -17 -6 -19 0
-2 -4 -4 -10 -4 -5 0 -9 11 -8 24 1 15 7 22 16 19 7 -3 11 -12 8 -20z m-466
-2 c0 -5 -7 -12 -16 -15 -14 -5 -15 -4 -4 9 14 17 20 19 20 6z m410 -1 c0 -5
-11 -10 -25 -10 -14 0 -25 5 -25 10 0 6 11 10 25 10 14 0 25 -4 25 -10z m-570
-25 c-12 -15 -30 -12 -30 6 0 5 10 9 21 9 18 0 19 -2 9 -15z m250 6 c0 -5 -9
-11 -21 -14 -16 -4 -18 -3 -8 9 13 16 29 19 29 5z m-190 -11 c0 -5 -8 -10 -17
-10 -15 0 -16 2 -3 10 19 12 20 12 20 0z m130 -5 c0 -8 -7 -15 -15 -15 -9 0
-12 6 -9 15 4 8 10 15 15 15 5 0 9 -7 9 -15z m-50 -5 c0 -5 -4 -10 -10 -10 -5
0 -10 5 -10 10 0 6 5 10 10 10 6 0 10 -4 10 -10z m365 0 c3 -5 1 -10 -4 -10
-6 0 -11 5 -11 10 0 6 2 10 4 10 3 0 8 -4 11 -10z m75 -15 c-7 -8 -17 -12 -22
-9 -6 4 -5 10 3 15 22 14 33 10 19 -6z m615 5 c3 -5 1 -10 -4 -10 -6 0 -11 5
-11 10 0 6 2 10 4 10 3 0 8 -4 11 -10z m-898 -22 c-3 -8 -6 -5 -6 6 -1 11 2
17 5 13 3 -3 4 -12 1 -19z m-80 -5 c-4 -3 -7 0 -7 7 0 7 3 10 7 7 3 -4 3 -10
0 -14z m-170 1 c-3 -3 -12 -4 -19 -1 -8 3 -5 6 6 6 11 1 17 -2 13 -5z m43 -4
c0 -5 -8 -10 -17 -10 -15 0 -16 2 -3 10 19 12 20 12 20 0z m100 -5 c0 -8 -9
-15 -20 -15 -22 0 -27 15 -7 23 21 9 27 7 27 -8z m180 -11 c0 -8 -4 -14 -10
-14 -5 0 -10 9 -10 21 0 11 5 17 10 14 6 -3 10 -13 10 -21z m-90 -5 c0 -5 -7
-9 -15 -9 -15 0 -20 12 -9 23 8 8 24 -1 24 -14z m947 -11 c-3 -7 -5 -2 -5 12
0 14 2 19 5 13 2 -7 2 -19 0 -25z m-1112 -13 c-16 -14 -39 -25 -50 -25 -15 1
-12 4 11 14 18 8 35 19 38 25 4 6 13 11 19 11 7 -1 -1 -12 -18 -25z m419 17
c3 -5 -6 -25 -20 -45 -14 -20 -20 -37 -14 -37 13 0 13 -37 0 -45 -5 -3 -7 -12
-3 -20 7 -21 -6 -67 -17 -60 -6 3 -10 17 -10 30 0 13 -6 25 -12 28 -10 3 -8 9
4 24 10 11 17 33 16 54 -1 40 8 62 23 54 5 -4 9 1 9 9 0 17 15 22 24 8z m-743
-12 c10 -6 19 -18 19 -26 0 -10 6 -13 18 -10 12 4 19 1 19 -8 0 -18 -30 -27
-48 -15 -8 5 -20 9 -28 9 -10 0 -11 -3 -2 -14 19 -23 -27 -33 -48 -11 -15 17
-15 17 2 12 9 -4 17 -2 17 3 0 8 -15 12 -92 26 -21 3 -38 10 -38 15 0 5 -28
10 -62 10 -50 1 -57 3 -33 9 46 12 254 11 276 0z m549 -16 c0 -8 -4 -14 -10
-14 -5 0 -10 9 -10 21 0 11 5 17 10 14 6 -3 10 -13 10 -21z m-150 -9 c0 -16
-27 -32 -36 -22 -7 6 17 36 29 37 4 0 7 -7 7 -15z m50 -11 c0 -8 -9 -14 -20
-14 -22 0 -26 10 -8 28 13 13 28 7 28 -14z m70 1 c0 -18 -5 -25 -18 -25 -28 0
-32 10 -14 31 22 26 32 24 32 -6z m-381 -38 c0 -21 -1 -21 -9 -2 -12 28 -12
37 0 30 6 -3 10 -16 9 -28z m459 11 c-2 -17 -11 -24 -30 -26 -16 -2 -28 1 -28
7 0 6 7 11 15 11 8 0 15 7 15 15 0 8 7 15 16 15 10 0 14 -7 12 -22z m-238 -18
c-8 -5 -17 -7 -19 -4 -3 3 1 9 9 14 8 5 17 7 19 4 3 -3 -1 -9 -9 -14z m110 10
c0 -6 -6 -13 -14 -16 -8 -3 -16 -14 -19 -25 -3 -10 -12 -19 -21 -19 -20 0 -21
16 -1 24 8 3 15 12 15 20 0 13 13 23 33 25 4 1 7 -4 7 -9z m184 -14 c9 -14 6
-22 -15 -39 -15 -12 -34 -35 -42 -52 l-16 -30 -1 27 c0 15 6 33 13 40 6 7 12
18 13 23 3 27 18 55 27 52 6 -2 15 -11 21 -21z m326 14 c0 -5 -4 -10 -9 -10
-6 0 -13 5 -16 10 -3 6 1 10 9 10 9 0 16 -4 16 -10z m-655 -11 c-7 -11 -35
-12 -35 -1 0 4 9 8 20 9 11 1 18 -2 15 -8z m187 -41 c-18 -18 -24 -20 -34 -10
-11 11 -8 17 12 32 34 26 52 8 22 -22z m-401 -31 c-13 -13 -15 11 -4 40 7 16
8 15 11 -6 2 -13 -1 -28 -7 -34z m647 23 c-3 -23 -1 -30 9 -26 7 3 13 1 13 -4
0 -6 -6 -10 -12 -10 -7 0 -2 -9 12 -20 24 -19 24 -20 4 -20 -12 0 -27 -7 -34
-15 -21 -25 -32 -17 -24 18 4 17 7 49 8 70 0 24 5 37 14 37 10 0 13 -9 10 -30z
m92 0 c0 -5 6 -10 14 -10 7 0 16 -9 19 -20 3 -13 0 -20 -8 -20 -23 0 -30 -42
-10 -56 16 -12 16 -16 4 -30 -8 -9 -13 -25 -11 -35 4 -21 -24 -79 -38 -79 -6
0 -8 11 -4 25 5 22 3 25 -22 26 -16 1 -32 1 -36 0 -5 0 -8 2 -8 5 0 11 25 30
57 43 32 13 51 40 35 50 -5 3 -8 18 -6 34 2 18 -2 27 -12 27 -15 0 -17 9 -8
34 7 17 34 22 34 6z m-650 -15 c0 -8 -4 -15 -10 -15 -5 0 -10 7 -10 15 0 8 5
15 10 15 6 0 10 -7 10 -15z m54 -34 c9 -11 8 -13 -4 -9 -8 2 -16 18 -17 34 -1
18 0 22 4 9 3 -11 10 -26 17 -34z m286 14 c-7 -8 -24 -15 -39 -15 l-26 1 30
24 c32 26 59 19 35 -10z m-74 -2 c-6 -6 -36 9 -36 18 0 5 9 4 20 -3 10 -7 18
-14 16 -15z m-467 -38 c0 -5 -6 1 -14 15 -8 14 -14 30 -14 35 0 6 6 -1 14 -15
8 -14 14 -29 14 -35z m670 -2 c0 -21 -3 -33 -5 -27 -3 7 -15 9 -27 6 -21 -5
-21 -4 -4 15 9 11 17 25 17 31 0 7 5 12 10 12 6 0 10 -17 9 -37z m-312 -3 c-1
-11 -7 -22 -14 -24 -9 -4 -10 0 -1 19 14 30 17 31 15 5z m-308 -38 c1 -7 -3
-10 -9 -7 -5 3 -10 18 -9 33 0 24 1 25 9 7 5 -11 9 -26 9 -33z m60 -19 c1 -7
-5 -13 -13 -13 -19 0 -33 23 -18 28 7 2 12 11 13 20 0 14 2 13 9 -3 5 -11 9
-26 9 -32z m292 4 c-16 -16 -25 -1 -10 16 8 8 16 11 18 5 2 -5 -2 -15 -8 -21z
m-230 -57 c5 0 12 7 15 15 9 22 26 7 19 -16 -4 -12 -2 -19 7 -20 7 0 2 -5 -12
-10 -16 -7 -26 -7 -28 0 -2 5 -10 7 -18 4 -9 -3 -14 1 -14 11 0 9 -7 19 -15
22 -19 8 -20 24 -1 24 8 0 18 10 23 23 7 19 8 17 11 -15 2 -21 8 -38 13 -38z
m617 58 c-2 -6 -10 -14 -16 -16 -7 -2 -10 2 -6 12 7 18 28 22 22 4z m-174 -23
c-4 -8 -10 -12 -15 -9 -11 6 -2 24 11 24 5 0 7 -7 4 -15z m77 -18 c-10 -9 -11
-8 -5 6 3 10 9 15 12 12 3 -3 0 -11 -7 -18z m-236 3 c3 -5 1 -10 -4 -10 -6 0
-11 5 -11 10 0 6 2 10 4 10 3 0 8 -4 11 -10z m725 -14 c0 -11 -19 -15 -25 -6
-3 5 1 10 9 10 9 0 16 -2 16 -4z m-44 -48 c-8 -48 -12 -56 -26 -42 -6 6 -5 23
2 47 16 51 32 48 24 -5z m-224 0 c-15 -15 -24 -6 -16 16 5 12 10 14 17 7 8 -8
8 -14 -1 -23z m-646 -4 c-4 -15 -3 -23 3 -20 12 8 41 -3 41 -16 0 -5 -4 -7 -9
-3 -5 3 -25 -2 -45 -11 -28 -14 -38 -15 -50 -5 -18 15 -10 41 13 41 9 0 22 9
29 20 17 28 25 25 18 -6z m491 19 c-4 -3 -10 -3 -14 0 -3 4 0 7 7 7 7 0 10 -3
7 -7z m-427 -13 c0 -5 -9 -10 -20 -10 -11 0 -20 5 -20 10 0 6 9 10 20 10 11 0
20 -4 20 -10z m620 -10 c0 -5 -5 -10 -11 -10 -5 0 -7 5 -4 10 3 6 8 10 11 10
2 0 4 -4 4 -10z m-623 -27 c-4 -3 -7 0 -7 7 0 7 3 10 7 7 3 -4 3 -10 0 -14z
m467 -18 c-4 -8 -8 -15 -10 -15 -2 0 -4 7 -4 15 0 8 4 15 10 15 5 0 7 -7 4
-15z m50 -3 c-6 -4 -14 -17 -18 -30 -6 -19 -46 -52 -46 -37 0 16 47 75 60 75
10 0 11 -3 4 -8z m76 -2 c0 -5 -10 -18 -22 -30 -12 -11 -18 -20 -13 -20 4 0 0
-9 -10 -20 -21 -23 -55 -29 -36 -6 6 7 10 20 8 27 -2 8 -2 11 0 7 3 -5 9 -8
14 -8 5 0 8 3 7 8 -3 8 33 50 45 51 4 1 7 -3 7 -9z m-595 -28 c-2 -3 -12 -1
-22 2 -15 6 -15 9 -3 16 13 8 35 -8 25 -18z m651 3 c11 -8 14 -15 7 -15 -7 0
-14 -8 -14 -17 -1 -17 -2 -17 -6 0 -3 13 -10 16 -25 11 -17 -5 -18 -3 -9 15
14 25 21 26 47 6z m571 -2 c-4 -3 -7 0 -7 7 0 7 3 10 7 7 3 -4 3 -10 0 -14z
m-1172 -3 c-3 -5 -10 -10 -16 -10 -5 0 -9 5 -9 10 0 6 7 10 16 10 8 0 12 -4 9
-10z m55 -10 c5 0 -2 -12 -15 -26 -14 -15 -22 -30 -19 -35 3 -5 0 -9 -7 -9 -7
0 -9 10 -7 24 5 23 2 24 -26 20 l-31 -5 35 19 c19 11 41 18 48 16 8 -2 18 -4
22 -4z m714 -8 c2 -4 -4 -13 -15 -20 -16 -11 -19 -9 -19 8 0 19 24 28 34 12z
m-660 -8 c9 -3 16 -11 16 -16 0 -6 -6 -8 -14 -5 -8 3 -17 -1 -20 -9 -3 -8 -2
-14 3 -14 4 0 20 -11 35 -25 32 -30 22 -33 -14 -5 -32 25 -50 25 -50 -1 0 -11
-4 -18 -9 -15 -14 9 -8 39 14 68 23 32 19 30 39 22z m72 -16 c10 -12 14 -18 7
-15 -6 4 -14 3 -18 -3 -3 -5 -16 -10 -28 -10 -22 1 -22 1 -2 16 11 8 19 20 18
25 -4 14 2 11 23 -13z m464 12 c0 -6 11 -8 25 -4 19 5 25 2 25 -10 0 -26 -4
-31 -22 -29 -11 2 -20 -6 -24 -21 -4 -17 -12 -23 -29 -22 -13 0 -23 6 -22 11
1 6 -7 8 -18 7 -28 -5 -30 -9 -14 -29 13 -16 12 -17 -4 -4 -26 20 -17 53 17
64 21 7 31 6 37 -4 6 -9 7 -2 3 19 -5 25 -3 32 10 32 9 0 16 -5 16 -10z m-413
-17 c-4 -3 -10 -3 -14 0 -3 4 0 7 7 7 7 0 10 -3 7 -7z m-250 -30 c-4 -3 -7 0
-7 7 0 7 3 10 7 7 3 -4 3 -10 0 -14z m260 0 c-4 -3 -7 0 -7 7 0 7 3 10 7 7 3
-4 3 -10 0 -14z m184 -21 c-6 -2 -11 -9 -11 -16 0 -6 -9 -12 -20 -13 -27 -2
-25 5 8 38 22 23 28 25 31 11 2 -9 -2 -18 -8 -20z m-201 18 c0 -5 -6 -7 -14
-4 -7 3 -21 -2 -30 -11 -17 -18 -19 -16 -10 9 7 17 54 23 54 6z m81 0 c21 -12
27 -45 7 -37 -7 2 -12 10 -10 16 3 13 -24 15 -33 2 -3 -5 -1 -12 5 -16 13 -8
13 -35 0 -35 -5 0 -10 6 -10 14 0 8 -8 17 -17 21 -16 6 -15 8 7 25 30 23 27
23 51 10z m209 1 c0 -5 -8 -11 -17 -13 -12 -2 -18 -13 -18 -33 0 -18 -5 -30
-13 -30 -8 0 -20 -8 -27 -18 -10 -13 -15 -15 -21 -6 -4 7 3 21 18 34 15 13 25
30 25 40 -1 10 6 19 16 21 11 1 21 5 25 8 8 9 12 7 12 -3z m240 1 c0 -15 -61
-70 -100 -91 -37 -19 -40 -19 -41 -3 0 15 -1 15 -7 1 -4 -9 -19 -16 -37 -16
-17 1 -42 -7 -56 -16 -25 -16 -59 -14 -59 3 0 4 14 13 30 20 17 7 30 17 30 22
0 5 8 4 19 -2 23 -12 47 -5 55 16 4 9 18 12 46 10 33 -3 44 1 59 20 10 13 26
24 35 24 9 0 16 5 16 10 0 6 2 10 5 10 3 0 5 -4 5 -8z m-230 -43 c0 -6 -4 -7
-10 -4 -5 3 -10 11 -10 16 0 6 5 7 10 4 6 -3 10 -11 10 -16z m-415 -9 c-3 -5
-13 -10 -21 -10 -8 0 -14 5 -14 10 0 6 9 10 21 10 11 0 17 -4 14 -10z m100
-10 c-10 -11 -22 -17 -26 -14 -15 9 -10 22 9 27 33 9 35 7 17 -13z m-228 -17
c-4 -3 -7 0 -7 7 0 7 3 10 7 7 3 -4 3 -10 0 -14z m173 -3 c0 -5 -7 -10 -16
-10 -8 0 -12 5 -9 10 3 6 10 10 16 10 5 0 9 -4 9 -10z m215 0 c-3 -5 -15 -10
-26 -10 -11 0 -17 5 -14 10 3 6 15 10 26 10 11 0 17 -4 14 -10z m729 -37 c-22
-45 -120 -101 -151 -88 -34 15 -48 14 -80 -6 -20 -13 -45 -19 -65 -17 l-33 4
30 13 c17 7 46 22 66 32 20 10 45 16 58 12 29 -7 115 32 153 71 37 36 45 28
22 -21z m-387 30 c-4 -3 -10 -3 -14 0 -3 4 0 7 7 7 7 0 10 -3 7 -7z m-459 -15
c-5 -13 -88 -40 -88 -28 0 7 65 38 83 39 5 1 7 -4 5 -11z m520 0 c-6 -18 -25
-21 -31 -5 -3 8 3 13 15 14 10 1 18 -3 16 -9z m-115 -25 c-7 -3 -13 -11 -13
-19 0 -12 8 -13 35 -8 23 4 35 2 35 -5 0 -13 -11 -18 -59 -25 -19 -3 -37 -8
-40 -13 -7 -9 -44 -28 -83 -42 -23 -9 -29 -7 -38 9 -14 26 -13 33 6 26 8 -3
34 -1 57 5 48 12 89 39 70 46 -13 5 -6 34 11 45 6 4 15 2 21 -4 7 -7 6 -12 -2
-15z m-263 -3 c-19 -12 -30 -12 -30 -1 0 10 31 20 40 14 2 -2 -2 -8 -10 -13z
m183 -35 c-10 -8 -29 -15 -42 -15 -26 0 -25 2 24 39 26 20 30 21 33 6 2 -9 -5
-23 -15 -30z m301 31 c-3 -8 -15 -17 -27 -21 -34 -11 -127 -11 -124 0 2 6 27
10 56 11 29 1 57 6 63 12 17 17 38 15 32 -2z m-524 -6 c0 -5 -5 -10 -11 -10
-5 0 -7 5 -4 10 3 6 8 10 11 10 2 0 4 -4 4 -10z m-90 -10 c0 -5 -20 -15 -45
-21 -32 -8 -45 -16 -43 -27 2 -10 -5 -18 -17 -20 -16 -3 -18 -1 -7 9 6 7 12
20 12 29 0 9 10 16 23 18 13 1 35 6 48 11 13 5 25 10 27 10 1 1 2 -3 2 -9z
m155 -10 c3 -5 -7 -12 -22 -16 -15 -4 -35 -12 -43 -18 -13 -10 -13 -9 0 9 26
35 52 45 65 25z m345 -44 c0 -20 -4 -22 -26 -18 l-27 5 24 18 c30 23 29 23 29
-5z m-320 -4 c0 -15 -24 -32 -47 -32 -31 0 -29 14 5 27 35 14 42 15 42 5z
m252 -14 c-9 -9 -15 -9 -24 0 -9 9 -7 12 12 12 19 0 21 -3 12 -12z m235 5 c-4
-3 -10 -3 -14 0 -3 4 0 7 7 7 7 0 10 -3 7 -7z m-741 -28 c-26 -19 -42 -19 -26
0 7 8 20 15 29 15 13 -1 13 -3 -3 -15z m532 -7 c-3 -7 -19 -23 -36 -34 -17
-12 -29 -24 -25 -27 3 -3 -7 -9 -21 -13 -35 -8 -45 2 -20 21 10 8 15 15 10 15
-5 0 6 11 25 24 37 26 73 34 67 14z m-598 -18 c0 -14 7 -20 21 -20 16 0 19 -4
14 -21 -7 -19 -6 -20 17 -6 12 8 38 15 57 15 35 1 69 -22 51 -33 -5 -3 -10 -1
-10 4 0 6 -5 11 -11 11 -5 0 -8 -4 -4 -9 9 -15 -13 -23 -34 -12 -14 8 -22 7
-31 -4 -18 -22 -8 -41 12 -21 11 10 19 12 23 6 4 -6 21 -8 38 -5 18 3 49 8 70
11 20 3 40 10 43 15 6 11 44 12 44 1 0 -4 -23 -16 -51 -27 -28 -11 -54 -26
-56 -32 -3 -7 -21 -13 -41 -13 l-35 0 21 -23 c12 -13 22 -32 22 -43 0 -10 6
-31 14 -45 12 -24 12 -26 -3 -22 -9 2 -22 17 -30 34 -11 25 -17 28 -39 23 -41
-10 -57 -25 -37 -37 10 -5 21 -4 31 4 12 10 18 9 31 -4 15 -15 14 -16 -10 -23
-40 -9 -77 3 -77 26 0 11 -4 20 -8 20 -5 0 -27 17 -50 38 -30 28 -42 47 -43
68 l-1 29 -9 -26 c-5 -14 -21 -31 -34 -37 -28 -13 -35 2 -9 16 11 6 15 17 12
30 -4 14 1 24 18 33 22 11 23 14 9 29 -14 16 -14 17 11 14 22 -2 25 1 21 17
-4 16 -3 18 8 9 11 -9 12 -7 8 9 -4 15 -1 21 11 21 9 0 16 -8 16 -20z m320 5
c0 -8 -7 -15 -15 -15 -8 0 -15 -3 -15 -8 0 -10 -71 -31 -87 -25 -14 5 -14 25
0 24 3 0 30 9 59 19 29 11 54 19 56 20 1 0 2 -7 2 -15z m157 -12 c-4 -3 -10
-3 -14 0 -3 4 0 7 7 7 7 0 10 -3 7 -7z m483 0 c-1 -25 -62 -69 -80 -58 -6 3
-20 -1 -32 -9 -12 -9 -19 -16 -14 -16 5 0 3 -7 -4 -15 -14 -17 -50 -20 -50 -5
0 6 7 10 16 10 11 0 13 6 9 19 -5 15 1 24 25 36 18 9 34 14 37 11 3 -3 22 4
41 15 39 20 52 23 52 12z m-585 -12 c-6 -5 -21 -12 -35 -16 -22 -7 -23 -6 -11
9 7 9 23 16 34 16 13 0 17 -4 12 -9z m242 -8 c-4 -3 -10 -3 -14 0 -3 4 0 7 7
7 7 0 10 -3 7 -7z m-193 -19 c9 -8 16 -22 16 -30 0 -16 16 -19 25 -4 3 5 13 6
21 3 9 -3 25 -6 37 -7 11 -1 23 -8 25 -16 4 -12 2 -13 -9 -3 -11 9 -19 8 -33
-3 -11 -8 -29 -14 -40 -14 -12 0 -34 -7 -50 -15 -16 -9 -33 -12 -40 -7 -21 16
-109 13 -128 -5 -10 -9 -21 -13 -26 -9 -10 11 28 36 57 37 14 1 47 2 73 3 56
3 62 7 54 40 -5 19 -11 24 -24 19 -15 -6 -15 -5 -3 10 17 21 25 21 45 1z m356
-12 c0 -4 -19 -23 -42 -44 -32 -28 -46 -35 -59 -27 -26 13 -61 11 -56 -3 2 -7
15 -11 28 -10 18 3 21 1 13 -8 -12 -12 -84 -4 -84 10 0 4 -12 6 -27 4 l-28 -3
28 25 c16 13 34 21 40 17 32 -19 141 10 153 42 5 13 34 10 34 -3z m525 -42
c-12 -14 -12 -17 5 -28 32 -20 23 -30 -21 -22 -39 7 -89 40 -61 40 8 0 10 5 6
13 -6 8 -3 8 9 -2 14 -11 20 -10 39 12 15 17 25 22 30 14 4 -6 1 -19 -7 -27z
m-785 -50 c0 -6 -14 -19 -32 -29 -32 -20 -71 -25 -170 -20 -10 0 -30 -11 -45
-25 -16 -15 -34 -24 -41 -21 -8 3 -20 5 -28 5 -9 0 -12 5 -9 11 4 5 17 9 28 8
39 -3 45 1 40 20 -5 22 26 44 44 33 17 -11 131 -6 145 6 11 9 35 17 61 21 4 0
7 -4 7 -9z m200 -10 c0 -5 -8 -10 -17 -10 -15 0 -16 2 -3 10 19 12 20 12 20 0z
m27 3 c-4 -3 -10 -3 -14 0 -3 4 0 7 7 7 7 0 10 -3 7 -7z m507 -4 c-4 -7 -8
-21 -9 -33 -1 -11 -3 -24 -4 -28 -2 -11 -62 -40 -69 -34 -3 3 4 16 14 29 11
12 28 34 37 50 10 15 22 27 28 27 6 0 7 -5 3 -11z m186 -25 c0 -14 -34 -37
-43 -28 -2 3 0 18 6 34 8 22 14 27 24 18 7 -6 13 -16 13 -24z m-850 14 c-1
-20 -98 -64 -111 -51 -8 8 4 18 42 37 61 29 69 31 69 14z m150 -23 c-9 -8 -31
-17 -50 -20 -19 -3 -30 -3 -23 1 7 3 10 11 7 18 -3 9 8 13 38 14 37 2 41 0 28
-13z m306 -1 c-3 -8 -2 -12 4 -9 9 6 50 -15 50 -26 0 -8 -33 -5 -49 5 -9 6
-17 3 -23 -8 -6 -10 -22 -16 -48 -16 -22 0 -40 -3 -40 -7 0 -7 -11 -15 -94
-66 -22 -14 -39 -17 -65 -12 l-36 7 50 18 c76 26 145 60 145 70 0 6 5 10 11
10 6 0 24 11 41 25 34 28 63 34 54 9z m273 -46 c1 -11 -9 -20 -24 -24 -13 -3
-29 -12 -36 -20 -6 -8 -18 -14 -25 -14 -8 0 2 16 21 36 19 20 38 48 42 62 l7
27 7 -25 c4 -14 7 -33 8 -42z m198 30 c27 -25 29 -38 8 -38 -8 0 -15 -4 -15
-10 0 -11 -33 -14 -43 -3 -4 3 0 17 8 30 9 13 13 28 10 33 -11 18 8 11 32 -12z
m-372 -30 c-7 -39 -19 -48 -62 -48 -38 0 -44 15 -10 26 12 4 32 17 44 30 29
32 34 30 28 -8z m235 -21 c0 -11 -9 -21 -19 -24 -11 -3 -22 -11 -25 -19 -3 -8
-13 -14 -22 -14 -15 0 -16 2 -2 18 9 9 23 32 33 51 13 26 19 31 26 20 5 -8 9
-22 9 -32z m-1365 23 c3 -5 1 -10 -4 -10 -6 0 -11 5 -11 10 0 6 2 10 4 10 3 0
8 -4 11 -10z m1415 -11 c0 -5 -7 -9 -15 -9 -8 0 -15 7 -15 15 0 9 6 12 15 9 8
-4 15 -10 15 -15z m-1147 -19 c-19 -22 -29 -19 -20 5 4 8 13 15 22 15 13 0 12
-3 -2 -20z m-463 0 c0 -5 -4 -10 -10 -10 -5 0 -10 5 -10 10 0 6 5 10 10 10 6
0 10 -4 10 -10z m410 -10 c0 -5 -5 -10 -11 -10 -5 0 -7 5 -4 10 3 6 8 10 11
10 2 0 4 -4 4 -10z m1200 -9 c0 -29 -27 -75 -34 -59 -4 10 -7 10 -12 1 -3 -7
-12 -9 -20 -6 -19 7 -18 23 1 23 9 0 18 8 22 18 15 41 43 57 43 23z m-433 -8
c-8 -10 -15 -22 -15 -28 1 -17 -45 -35 -87 -34 -27 1 -34 3 -20 8 32 10 103
50 110 61 3 5 11 10 17 10 6 0 4 -8 -5 -17z m193 13 c0 -2 -7 -7 -16 -10 -8
-3 -12 -2 -9 4 6 10 25 14 25 6z m-1326 -33 c25 -25 26 -28 11 -39 -22 -16
-42 -8 -49 19 -14 54 -2 60 38 20z m1246 11 c0 -3 -13 -10 -30 -15 -19 -7 -30
-18 -30 -30 0 -24 -36 -42 -82 -41 -31 2 -44 -5 -78 -39 -40 -40 -78 -50 -88
-21 -2 7 2 10 12 6 10 -4 27 6 46 25 17 16 46 33 64 37 19 3 63 23 97 45 59
36 89 47 89 33z m-938 -16 c-11 -10 -64 -18 -75 -11 -6 4 -2 9 9 13 24 9 76 8
66 -2z m1088 2 c0 -5 -3 -10 -7 -11 -5 0 -21 -2 -38 -4 -28 -4 -29 -3 -11 11
23 16 56 19 56 4z m-710 -7 c0 -11 -58 -43 -78 -44 -13 0 -13 -2 3 -8 19 -8
19 -8 -2 -15 -13 -4 -23 -12 -23 -17 0 -13 -26 -11 -66 6 -41 17 -38 37 4 26
36 -10 51 -4 45 18 -4 15 4 20 44 29 63 13 73 13 73 5z m616 -19 c-3 -9 -6
-20 -6 -25 0 -13 -80 -51 -96 -45 -22 8 -17 20 15 34 16 7 39 22 51 32 28 24
44 26 36 4z m-1229 -41 c-3 -19 0 -27 14 -30 15 -4 17 -9 8 -25 -8 -16 -8 -23
2 -29 16 -10 14 -10 -43 -11 -26 -1 -45 -6 -48 -14 -3 -9 -10 -10 -19 -4 -12
7 -12 11 -2 24 7 9 17 13 22 11 4 -3 7 3 7 12 -2 33 13 94 22 88 5 -3 11 -1
15 5 11 18 27 -1 22 -27z m823 22 c-14 -8 -47 -14 -74 -15 -27 0 -64 -5 -82
-12 -18 -6 -39 -8 -50 -3 -17 8 -16 9 6 12 14 2 34 8 45 13 19 9 46 12 140 17
39 2 40 2 15 -12z m80 -5 c-6 -11 -15 -20 -20 -20 -4 0 -17 -3 -27 -7 -16 -6
-17 -5 -3 11 11 15 39 31 58 35 1 1 -2 -8 -8 -19z m460 -20 c-37 -36 -60 -49
-60 -35 0 7 33 39 60 58 43 30 43 18 0 -23z m150 30 c0 -5 -7 -7 -15 -4 -8 4
-15 8 -15 10 0 2 7 4 15 4 8 0 15 -4 15 -10z m204 -5 c-4 -8 -10 -12 -15 -9
-11 6 -2 24 11 24 5 0 7 -7 4 -15z m76 -14 c0 -15 -31 -42 -41 -35 -13 8 8 44
26 44 8 0 15 -4 15 -9z m-1857 -22 c-4 -13 -12 -19 -26 -17 -27 4 -33 25 -10
31 36 9 41 7 36 -14z m1351 -8 c-9 -19 -28 -34 -49 -41 -22 -7 -32 -16 -29
-25 6 -16 -48 -48 -73 -43 -28 6 118 137 154 138 8 0 7 -9 -3 -29z m263 22
c-4 -3 -10 -3 -14 0 -3 4 0 7 7 7 7 0 10 -3 7 -7z m-787 -33 c-14 -11 -32 -20
-41 -20 -9 0 -22 -7 -29 -15 -11 -13 -50 -22 -50 -11 0 2 -3 11 -6 20 -5 12 0
16 17 16 13 0 42 7 64 15 58 20 75 19 45 -5z m680 2 c0 -13 -85 -73 -88 -63
-4 12 22 40 52 57 26 15 36 16 36 6z m-410 -31 c-6 -12 -8 -26 -5 -31 4 -6 3
-10 -2 -8 -4 1 -26 -4 -48 -10 -51 -15 -93 -15 -52 0 15 5 27 14 27 19 0 5 5
9 11 9 6 0 25 11 41 25 34 29 45 27 28 -4z m110 14 c0 -3 -11 -18 -25 -33 -18
-19 -28 -23 -36 -15 -16 16 11 53 38 53 13 0 23 -2 23 -5z m-597 -67 c-15 -30
-33 -46 -33 -29 0 6 -11 13 -25 17 -15 4 -25 13 -25 24 0 16 5 17 30 10 24 -7
30 -5 35 11 5 14 9 16 19 7 10 -10 10 -17 -1 -40z m307 42 c0 -5 -4 -10 -9
-10 -5 0 -16 -6 -23 -13 -16 -16 -97 -47 -122 -47 -28 0 0 21 69 53 64 29 85
33 85 17z m642 -6 c-12 -21 -94 -74 -104 -68 -18 11 62 71 110 83 2 1 -1 -6
-6 -15z m221 9 c-7 -2 -13 -18 -13 -34 0 -16 -4 -29 -10 -29 -5 0 -10 10 -10
23 0 25 17 48 35 46 5 0 4 -3 -2 -6z m87 -58 c-6 -8 -9 -24 -6 -37 3 -13 3
-18 0 -11 -3 7 -14 3 -31 -13 -32 -30 -39 -30 -46 -3 -4 16 2 29 24 48 16 14
29 31 29 38 0 7 7 10 15 7 9 -4 15 0 16 7 1 8 3 6 6 -4 3 -10 -1 -24 -7 -32z
m-1400 25 c0 -6 11 -8 25 -4 15 4 25 2 25 -4 0 -15 -60 -26 -72 -14 -11 11 -3
32 13 32 5 0 9 -5 9 -10z m1340 -5 c7 -9 8 -15 2 -15 -5 0 -12 7 -16 15 -3 8
-4 15 -2 15 2 0 9 -7 16 -15z m-415 -5 c-3 -5 -13 -10 -21 -10 -8 0 -12 5 -9
10 3 6 13 10 21 10 8 0 12 -4 9 -10z m215 2 c0 -22 -77 -72 -111 -72 -11 0 61
65 81 73 22 8 30 8 30 -1z m-700 -31 c0 -17 -4 -33 -10 -36 -5 -3 -10 -19 -10
-34 0 -35 -8 -43 -31 -31 -13 8 -19 6 -22 -8 -4 -14 -6 -13 -12 6 -7 20 -12
22 -57 18 -35 -3 -48 -1 -45 7 5 15 90 33 95 19 7 -22 53 14 64 51 13 44 28
49 28 8z m-710 -2 c0 -5 10 -9 22 -9 40 0 -2 -28 -52 -35 l-45 -6 33 15 c38
18 42 29 7 20 -18 -4 -25 -2 -25 8 0 8 2 17 5 20 8 8 55 -3 55 -13z m980 14
c0 -15 -61 -73 -93 -90 -31 -16 -32 -16 -17 3 8 10 21 25 28 33 7 8 20 24 29
37 14 22 53 34 53 17z m-195 -36 c-13 -19 -13 -24 1 -45 12 -18 13 -31 7 -46
-5 -11 -8 -35 -6 -52 2 -27 0 -30 -25 -30 -22 1 -26 -3 -24 -20 4 -30 -21 -48
-47 -34 -23 12 -28 30 -8 30 6 0 25 11 41 25 16 14 34 25 40 26 6 0 -2 6 -18
14 -24 10 -35 10 -62 -1 -18 -8 -40 -11 -50 -7 -14 5 -13 8 7 19 13 7 27 10
31 8 5 -3 8 2 8 11 0 11 8 15 29 13 18 -1 38 6 50 17 20 17 20 20 5 36 -15 16
-14 20 3 42 22 30 39 25 18 -6z m70 23 c3 -5 1 -10 -4 -10 -6 0 -11 5 -11 10
0 6 2 10 4 10 3 0 8 -4 11 -10z m-406 -18 c-40 -30 -77 -42 -101 -34 -27 10
-34 9 -70 -6 -16 -7 -39 -16 -53 -22 -37 -14 -32 -33 8 -27 90 15 117 18 117
12 0 -3 -19 -15 -42 -25 -52 -24 -127 -26 -154 -5 -18 15 -18 15 0 13 10 -2
21 2 23 9 2 6 -5 13 -17 15 -37 6 -22 23 26 30 26 4 52 12 57 17 6 6 38 11 72
12 33 0 78 6 100 14 56 18 61 18 34 -3z m621 13 c0 -22 -119 -125 -145 -125
-14 0 83 108 105 117 30 13 40 15 40 8z m685 -35 c-4 -17 -9 -29 -12 -26 -7 7
-43 -33 -43 -46 0 -5 -4 -6 -10 -3 -5 3 -10 18 -10 33 1 20 11 34 38 53 20 14
39 25 40 23 2 -1 1 -17 -3 -34z m-918 13 c-4 -3 -10 -3 -14 0 -3 4 0 7 7 7 7
0 10 -3 7 -7z m217 -100 c-60 -55 -94 -76 -94 -58 0 3 35 40 77 83 64 63 78
74 81 57 3 -14 -15 -37 -64 -82z m-617 60 c-4 -3 -7 0 -7 7 0 7 3 10 7 7 3 -4
3 -10 0 -14z m1330 0 c-4 -3 -7 0 -7 7 0 7 3 10 7 7 3 -4 3 -10 0 -14z m-1827
-3 c0 -5 -4 -10 -10 -10 -5 0 -10 5 -10 10 0 6 5 10 10 10 6 0 10 -4 10 -10z
m1727 -7 c-4 -3 -7 0 -7 7 0 7 3 10 7 7 3 -4 3 -10 0 -14z m-1641 -30 c-39
-21 -126 -19 -105 2 8 7 113 22 123 17 5 -3 -3 -11 -18 -19z m78 21 c25 -10
19 -22 -9 -16 -14 2 -22 8 -19 13 6 11 8 11 28 3z m1526 -3 c0 -5 -9 -7 -20
-4 -11 3 -20 7 -20 9 0 2 9 4 20 4 11 0 20 -4 20 -9z m-1785 -11 c3 -5 1 -10
-4 -10 -6 0 -11 5 -11 10 0 6 2 10 4 10 3 0 8 -4 11 -10z m45 6 c0 -2 -7 -7
-16 -10 -8 -3 -12 -2 -9 4 6 10 25 14 25 6z m656 -18 c4 -7 4 -10 -1 -6 -4 4
-15 2 -23 -4 -17 -15 -62 -19 -62 -6 0 5 -5 6 -12 2 -6 -4 -8 -3 -5 3 3 5 23
10 43 11 20 1 39 4 42 7 8 7 10 6 18 -7z m-816 -12 c0 -7 -8 -20 -17 -27 -15
-12 -16 -12 -10 4 4 10 7 23 7 28 0 5 5 9 10 9 6 0 10 -6 10 -14z m700 4 c0
-5 -2 -10 -4 -10 -3 0 -8 5 -11 10 -3 6 -1 10 4 10 6 0 11 -4 11 -10z m420
-15 c0 -16 -6 -25 -15 -25 -18 0 -18 5 -5 31 14 26 20 24 20 -6z m842 -9 c10
-19 10 -20 -6 -7 -9 8 -19 11 -22 8 -6 -6 -34 16 -34 26 0 14 52 -9 62 -27z
m-1587 -12 c-22 -17 -41 -18 -50 -4 -4 6 -11 8 -16 5 -5 -4 -9 -2 -9 4 0 12
27 18 64 12 28 -4 28 -5 11 -17z m1612 4 c-3 -8 -6 -5 -6 6 -1 11 2 17 5 13 3
-3 4 -12 1 -19z m-1727 -7 c0 -4 -6 -8 -12 -8 -7 -1 -28 -4 -45 -8 -28 -6 -33
-5 -33 11 0 16 6 19 45 16 25 -2 45 -7 45 -11z m1360 11 c0 -5 -9 -17 -20 -27
-19 -18 -20 -17 -20 2 0 11 3 23 7 26 9 10 33 9 33 -1z m-1485 -22 c-31 -20
-65 -27 -65 -12 0 5 17 13 38 19 56 16 60 15 27 -7z m164 -6 c3 -16 1 -17 -13
-5 -19 16 -21 34 -3 29 6 -3 14 -13 16 -24z m351 18 c0 -13 -36 -30 -76 -37
-71 -11 -84 -15 -84 -25 0 -14 27 -12 33 3 3 6 6 0 6 -15 1 -27 21 -41 21 -15
0 13 85 47 118 47 26 0 -10 -31 -61 -53 l-42 -18 45 6 c25 3 55 13 67 21 12 7
39 14 60 13 l38 -1 -60 -27 c-36 -17 -85 -30 -124 -34 -37 -3 -67 -11 -72 -19
-7 -10 -13 -8 -31 10 l-22 22 27 0 c34 0 36 17 3 26 -14 3 -32 17 -41 30 -14
22 -14 26 -1 39 8 8 32 15 53 15 21 0 56 4 78 9 53 12 65 12 65 3z m-333 -19
c-4 -3 -7 0 -7 7 0 7 3 10 7 7 3 -4 3 -10 0 -14z m128 -4 c-4 -5 -11 -9 -16
-9 -6 0 -27 -8 -48 -19 -27 -13 -44 -15 -56 -9 -9 6 -25 8 -36 5 -10 -3 -17
-1 -13 4 3 5 16 9 30 9 14 0 35 5 47 12 46 24 105 29 92 7z m292 5 c-3 -3 -12
-4 -19 -1 -8 3 -5 6 6 6 11 1 17 -2 13 -5z m963 -1 c0 -7 -105 -104 -127 -116
-30 -18 -20 1 33 61 32 35 64 62 75 62 10 0 19 -3 19 -7z m-772 -20 c2 -8 -5
-13 -17 -13 -12 0 -21 -5 -21 -10 0 -6 -8 -5 -19 2 -22 13 -18 30 4 21 8 -3
15 0 15 7 0 15 32 9 38 -7z m642 6 c0 -15 -89 -117 -109 -124 -9 -3 -2 9 15
27 16 18 41 50 55 70 24 38 39 48 39 27z m-1316 -14 c3 -8 2 -14 -2 -14 -19 3
-32 -2 -32 -13 0 -8 -17 -14 -46 -16 -59 -3 -56 21 5 29 23 3 47 11 53 17 15
15 15 15 22 -3z m956 5 c0 -5 -2 -10 -4 -10 -3 0 -8 5 -11 10 -3 6 -1 10 4 10
6 0 11 -4 11 -10z m-25 -10 c3 -5 1 -10 -4 -10 -6 0 -11 5 -11 10 0 6 2 10 4
10 3 0 8 -4 11 -10z m-879 -39 c-32 -19 -34 -36 -3 -27 37 10 107 19 107 13 0
-3 -27 -14 -60 -25 -42 -15 -60 -17 -61 -9 0 9 -2 9 -5 0 -3 -7 -12 -9 -20 -6
-8 3 -14 1 -14 -3 0 -5 -16 -9 -35 -9 -21 0 -35 5 -35 13 0 6 8 12 19 12 10 0
24 7 31 15 7 8 16 12 21 9 5 -3 9 -1 9 5 0 13 52 41 64 34 5 -3 -3 -13 -18
-22z m534 5 c0 -3 -4 -8 -10 -11 -5 -3 -10 -1 -10 4 0 6 5 11 10 11 6 0 10 -2
10 -4z m604 -26 c-26 -28 -93 -70 -110 -70 -17 0 45 54 86 76 58 30 59 30 24
-6z m-624 -14 c0 -6 -110 -56 -124 -56 -8 0 -16 -6 -19 -12 -5 -18 -130 -16
-152 2 -8 7 -14 15 -12 17 3 2 37 6 76 9 40 3 100 14 134 24 60 18 97 24 97
16z m93 -16 c-10 -11 -23 -20 -31 -20 -7 0 -28 -11 -46 -25 -33 -25 -115 -37
-101 -15 3 5 14 10 24 10 10 0 30 10 45 21 23 18 91 46 118 48 4 1 0 -8 -9
-19z m-468 -9 c-8 -14 -25 -14 -25 0 0 5 5 7 10 4 6 -3 10 -1 10 6 0 7 3 10 6
6 3 -3 3 -10 -1 -16z m522 12 c-4 -3 -10 -3 -14 0 -3 4 0 7 7 7 7 0 10 -3 7
-7z m-563 -18 c-4 -8 -14 -15 -23 -15 -14 1 -13 3 3 15 25 19 27 19 20 0z m85
-31 c-15 -19 -43 -18 -60 2 -12 15 -11 16 6 11 11 -4 27 -2 35 3 20 12 34 1
19 -16z m-204 6 c3 -5 1 -10 -4 -10 -6 0 -11 5 -11 10 0 6 2 10 4 10 3 0 8 -4
11 -10z m1661 -15 c-19 -15 -46 -20 -46 -10 0 6 40 24 55 24 6 0 1 -6 -9 -14z
m-616 1 c0 -3 -5 -8 -12 -12 -7 -4 -8 -3 -4 4 7 12 16 16 16 8z"/>
<path d="M1553 1213 c4 -3 10 -3 14 0 3 4 0 7 -7 7 -7 0 -10 -3 -7 -7z"/>
<path d="M993 879 c-10 -10 -7 -15 18 -26 21 -9 29 -18 25 -28 -3 -8 -1 -15 4
-15 13 0 13 41 0 60 -8 13 -11 13 -19 1 -7 -11 -10 -11 -12 3 -3 14 -6 15 -16
5z"/>
<path d="M1060 785 c0 -8 7 -15 15 -15 9 0 12 6 9 15 -4 8 -10 15 -15 15 -5 0
-9 -7 -9 -15z"/>
<path d="M1103 773 c4 -3 10 -3 14 0 3 4 0 7 -7 7 -7 0 -10 -3 -7 -7z"/>
<path d="M1043 713 c4 -3 10 -3 14 0 3 4 0 7 -7 7 -7 0 -10 -3 -7 -7z"/>
<path d="M930 520 c0 -7 3 -10 7 -7 3 4 3 10 0 14 -4 3 -7 0 -7 -7z"/>
<path d="M930 460 c0 -5 5 -10 10 -10 6 0 10 5 10 10 0 6 -4 10 -10 10 -5 0
-10 -4 -10 -10z"/>
<path d="M1068 2383 c6 -2 18 -2 25 0 6 3 1 5 -13 5 -14 0 -19 -2 -12 -5z"/>
<path d="M1150 2375 c7 -8 22 -15 34 -15 18 0 17 2 -8 15 -36 19 -42 19 -26 0z"/>
<path d="M854 2351 c3 -5 -1 -12 -10 -15 -9 -4 -14 -9 -11 -12 6 -7 47 18 47
28 0 5 -7 8 -16 8 -8 0 -13 -4 -10 -9z"/>
<path d="M361 2126 c-16 -19 -11 -29 8 -17 7 5 12 14 9 21 -3 9 -8 7 -17 -4z"/>
<path d="M488 2120 c-7 -24 -3 -38 8 -28 3 4 4 17 2 30 l-3 23 -7 -25z"/>
<path d="M1154 2118 c-4 -7 -3 -8 4 -4 12 7 16 16 8 16 -3 0 -8 -5 -12 -12z"/>
<path d="M1367 2088 c4 -27 -2 -36 -44 -65 -39 -28 -47 -29 -40 -4 4 17 1 18
-29 9 -42 -11 -54 -5 -49 25 4 20 3 21 -9 5 -19 -26 -26 -22 -26 12 0 35 -13
39 -34 8 -15 -21 -14 -23 24 -45 22 -13 40 -32 40 -41 0 -15 2 -15 10 -2 8 13
11 12 24 -5 8 -11 13 -22 11 -26 -2 -3 6 -5 17 -4 12 1 26 11 31 22 10 22 47
38 47 21 0 -6 -10 -19 -22 -29 -11 -11 -17 -19 -12 -20 5 0 0 -4 -11 -9 -19
-8 -19 -9 3 -9 12 -1 22 4 22 9 0 6 18 18 40 27 45 20 51 33 18 34 l-23 0 23
16 c24 17 30 61 10 81 -18 18 -26 14 -21 -10z"/>
<path d="M320 2081 c0 -6 5 -13 10 -16 6 -3 10 1 10 9 0 9 -4 16 -10 16 -5 0
-10 -4 -10 -9z"/>
<path d="M1594 2038 c-4 -7 -3 -8 4 -4 12 7 16 16 8 16 -3 0 -8 -5 -12 -12z"/>
<path d="M1023 2029 c-33 -10 -73 -51 -73 -76 0 -26 42 -75 76 -89 67 -28 145
-6 163 47 6 18 6 29 0 29 -5 0 -9 6 -9 13 0 9 -12 14 -31 15 -17 0 -33 3 -36
6 -10 9 8 26 20 19 18 -11 57 -15 57 -5 0 29 -113 57 -167 41z"/>
<path d="M1600 1958 c0 -9 5 -20 11 -23 17 -11 20 0 4 21 -13 17 -14 17 -15 2z"/>
<path d="M1383 1953 c4 -3 10 -3 14 0 3 4 0 7 -7 7 -7 0 -10 -3 -7 -7z"/>
<path d="M1250 1930 c0 -5 5 -10 10 -10 6 0 10 5 10 10 0 6 -4 10 -10 10 -5 0
-10 -4 -10 -10z"/>
<path d="M1453 1873 c4 -3 10 -3 14 0 3 4 0 7 -7 7 -7 0 -10 -3 -7 -7z"/>
<path d="M1425 1840 c3 -5 11 -10 16 -10 6 0 7 5 4 10 -3 6 -11 10 -16 10 -6
0 -7 -4 -4 -10z"/>
<path d="M1610 1804 c0 -8 5 -12 10 -9 6 3 10 10 10 16 0 5 -4 9 -10 9 -5 0
-10 -7 -10 -16z"/>
<path d="M1860 1761 c0 -5 5 -13 10 -16 6 -3 10 -2 10 4 0 5 -4 13 -10 16 -5
3 -10 2 -10 -4z"/>
<path d="M1384 1714 c9 -8 16 -20 16 -25 0 -5 7 -9 15 -9 9 0 12 6 8 18 -8 20
-23 32 -41 32 -10 0 -9 -4 2 -16z"/>
<path d="M1805 1720 c3 -5 8 -10 11 -10 3 0 2 5 -1 10 -3 6 -8 10 -11 10 -3 0
-2 -4 1 -10z"/>
<path d="M1666 1691 c-4 -5 -2 -12 3 -15 5 -4 12 -2 15 3 4 5 2 12 -3 15 -5 4
-12 2 -15 -3z"/>
<path d="M1726 1685 c-4 -12 -1 -16 11 -13 18 3 21 20 5 26 -5 1 -12 -4 -16
-13z"/>
<path d="M1593 1663 c4 -3 10 -3 14 0 3 4 0 7 -7 7 -7 0 -10 -3 -7 -7z"/>
<path d="M1683 1649 c9 -6 14 -16 11 -22 -5 -8 -2 -7 7 1 12 11 12 14 -1 22
-8 5 -19 10 -25 10 -5 -1 -2 -5 8 -11z"/>
<path d="M1603 1636 c3 -7 1 -18 -5 -24 -12 -12 7 -27 22 -17 17 10 12 55 -6
55 -10 0 -14 -6 -11 -14z"/>
<path d="M1735 1640 c-3 -5 -1 -10 4 -10 6 0 11 5 11 10 0 6 -2 10 -4 10 -3 0
-8 -4 -11 -10z"/>
<path d="M1840 1629 c0 -5 5 -7 10 -4 6 3 10 8 10 11 0 2 -4 4 -10 4 -5 0 -10
-5 -10 -11z"/>
<path d="M1787 1623 c-14 -13 -6 -33 13 -33 22 0 23 1 14 24 -7 17 -16 20 -27
9z"/>
<path d="M1585 1572 c-3 -8 -3 -17 0 -20 3 -3 5 -1 5 5 0 6 9 9 20 6 11 -3 20
-1 20 5 0 17 -38 21 -45 4z"/>
<path d="M1850 1566 c0 -22 17 -28 24 -10 9 22 8 24 -9 24 -8 0 -15 -6 -15
-14z"/>
<path d="M1531 1538 c0 -14 -4 -33 -7 -42 -3 -9 -1 -16 5 -16 6 0 11 7 11 15
0 8 6 15 13 15 8 0 9 2 1 8 -7 4 -14 16 -17 27 -4 16 -5 14 -6 -7z"/>
<path d="M1610 1520 c0 -5 5 -10 10 -10 6 0 10 5 10 10 0 6 -4 10 -10 10 -5 0
-10 -4 -10 -10z"/>
<path d="M1610 1490 c-13 -8 -12 -10 3 -10 9 0 17 5 17 10 0 12 -1 12 -20 0z"/>
<path d="M1831 1484 c0 -11 3 -14 6 -6 3 7 2 16 -1 19 -3 4 -6 -2 -5 -13z"/>
<path d="M1755 1470 c3 -5 10 -10 16 -10 5 0 9 5 9 10 0 6 -7 10 -16 10 -8 0
-12 -4 -9 -10z"/>
<path d="M1600 1461 c0 -12 26 -32 33 -25 9 10 -4 34 -19 34 -8 0 -14 -4 -14
-9z"/>
<path d="M1575 1440 c3 -5 8 -10 11 -10 3 0 2 5 -1 10 -3 6 -8 10 -11 10 -3 0
-2 -4 1 -10z"/>
<path d="M1530 1410 c0 -32 14 -40 24 -14 9 24 7 31 -9 38 -11 4 -15 -2 -15
-24z"/>
<path d="M1500 1369 c0 -5 5 -7 10 -4 6 3 10 8 10 11 0 2 -4 4 -10 4 -5 0 -10
-5 -10 -11z"/>
<path d="M1970 1370 c0 -7 3 -10 7 -7 3 4 3 10 0 14 -4 3 -7 0 -7 -7z"/>
<path d="M1893 1236 c-24 -12 -43 -24 -43 -27 0 -4 14 -9 31 -11 21 -3 33 0
36 9 3 8 15 18 25 22 16 6 17 9 6 17 -9 7 -25 4 -55 -10z"/>
<path d="M2170 1110 c0 -7 3 -10 7 -7 3 4 3 10 0 14 -4 3 -7 0 -7 -7z"/>
<path d="M2211 1031 c-14 -9 -7 -51 10 -51 5 0 9 -8 9 -17 0 -15 2 -16 10 -3
9 14 4 58 -9 72 -3 4 -12 3 -20 -1z"/>
<path d="M2176 1017 c3 -10 9 -15 12 -12 3 3 0 11 -7 18 -10 9 -11 8 -5 -6z"/>
<path d="M2146 854 c-9 -24 -2 -26 12 -4 7 11 8 20 3 20 -5 0 -12 -7 -15 -16z"/>
<path d="M2101 796 c-19 -10 -20 -14 -8 -19 9 -3 21 1 27 8 7 8 17 12 23 8 6
-3 7 -1 3 5 -9 15 -15 15 -45 -2z"/>
<path d="M1305 570 c-3 -6 1 -7 9 -4 18 7 21 14 7 14 -6 0 -13 -4 -16 -10z"/>
<path d="M1195 391 c-3 -5 -1 -12 5 -16 5 -3 10 1 10 9 0 18 -6 21 -15 7z"/>
<path d="M2890 241 c0 -5 -8 -11 -17 -13 -16 -3 -16 -4 -1 -10 10 -4 23 1 34
13 16 17 16 19 1 19 -10 0 -17 -4 -17 -9z"/>
<path d="M2975 230 c-3 -5 1 -10 10 -10 9 0 13 5 10 10 -3 6 -8 10 -10 10 -2
0 -7 -4 -10 -10z"/>
<path d="M2555 64 c-47 -25 -72 -64 -40 -64 27 0 94 51 88 66 -6 17 -10 17
-48 -2z"/>
<path d="M1930 25 c-11 -13 -8 -15 19 -15 33 0 42 14 15 24 -21 8 -20 8 -34
-9z"/>
<path d="M1853 13 c9 -2 23 -2 30 0 6 3 -1 5 -18 5 -16 0 -22 -2 -12 -5z"/>
</g>
</svg>
