<?xml version="1.0" standalone="no"?>
<!DOCTYPE svg PUBLIC "-//W3C//DTD SVG 20010904//EN"
 "http://www.w3.org/TR/2001/REC-SVG-20010904/DTD/svg10.dtd">
<svg version="1.0" xmlns="http://www.w3.org/2000/svg"
 width="220.000000pt" height="183.000000pt" viewBox="0 0 220.000000 183.000000"
 preserveAspectRatio="xMidYMid meet">
<metadata>
Created by potrace 1.10, written by Peter Selinger 2001-2011
</metadata>
<g transform="translate(0.000000,183.000000) scale(0.100000,-0.100000)"
fill="#000000" stroke="none">
<path d="M1114 1643 c-9 -9 -14 -10 -14 -3 0 17 -60 -29 -72 -55 -6 -13 -21
-26 -34 -29 -13 -4 -24 -11 -24 -16 0 -12 17 -13 24 -2 2 4 29 6 58 5 80 -5
90 -5 99 4 5 5 -7 7 -27 5 -33 -4 -36 -3 -29 17 3 12 2 21 -3 21 -6 0 -12 -5
-14 -12 -3 -7 -7 -6 -11 5 -4 11 -1 17 8 17 8 0 14 3 14 8 -3 19 2 25 11 12 7
-11 10 -11 10 -2 0 7 5 10 12 6 7 -4 8 -3 4 4 -4 7 -2 12 3 12 6 0 11 -4 11
-10 0 -5 5 -10 10 -10 6 0 10 8 10 17 0 9 3 13 8 9 4 -4 7 -13 7 -19 0 -7 15
-12 35 -12 33 0 35 -2 33 -30 -2 -28 -1 -29 12 -11 15 19 15 19 15 -3 0 -12
-4 -19 -10 -16 -5 3 -10 0 -10 -7 0 -10 -2 -10 -8 0 -7 9 -13 7 -28 -9 -13
-15 -15 -23 -7 -26 7 -2 9 -11 6 -19 -3 -7 -9 -11 -14 -8 -5 3 -6 -2 -3 -10 5
-13 10 -11 27 10 16 22 18 27 6 35 -8 5 -9 9 -3 9 5 0 19 -7 30 -15 10 -8 14
-15 9 -15 -6 0 -11 -10 -12 -21 -1 -12 -1 -20 0 -18 1 2 13 17 27 32 15 17 19
26 9 22 -12 -4 -15 0 -13 17 1 13 3 29 3 36 1 10 4 10 14 1 20 -19 17 -62 -6
-88 -12 -13 -16 -21 -9 -17 6 4 12 2 12 -4 0 -6 -21 -9 -55 -7 -30 2 -60 0
-67 -5 -10 -6 -10 -8 1 -8 11 0 11 -3 1 -15 -13 -15 -35 -11 -25 6 4 5 -1 9
-9 9 -19 0 -11 -26 10 -34 9 -3 12 -12 9 -18 -4 -7 2 -3 13 9 15 17 22 20 30
10 7 -8 6 -16 -4 -25 -8 -7 -14 -10 -14 -7 0 3 -9 1 -20 -5 -17 -9 -20 -8 -20
10 0 14 -4 19 -12 14 -6 -4 -8 -3 -4 4 3 6 2 13 -4 17 -5 3 -7 18 -4 32 5 17
3 24 -4 19 -6 -3 -14 -1 -18 5 -4 7 -3 9 2 6 6 -3 15 2 21 12 10 15 8 20 -13
29 -23 11 -54 7 -54 -7 0 -11 -80 -8 -80 4 0 5 -5 2 -11 -8 -14 -25 -7 -30 25
-17 22 8 34 6 66 -12 50 -29 63 -57 39 -81 -18 -19 -31 -97 -16 -97 5 0 7 -7
3 -15 -4 -12 -2 -13 12 -6 21 11 45 0 48 -23 1 -9 -3 -13 -14 -9 -10 4 -13 2
-8 -5 5 -8 -2 -12 -22 -12 -16 0 -35 -7 -42 -15 -11 -14 -7 -19 13 -16 4 1 3
-9 -4 -21 -17 -33 -23 -37 -14 -9 5 17 4 21 -5 16 -7 -4 -10 -19 -6 -35 4 -20
1 -30 -11 -34 -9 -4 -20 -2 -23 4 -5 8 -9 6 -13 -5 -4 -9 -3 -13 2 -10 5 3 13
1 16 -5 9 -15 -5 -90 -16 -90 -10 0 -6 51 6 69 3 6 1 11 -4 11 -6 0 -11 -3
-12 -7 -8 -81 -8 -134 1 -128 5 3 10 15 10 26 0 10 6 18 13 17 6 -2 11 3 9 10
-1 6 2 12 8 12 5 0 9 -10 9 -22 -2 -30 18 -78 31 -78 6 0 8 -4 5 -10 -3 -5 3
-10 13 -10 20 0 36 -23 25 -34 -10 -10 -23 -7 -21 5 2 6 -4 14 -12 16 -13 4
-13 3 0 -6 13 -9 13 -11 -2 -11 -9 0 -19 6 -22 13 -4 6 -4 2 -2 -10 2 -13 1
-25 -3 -28 -9 -5 -43 39 -54 68 -4 10 -11 15 -17 12 -6 -4 -10 5 -10 21 0 41
-15 17 -28 -44 -16 -70 -15 -113 3 -197 20 -95 62 -193 128 -300 64 -103 111
-157 131 -149 7 3 16 -2 19 -10 4 -9 12 -16 18 -16 7 0 2 11 -10 24 -13 14
-21 28 -18 33 3 5 1 15 -5 23 -8 12 -9 12 -4 -3 3 -10 2 -15 -4 -12 -5 3 -7
20 -3 38 3 18 2 29 -2 25 -5 -4 -14 -3 -21 3 -20 17 -28 -9 -10 -36 18 -27 20
-35 8 -35 -14 0 -48 73 -35 77 27 9 -6 83 -61 135 -16 15 -24 28 -17 28 14 0
-9 40 -24 40 -18 1 -44 46 -48 86 -3 21 -9 50 -15 64 -5 14 -13 63 -17 110 -7
85 -7 85 12 65 11 -11 17 -21 12 -23 -10 -4 0 -93 12 -108 5 -6 5 -14 1 -18
-4 -4 -2 -6 4 -4 14 4 54 -39 54 -58 0 -7 9 -19 20 -27 11 -8 18 -16 16 -18
-2 -2 7 -5 20 -5 14 -1 24 4 24 11 0 10 10 12 38 8 51 -8 60 -19 14 -17 l-37
1 35 -5 c34 -5 34 -5 10 -13 -22 -8 -21 -8 7 -4 25 3 31 1 29 -13 -2 -9 -11
-18 -22 -20 -16 -3 -17 -1 -4 7 9 7 10 11 3 11 -6 0 -15 -5 -18 -10 -3 -6 -11
-10 -16 -10 -6 0 -8 4 -5 8 9 15 -11 33 -38 36 -14 2 -29 -1 -33 -7 -3 -6 -2
-8 3 -5 5 4 23 0 39 -7 l30 -14 -30 3 c-16 2 -22 1 -12 -1 9 -2 15 -9 12 -14
-3 -5 8 -7 24 -5 40 4 41 -10 2 -16 -43 -6 -55 4 -112 93 -28 44 -53 78 -56
76 -11 -11 18 -91 41 -112 14 -13 26 -28 26 -33 0 -5 12 -22 28 -37 l27 -28
-25 8 c-23 7 -24 6 -11 -9 8 -10 22 -15 32 -13 12 3 16 0 12 -9 -3 -8 0 -14 7
-14 6 0 9 -4 6 -8 -2 -4 -1 -14 4 -21 6 -10 9 -8 15 8 3 11 12 21 18 22 7 0 2
4 -9 9 -27 11 -31 60 -5 60 19 0 92 35 86 42 -7 7 41 2 53 -6 14 -9 35 2 27
14 -3 5 5 16 17 24 22 16 22 16 -12 16 -26 0 -31 -3 -20 -10 11 -7 9 -11 -13
-19 -38 -15 -45 -14 -56 8 -8 15 -7 20 5 25 21 8 26 8 20 -3 -3 -5 1 -11 9
-15 8 -3 14 0 12 6 -1 6 25 16 61 23 34 6 62 9 62 6 0 -3 5 0 12 7 7 7 16 12
22 12 5 0 1 -7 -10 -16 -18 -14 -18 -15 6 -9 22 5 23 5 6 -6 -15 -9 -16 -13
-5 -20 11 -8 11 -11 -4 -20 -18 -10 -18 -11 0 -24 15 -12 20 -12 30 1 6 9 14
11 17 6 3 -6 -1 -13 -10 -16 -10 -4 -14 -12 -10 -23 4 -10 4 -14 0 -11 -3 4
-20 0 -36 -8 -17 -9 -27 -18 -24 -21 3 -3 11 -2 18 4 17 12 60 15 53 2 -4 -5
1 -12 10 -15 13 -6 14 -8 3 -15 -9 -6 -9 -9 -1 -9 6 0 15 4 18 10 3 5 11 10
16 10 6 0 8 -4 5 -9 -14 -22 24 -17 45 6 l24 26 -30 -19 c-16 -10 -26 -13 -22
-6 6 8 1 12 -15 13 -22 0 -22 1 -3 9 16 7 17 9 3 9 -9 1 -20 -3 -23 -9 -3 -5
-11 -10 -17 -10 -7 0 -7 5 1 14 13 15 64 29 55 15 -8 -13 10 -11 26 3 11 10
11 9 0 -6 -13 -17 -13 -19 0 -14 8 3 22 2 31 -3 22 -11 52 20 39 41 -8 13 -10
12 -10 -2 0 -9 -4 -19 -9 -23 -6 -3 -8 4 -6 16 4 17 2 19 -10 9 -12 -10 -15
-10 -15 0 0 7 -8 10 -20 7 -11 -3 -20 0 -20 5 0 6 -8 4 -18 -5 -20 -19 -37
-23 -27 -7 3 5 2 10 -4 10 -5 0 -13 -4 -16 -10 -3 -5 -1 -10 5 -10 6 0 8 -5 4
-11 -4 -8 -9 -7 -15 2 -10 17 10 42 29 34 19 -7 48 15 32 25 -7 4 -5 12 6 21
16 12 17 12 11 -3 -7 -21 3 -24 21 -6 9 9 12 9 12 0 0 -7 -10 -17 -22 -22 -14
-5 -17 -9 -7 -9 8 -1 21 5 28 11 10 11 15 9 27 -7 8 -11 17 -20 19 -20 2 0 11
9 20 20 9 13 14 15 12 5 -2 -8 -2 -12 0 -8 3 4 14 -1 26 -12 23 -22 37 -26 37
-10 0 6 -5 10 -11 10 -5 0 -7 5 -3 11 4 8 12 2 21 -15 16 -30 10 -46 -15 -46
-15 0 -15 2 -2 11 12 8 10 9 -7 4 -19 -5 -22 -3 -17 12 5 17 5 17 -6 -1 -9
-13 -15 -15 -20 -7 -5 9 -11 7 -20 -4 -12 -14 -12 -16 1 -15 7 1 25 2 38 1 19
-1 22 -4 13 -13 -8 -8 -15 -8 -25 1 -11 9 -17 8 -26 -3 -9 -11 -9 -14 1 -12 7
0 14 -3 16 -9 1 -5 -2 -11 -8 -11 -23 -3 -24 -5 -10 -14 9 -5 19 -5 27 2 11 8
12 7 7 -8 -7 -18 -6 -18 12 -2 14 12 24 14 37 6 17 -9 17 -11 3 -21 -14 -10
-13 -12 9 -13 28 -2 31 5 13 25 -11 11 -9 12 10 6 20 -6 22 -4 18 20 -4 21 0
28 20 35 30 12 32 24 3 15 -16 -5 -19 -4 -14 6 6 9 2 11 -13 7 -23 -6 -31 7
-9 15 9 4 9 6 -1 6 -7 1 -10 5 -7 11 4 6 -1 7 -11 3 -16 -6 -16 -4 2 20 23 32
36 34 34 5 -3 -38 -1 -50 10 -43 6 3 10 1 10 -4 0 -6 5 -11 11 -11 7 0 8 7 4
18 -4 9 -9 30 -11 46 -1 16 -6 31 -11 35 -4 3 -15 26 -23 50 -8 25 -21 46 -28
47 -7 1 -8 0 -2 -3 5 -2 10 -16 10 -29 0 -14 -4 -22 -10 -19 -5 3 -10 1 -10
-5 0 -7 8 -9 21 -5 18 6 20 5 10 -14 -7 -12 -14 -21 -17 -21 -3 0 -2 6 2 13 5
9 3 9 -7 -1 -12 -11 -12 -14 0 -21 16 -10 8 -41 -10 -41 -6 0 -9 7 -5 15 3 8
1 15 -4 15 -6 0 -10 -7 -10 -15 0 -17 -18 -19 -39 -6 -7 5 -10 14 -6 21 6 9
10 9 17 -1 8 -11 9 -10 4 3 -3 10 -1 20 4 23 6 4 10 1 10 -4 0 -6 4 -11 8 -11
5 0 9 7 9 15 0 8 -5 15 -11 15 -6 0 -4 5 4 10 13 8 13 10 -2 10 -9 0 -20 -9
-23 -20 -3 -11 -10 -20 -15 -20 -5 0 -11 -9 -15 -19 -5 -18 -36 -39 -34 -23 4
28 -1 34 -18 21 -15 -11 -16 -11 -6 0 6 7 9 20 6 27 -6 17 -24 19 -20 2 1 -7
-7 -12 -18 -13 -11 0 -26 -4 -32 -8 -19 -12 -16 8 4 24 9 8 18 13 20 11 2 -1
18 5 36 14 29 16 31 16 18 1 -7 -10 -9 -17 -3 -17 5 0 15 6 22 14 6 8 18 12
26 9 18 -7 18 -1 -1 44 -9 22 -12 40 -6 46 10 10 33 -47 23 -59 -4 -4 -1 -4 6
0 7 4 10 13 6 19 -3 7 1 4 9 -5 22 -28 31 -21 12 8 -12 18 -13 24 -4 19 8 -4
3 3 -11 14 -14 11 -31 21 -38 21 -8 0 -10 5 -6 13 4 6 -1 5 -12 -4 -10 -9 -24
-15 -30 -12 -6 2 -17 -3 -24 -12 -10 -12 -10 -15 0 -15 10 0 10 -3 0 -15 -7
-8 -17 -15 -22 -15 -6 0 -5 7 2 15 10 12 10 15 0 15 -7 0 -2 9 11 20 29 24 18
26 -17 4 -16 -11 -23 -23 -19 -34 6 -19 -19 -35 -37 -23 -6 3 -8 1 -5 -4 4 -6
-1 -17 -11 -24 -15 -13 -16 -12 -4 3 13 16 11 17 -20 14 -18 -2 -48 -9 -66
-14 -18 -6 -30 -7 -28 -3 3 4 23 13 46 21 22 7 38 16 35 18 -3 3 2 14 12 24
18 20 5 25 -17 5 -11 -9 -11 -8 0 7 13 17 13 19 0 14 -8 -3 -21 0 -27 7 -10
10 -9 14 3 19 24 9 41 7 26 -3 -11 -7 -10 -9 3 -14 9 -4 13 -3 10 3 -9 15 4
12 20 -4 12 -12 11 -16 -5 -31 -19 -17 -18 -35 1 -35 6 0 8 4 5 9 -3 4 3 16
14 26 14 12 20 14 20 5 0 -7 21 5 47 26 26 21 44 31 41 23 -4 -9 -1 -16 6 -16
17 0 16 25 -1 31 -16 6 -8 26 9 26 6 0 9 -3 5 -6 -7 -8 17 -34 32 -34 6 0 11
-4 11 -10 0 -5 5 -10 10 -10 14 0 -8 42 -26 53 -23 13 -36 45 -22 53 7 5 8 3
3 -6 -5 -9 -4 -11 4 -6 8 6 9 12 2 20 -6 7 -7 17 -3 21 4 5 -1 5 -10 2 -10 -4
-18 -2 -18 3 0 5 -6 7 -14 4 -8 -3 -17 -1 -21 5 -3 6 1 11 9 11 9 0 15 3 15 8
-4 23 4 23 33 -4 27 -23 29 -24 10 -3 -12 14 -20 28 -17 31 4 3 -8 11 -26 17
-27 9 -30 9 -19 -4 19 -22 -5 -46 -39 -40 -25 5 -25 4 4 -9 17 -8 30 -18 30
-23 0 -4 4 -14 9 -21 6 -11 11 -11 24 0 15 11 15 11 4 -3 -7 -9 -10 -24 -6
-33 5 -12 2 -15 -10 -10 -9 3 -13 10 -10 16 3 5 -8 2 -26 -7 -27 -14 -34 -15
-41 -3 -6 8 -12 9 -16 3 -8 -10 -25 -16 -56 -20 -35 -3 -39 -22 -3 -21 19 1
33 3 31 6 -2 3 9 6 23 7 15 2 43 5 63 7 33 4 36 3 32 -15 -3 -10 -10 -19 -15
-19 -5 0 -7 3 -5 8 3 4 -5 7 -18 7 -13 0 -23 -4 -22 -10 1 -5 -8 -10 -20 -11
-12 -1 -20 2 -18 6 3 5 -14 7 -38 6 -23 -2 -55 4 -72 11 -28 13 -28 14 -4 9
18 -4 32 0 44 15 11 11 25 17 32 15 7 -3 13 -1 13 4 0 11 -15 12 -47 4 -13 -4
-21 -10 -18 -14 3 -5 2 -11 -3 -14 -5 -3 -9 2 -9 11 0 9 9 18 19 21 22 5 23
15 3 32 -9 7 -14 19 -11 26 3 8 2 13 -2 12 -13 -2 -42 14 -42 23 0 6 10 5 21
-2 12 -6 19 -7 15 -1 -3 6 -18 14 -34 20 -26 9 -27 8 -28 -29 -1 -21 3 -36 8
-33 4 3 8 0 8 -7 0 -7 10 -9 24 -7 20 4 23 2 19 -16 -2 -12 -5 -26 -5 -33 -2
-14 -38 -25 -38 -11 0 5 -4 7 -9 3 -5 -3 -12 -1 -15 4 -4 5 4 11 16 13 23 3
23 3 3 20 -11 10 -29 24 -40 32 -20 14 -20 15 -1 29 13 10 16 16 7 21 -6 4 -8
13 -4 19 11 18 12 36 3 42 -5 3 -11 1 -15 -5 -10 -15 -32 -12 -39 6 -5 12 -2
15 10 10 9 -4 28 1 41 10 23 14 23 17 9 33 -9 10 -17 28 -17 42 -1 20 -2 21
-6 4 -3 -11 -10 -23 -15 -26 -6 -4 -7 -12 -2 -20 11 -18 14 -39 5 -39 -3 0
-16 7 -27 15 -12 8 -25 11 -30 7 -5 -4 -4 0 3 7 10 11 9 17 -5 28 -12 10 -12
12 -2 8 11 -5 10 -3 -2 7 -12 10 -14 18 -7 29 8 12 13 10 26 -8 8 -13 22 -23
31 -23 10 0 7 8 -12 25 -34 32 -72 26 -72 -11 0 -13 5 -24 11 -24 5 0 2 -7 -8
-14 -18 -14 -17 -15 2 -21 12 -3 18 -11 15 -17 -4 -6 1 -6 14 1 12 7 23 7 26
2 4 -5 1 -11 -5 -13 -19 -6 22 -40 42 -35 27 7 30 -5 8 -33 -11 -14 -18 -19
-17 -11 2 8 -9 17 -25 22 -15 4 -37 19 -48 33 -11 15 -25 23 -30 20 -6 -3 -18
1 -27 9 -38 33 -95 17 -85 -24 4 -14 1 -18 -9 -14 -15 6 -19 68 -5 82 5 4 8 3
7 -2 -5 -22 1 -27 15 -15 9 7 18 10 22 7 3 -4 13 -2 23 3 13 7 20 4 30 -15 7
-13 17 -22 22 -19 5 3 1 12 -8 18 -12 9 -14 15 -6 20 7 4 12 12 12 18 0 7 -6
6 -15 -2 -12 -10 -15 -10 -15 3 0 8 7 20 15 27 17 14 15 34 -3 36 -7 1 -22 2
-34 4 -13 1 -17 4 -10 7 6 2 10 9 6 14 -3 5 2 9 11 9 10 0 13 -5 9 -12 -4 -7
-3 -8 5 -4 6 4 9 12 6 17 -14 21 11 7 31 -18 12 -16 26 -24 30 -20 5 4 -4 18
-18 30 -20 18 -24 27 -17 40 7 12 6 17 -3 17 -9 0 -9 3 2 11 13 9 12 10 -2 5
-11 -3 -23 3 -33 17 -13 19 -20 17 -16 -6 1 -5 -3 -6 -8 -3 -14 9 -10 67 5 73
8 3 11 9 8 14 -3 5 1 6 8 4 7 -3 19 -14 26 -25 11 -18 10 -20 -15 -21 l-28 -1
25 -8 c14 -4 19 -8 13 -9 -7 -1 -13 -6 -13 -12 0 -8 5 -7 15 1 13 11 18 10 30
-6 12 -17 14 -18 20 -2 4 9 4 22 0 29 -5 8 -1 9 14 4 14 -4 38 1 66 15 48 23
59 35 23 25 -21 -5 -21 -5 -5 5 10 7 21 10 24 7 2 -3 13 3 23 13 16 16 17 22
4 71 -8 29 -14 61 -14 70 0 23 -68 95 -98 104 -45 13 -93 12 -108 -2z m195
-185 c-12 -22 -11 -22 6 -8 17 14 18 13 12 -2 -4 -11 -2 -18 6 -18 12 -1 -62
-50 -75 -50 -5 0 -8 5 -8 11 0 5 5 7 10 4 6 -3 10 -4 10 -1 0 3 -9 10 -19 16
-17 8 -20 7 -18 -10 1 -11 10 -23 21 -26 18 -6 18 -7 -5 -20 -29 -16 -53 -18
-44 -4 3 6 2 10 -4 10 -14 0 -26 -22 -24 -45 1 -16 1 -16 -3 -2 -3 9 -9 17
-13 17 -9 0 -11 29 -2 31 34 7 69 4 64 -4 -4 -6 -1 -7 7 -2 10 6 9 11 -5 22
-11 7 -15 13 -10 13 4 0 1 8 -7 18 -26 30 -31 42 -14 36 9 -3 13 -10 10 -15
-3 -5 2 -9 10 -9 9 0 16 6 16 14 0 11 7 13 30 6 29 -8 35 -3 46 43 4 20 6 21
10 10 3 -7 0 -22 -7 -35z m-201 -297 c-7 -11 -18 -17 -27 -13 -9 3 -6 -3 7
-14 l23 -19 -33 -2 c-18 0 -27 1 -19 4 10 4 10 7 1 13 -19 11 10 50 37 50 20
0 22 -2 11 -19z m12 -110 c0 -15 6 -19 24 -18 14 1 25 -2 25 -7 -1 -5 5 -13
13 -17 10 -7 10 -9 -2 -10 -11 0 -9 -3 4 -8 17 -7 17 -8 2 -24 -16 -16 -16
-17 0 -17 13 0 14 -3 5 -13 -6 -8 -7 -18 -3 -22 4 -5 -4 -1 -17 8 -32 22 -36
47 -8 47 20 1 21 1 4 11 -11 7 -16 17 -12 29 5 15 2 17 -17 12 -13 -3 -28 -13
-35 -21 -10 -14 -12 -13 -10 6 0 12 5 19 9 17 11 -7 10 4 -2 27 -8 15 -7 19 5
19 8 0 15 -9 15 -19z m-37 -18 c-8 -3 -7 -17 5 -51 l16 -47 8 33 c8 31 18 39
31 26 3 -4 -1 -13 -9 -21 -18 -18 -15 -65 5 -71 8 -3 11 0 7 7 -4 6 -1 11 8
11 9 0 13 -7 11 -20 -2 -11 0 -20 6 -20 5 0 9 5 9 10 0 6 5 10 10 10 6 0 10
-13 10 -29 0 -29 11 -43 42 -54 16 -6 18 4 9 41 -1 1 -11 -2 -23 -8 -22 -11
-22 -10 -4 4 21 17 62 4 50 -16 -4 -6 -3 -9 2 -6 5 3 15 0 22 -8 10 -10 10
-14 1 -14 -7 0 -10 -3 -6 -6 3 -3 16 2 29 11 14 11 16 15 6 12 -10 -4 -20 -2
-23 3 -9 14 35 11 70 -4 l30 -13 -26 -7 c-14 -4 -32 -6 -40 -4 -8 2 -13 -2
-12 -9 3 -13 -32 -27 -46 -18 -6 3 -6 -6 -1 -24 4 -16 6 -32 2 -35 -3 -3 -1
-6 5 -6 6 0 10 -8 9 -17 0 -10 7 -19 19 -21 20 -4 20 -4 0 12 -20 16 -20 16 0
10 20 -5 20 -5 0 7 -19 12 -19 12 0 20 29 11 45 10 45 -2 0 -5 -4 -8 -9 -4 -6
3 -9 -4 -8 -15 2 -24 16 -25 63 -5 34 14 36 14 59 -12 19 -24 25 -25 39 -14
11 10 16 10 16 2 0 -7 6 -9 13 -6 6 4 -1 -5 -16 -19 -16 -15 -22 -26 -15 -26
8 0 14 -9 15 -20 2 -23 -1 -24 -28 -9 -11 5 -17 14 -14 19 4 6 -2 7 -12 3 -16
-6 -16 -5 -4 10 12 16 12 17 -5 10 -16 -6 -17 -4 -7 8 10 13 10 19 0 33 -12
16 -17 17 -67 3 -76 -21 -109 -20 -105 4 3 16 1 17 -15 9 -26 -14 -50 -13 -30
1 12 8 10 9 -9 4 -17 -5 -21 -4 -16 5 4 6 17 10 30 8 12 -3 22 0 22 7 0 14
-33 8 -62 -12 -14 -9 -15 -13 -5 -13 8 0 2 -7 -14 -15 -15 -8 -32 -13 -36 -10
-12 8 -41 -6 -34 -16 3 -5 -3 -6 -12 -2 -15 6 -15 7 2 20 18 13 17 14 -8 8
-34 -9 -37 2 -5 16 20 9 20 9 -6 6 -28 -4 -49 16 -40 40 2 7 -1 21 -7 32 -9
17 -8 20 5 15 8 -4 15 -12 15 -19 0 -8 9 -13 21 -12 18 1 19 3 6 11 -14 9 -14
11 1 23 15 12 14 13 -9 8 -30 -7 -62 21 -40 35 7 4 23 5 35 3 17 -4 18 -3 6 6
-16 11 -7 27 10 16 6 -4 9 -13 6 -20 -4 -11 4 -13 32 -9 34 4 35 4 17 -11 -20
-15 -20 -15 0 -8 20 6 20 6 1 -15 -11 -12 -15 -22 -9 -22 5 0 10 -7 10 -15 0
-8 -6 -15 -12 -15 -7 0 -11 11 -9 27 2 22 -12 69 -17 53 -6 -24 -4 -60 3 -60
5 0 6 -5 3 -10 -3 -6 4 -14 17 -19 20 -8 20 -10 4 -10 -11 -1 -27 5 -35 13
-14 13 -19 13 -35 0 -11 -8 -15 -14 -10 -14 6 0 16 6 23 13 11 10 13 9 8 -5
-4 -12 -2 -15 7 -12 8 3 20 -3 27 -13 12 -16 18 -17 38 -7 21 11 22 13 5 17
-13 4 -11 5 6 4 14 -1 32 3 40 8 8 5 20 10 25 11 6 0 16 2 23 2 6 1 12 10 12
20 0 10 3 22 7 26 4 3 8 14 9 22 2 14 1 14 -15 0 -10 -9 -22 -16 -27 -16 -5 0
-2 5 6 10 12 8 9 10 -12 10 -44 0 -57 9 -52 36 3 19 0 24 -16 24 -11 0 -20 5
-20 10 0 6 -5 10 -11 10 -8 0 -9 -4 0 -13 6 -8 7 -17 3 -22 -4 -4 4 -4 18 -1
19 6 21 5 10 -3 -12 -9 -13 -11 -1 -11 8 0 12 -2 9 -5 -2 -3 -19 0 -37 6 -22
8 -29 15 -22 23 7 8 1 26 -18 56 -35 57 -42 86 -29 116 9 18 14 22 22 13 8 -8
8 -13 -1 -16z m175 -64 c8 -12 9 -18 3 -14 -6 3 -11 -1 -11 -10 0 -11 5 -15
16 -11 8 3 12 2 9 -4 -3 -6 3 -10 14 -10 27 0 34 -15 19 -42 -7 -13 -14 -25
-15 -26 -1 -2 -19 8 -40 22 -20 14 -33 26 -28 26 6 0 4 4 -4 9 -13 8 -13 12 0
27 8 10 9 15 3 11 -7 -4 -14 0 -18 8 -3 8 0 14 7 12 7 -1 11 4 10 11 -5 20 21
14 35 -9z m102 -21 c0 -5 5 -6 12 -2 7 4 8 3 4 -4 -10 -17 -19 -15 -33 8 -11
16 -10 18 2 14 8 -4 15 -10 15 -16z m-173 -140 c43 -19 54 -33 40 -48 -10 -10
-8 -12 6 -7 11 4 16 3 12 -4 -4 -6 -14 -7 -24 -3 -9 3 -32 6 -51 6 l-35 -1 32
10 c18 5 35 14 38 19 4 6 -1 7 -11 3 -12 -4 -15 -3 -10 5 8 14 5 15 -20 5 -16
-6 -16 -7 2 -14 17 -7 17 -8 -3 -8 -26 -1 -31 17 -7 26 13 5 13 7 2 14 -20 13
-3 11 29 -3z m373 7 c0 -2 -9 -9 -20 -15 -16 -9 -18 -8 -14 5 5 13 34 22 34
10z m-145 -45 c14 -27 14 -30 -5 -40 -12 -6 -26 -9 -33 -6 -7 2 -5 5 5 5 9 1
19 5 22 9 5 8 -25 8 -84 -2 -26 -5 -30 -4 -15 3 20 10 20 10 0 11 -15 1 -13 4
10 12 17 6 39 17 50 24 27 19 32 18 50 -16z m212 -8 c-10 -10 -17 -25 -17 -32
0 -7 -3 -10 -6 -7 -4 3 -18 -3 -32 -14 -15 -11 -33 -17 -44 -13 -11 3 -20 0
-24 -10 -3 -9 -11 -16 -18 -16 -6 0 4 14 21 30 18 16 38 27 45 25 17 -6 49 19
46 36 -2 7 2 13 9 14 6 0 15 3 19 8 16 15 16 -4 1 -21z m-433 -26 c-3 -8 -14
-11 -32 -7 l-27 5 30 7 c17 4 31 7 32 8 1 0 0 -5 -3 -13z m450 -30 c-7 -18
-13 -19 -33 -7 -10 7 -20 2 -34 -15 -11 -14 -22 -23 -25 -19 -8 8 39 55 49 49
5 -2 14 4 21 15 10 16 14 18 20 7 5 -8 5 -21 2 -30z m-430 -37 c-4 -8 1 -9 17
-5 23 7 23 6 5 -8 -14 -12 -22 -12 -37 -3 -13 8 -15 13 -6 19 18 11 29 10 21
-3z m-181 -152 c13 -20 13 -24 1 -24 -8 0 -14 4 -14 8 0 4 -3 14 -6 23 -9 24
1 19 19 -7z m708 -13 c-17 -7 -31 -16 -31 -19 0 -3 9 -1 19 5 26 13 28 13 33
-8 4 -12 -1 -18 -13 -18 -10 0 -15 4 -13 8 3 5 -8 6 -25 3 -17 -3 -31 -1 -31
4 0 14 63 49 79 43 8 -3 1 -10 -18 -18z m-645 -61 c3 -16 9 -38 14 -50 6 -14
6 -23 0 -23 -13 0 -32 38 -28 58 1 9 -1 23 -5 30 -5 7 -4 12 2 12 6 0 13 -12
17 -27z"/>
<path d="M1375 777 c-13 -10 -15 -16 -6 -21 14 -9 24 -2 27 19 3 18 2 18 -21
2z"/>
<path d="M1114 1583 c2 -10 9 -18 17 -18 7 0 15 8 17 18 2 11 -3 17 -16 17
-14 0 -19 -6 -18 -17z"/>
<path d="M1180 1540 c-17 -18 -29 -24 -37 -18 -8 7 -10 3 -6 -11 3 -13 11 -18
21 -14 11 3 8 -3 -7 -16 -13 -12 -21 -25 -17 -28 4 -4 11 -1 16 7 6 8 10 11
10 5 0 -5 7 1 14 15 8 14 12 28 9 33 -3 5 3 17 13 28 9 10 15 21 13 23 -2 2
-15 -9 -29 -24z"/>
<path d="M1324 1379 c-10 -12 -17 -24 -14 -27 3 -3 -4 -6 -15 -8 -11 -1 -38
-9 -60 -18 -34 -13 -36 -15 -14 -16 14 0 30 5 37 12 7 7 12 8 12 4 0 -5 7 -3
15 4 8 7 15 8 15 2 0 -11 -19 -28 -40 -35 -8 -2 -1 -3 15 -1 28 3 29 3 11 -11
-20 -15 -65 -10 -78 9 -4 6 -6 0 -5 -12 1 -17 6 -22 18 -19 11 3 19 -3 23 -16
8 -33 -1 -33 -34 1 -19 20 -30 26 -30 17 0 -8 -4 -15 -10 -15 -5 0 -2 -8 8
-18 9 -11 20 -17 23 -16 4 2 12 -3 19 -11 13 -15 35 -21 26 -7 -2 4 4 13 15
20 22 14 23 12 8 -22 -7 -14 -16 -23 -22 -19 -6 3 -7 1 -3 -5 10 -17 26 -15
26 3 0 8 7 15 15 15 8 0 14 -3 13 -7 -1 -5 3 -18 10 -29 6 -12 9 -24 7 -26 -3
-3 5 -16 17 -29 21 -23 27 -66 8 -54 -4 3 -6 -4 -3 -15 3 -11 9 -20 14 -20 5
0 6 7 3 15 -5 11 -2 13 10 9 8 -3 14 -9 13 -12 -1 -4 1 -7 5 -7 14 0 40 -46
34 -60 -3 -9 1 -15 9 -15 8 0 14 -6 13 -12 -2 -7 3 -12 10 -10 7 1 15 -4 18
-13 5 -13 8 -13 21 0 8 8 19 15 25 15 6 0 9 -3 5 -6 -3 -4 1 -13 9 -22 12 -11
18 -12 27 -3 9 10 8 15 -6 22 -9 6 -15 14 -12 19 12 20 -18 21 -36 1 -16 -17
-22 -19 -33 -9 -8 7 -12 15 -10 17 2 2 -1 10 -7 18 -6 7 -8 13 -4 13 4 0 -3 8
-15 18 l-22 18 21 1 c12 1 19 -2 16 -8 -10 -15 12 -10 25 6 13 16 5 20 -29 16
-7 -2 -10 2 -7 7 3 6 -10 19 -30 31 -19 12 -32 25 -29 31 4 6 -1 7 -11 3 -13
-5 -15 -3 -9 7 5 8 4 11 -2 7 -6 -4 -13 0 -16 8 -4 9 -1 12 7 9 8 -3 17 0 22
7 4 8 3 10 -4 5 -7 -4 -20 -2 -29 4 -16 11 -16 11 -1 6 10 -3 20 0 24 5 8 13
21 1 38 -33 14 -27 38 -31 42 -5 1 9 -3 17 -10 17 -19 0 -78 69 -70 82 5 7 3
8 -6 3 -10 -6 -12 -4 -7 8 6 17 -19 44 -31 32 -4 -4 -1 -10 6 -12 9 -4 10 -9
3 -17 -8 -9 -4 -19 14 -36 25 -24 25 -43 0 -34 -8 4 -13 10 -10 15 3 4 -7 15
-22 23 -15 8 -22 15 -15 16 7 0 10 5 7 10 -3 6 0 10 7 10 7 1 0 7 -17 14 -19
8 -25 15 -17 20 7 4 12 2 12 -3 0 -6 5 -11 11 -11 6 0 9 7 5 15 -4 10 1 14 17
12 14 -1 32 -19 50 -47 26 -40 100 -120 112 -120 17 0 -2 42 -35 78 -22 24
-40 48 -40 53 0 6 -3 8 -7 6 -11 -7 -33 19 -25 29 4 4 2 4 -5 0 -6 -3 -14 -2
-18 3 -3 6 -12 8 -20 4 -8 -3 -15 0 -15 7 0 8 9 11 25 8 13 -3 22 -2 20 3 -3
4 -1 11 5 14 7 4 7 11 2 18 -5 7 -8 20 -7 30 2 9 -1 17 -6 17 -6 0 -7 5 -4 10
11 17 -1 11 -21 -11z m5 -46 c-12 -15 -12 -16 4 -10 9 3 17 3 17 -2 0 -5 -11
-11 -24 -13 -19 -4 -23 -1 -19 11 8 23 25 42 31 36 3 -2 -1 -12 -9 -22z m68
-109 c-3 -3 10 -20 29 -36 19 -17 32 -33 30 -36 -3 -2 -21 11 -40 30 -30 30
-37 48 -18 48 3 0 3 -3 -1 -6z m22 -190 c4 3 8 -1 8 -8 0 -8 -6 -12 -14 -9 -7
3 -13 13 -12 22 0 10 2 11 6 3 2 -6 8 -10 12 -8z"/>
<path d="M1046 1252 c-3 -5 8 -9 25 -9 19 0 25 3 17 9 -17 10 -35 10 -42 0z"/>
<path d="M991 1173 c4 -21 -2 -24 -18 -12 -16 13 -17 12 -4 -3 7 -10 17 -18
21 -18 13 0 20 29 9 35 -5 4 -9 3 -8 -2z"/>
<path d="M1480 1107 c-6 -10 -17 -16 -25 -14 -20 8 -27 -4 -12 -21 9 -13 9
-14 0 -8 -23 13 -14 -1 10 -17 21 -14 23 -13 24 4 1 10 -3 19 -8 19 -6 0 -7 5
-4 10 9 15 37 -9 31 -27 -3 -7 -1 -13 4 -13 5 0 12 -9 15 -20 3 -11 13 -20 21
-20 9 0 12 -5 8 -12 -4 -8 -3 -9 2 -5 5 5 9 16 9 25 0 11 7 16 20 14 19 -2 19
-2 3 11 -10 8 -18 18 -18 22 0 5 -15 23 -34 40 -32 29 -34 30 -46 12z m40 -33
c0 -8 7 -17 15 -20 18 -7 20 -30 3 -40 -6 -4 -8 -3 -4 4 3 6 0 14 -8 19 -8 4
-17 21 -20 36 -3 16 -1 25 5 22 5 -4 9 -13 9 -21z"/>
<path d="M1481 1001 c-8 -5 -16 -17 -17 -25 -3 -22 1 -20 20 9 18 27 18 29 -3
16z"/>
<path d="M1660 955 c11 -12 18 -24 15 -27 -3 -2 7 -15 21 -29 26 -23 26 -23
13 -1 -8 12 -17 22 -22 22 -4 0 -6 4 -2 10 3 5 13 6 23 3 9 -3 14 -3 10 1 -3
4 -12 8 -20 10 -20 3 -39 17 -34 25 3 4 -2 8 -10 8 -11 0 -10 -5 6 -22z"/>
<path d="M1010 947 c0 -8 10 -22 21 -33 l22 -19 -17 33 c-18 34 -26 40 -26 19z"/>
<path d="M1653 919 c3 -9 0 -22 -6 -28 -8 -8 -8 -11 2 -11 7 0 9 -5 6 -10 -4
-6 -1 -9 6 -8 7 2 17 -12 22 -29 6 -20 16 -33 26 -33 14 0 14 2 1 10 -10 6
-11 10 -2 10 6 0 12 5 12 10 0 6 -5 9 -11 8 -6 -2 -14 3 -16 10 -3 8 1 10 14
5 17 -6 17 -5 -1 15 -23 27 -27 27 -19 5 4 -13 3 -15 -6 -7 -6 6 -13 21 -16
34 -2 12 -7 25 -11 29 -4 3 -5 -1 -1 -10z"/>
<path d="M1717 784 c-6 -10 9 -42 16 -34 3 3 1 14 -3 24 -3 11 -9 15 -13 10z"/>
<path d="M1486 751 c-8 -12 18 -21 33 -11 10 5 8 9 -4 14 -21 8 -23 8 -29 -3z"/>
<path d="M1676 685 c-9 -14 -22 -22 -29 -19 -8 3 -20 -2 -27 -10 -10 -13 -9
-17 4 -22 9 -3 13 -11 10 -18 -6 -13 14 13 36 44 8 12 24 25 34 29 16 7 17 9
3 14 -10 4 -21 -3 -31 -18z"/>
<path d="M1375 650 c-16 -7 -16 -9 -4 -9 20 -1 32 -28 17 -37 -6 -4 -8 -3 -4
4 3 6 1 14 -5 18 -8 5 -9 3 -4 -6 6 -10 2 -11 -18 -6 -16 4 -29 1 -33 -6 -5
-8 -1 -9 12 -5 14 5 12 2 -6 -12 -16 -13 -34 -18 -52 -14 -18 3 -40 -2 -63
-16 -20 -11 -43 -21 -51 -21 -8 0 -12 -4 -9 -10 8 -14 21 -13 37 3 14 14 53
37 62 37 14 0 4 -19 -11 -23 -15 -4 -15 -5 2 -6 24 -2 61 -28 53 -37 -10 -9
-49 6 -43 17 4 5 1 9 -5 9 -6 0 -13 -6 -16 -14 -3 -8 -16 -17 -29 -20 -28 -7
-42 -36 -17 -36 15 -1 15 -2 -2 -11 -14 -9 -20 -8 -27 2 -9 15 -10 14 -12 -39
-2 -28 0 -30 11 -15 6 9 12 12 12 7 0 -15 79 -116 80 -102 0 4 -7 14 -16 23
-9 9 -14 19 -10 22 8 9 31 -24 49 -69 13 -32 13 -39 1 -49 -11 -9 -14 -7 -14
10 0 11 -4 21 -10 21 -5 0 -7 7 -4 15 5 11 2 13 -10 9 -19 -7 -20 -16 -3 -32
6 -7 13 -17 13 -22 1 -6 2 -15 3 -21 0 -6 7 -9 14 -6 7 2 25 -7 39 -22 24 -24
26 -31 18 -65 -5 -21 -13 -43 -19 -49 -16 -16 -43 12 -38 40 2 13 0 23 -4 23
-5 0 -9 -16 -9 -35 0 -24 5 -35 15 -35 8 0 15 -7 15 -16 0 -14 3 -14 15 -4 9
7 15 8 15 2 0 -15 53 1 58 18 3 9 -1 11 -11 7 -17 -6 -16 1 3 50 6 18 16 30
21 27 5 -3 5 -13 -1 -25 -12 -22 -6 -39 15 -39 16 0 35 30 35 56 0 10 6 25 14
33 13 14 12 19 -3 37 -9 11 -23 23 -31 27 -12 4 -11 6 3 6 10 1 20 -6 23 -14
4 -8 11 -15 16 -15 6 0 8 7 4 15 -10 27 2 16 31 -30 20 -32 35 -45 51 -45 12
0 23 -4 23 -10 1 -5 2 -15 3 -21 1 -8 64 -37 83 -39 1 0 -7 21 -17 46 -23 52
-23 54 -11 54 5 0 15 -15 22 -34 9 -24 17 -32 27 -28 9 3 13 1 9 -5 -4 -6 0
-13 8 -16 10 -4 12 -1 9 11 -5 14 -3 13 10 -2 21 -26 20 -32 -3 -32 -11 0 -17
4 -15 8 3 4 1 8 -5 8 -5 0 -12 -4 -15 -9 -6 -8 52 -41 72 -41 5 0 12 -6 15
-14 4 -9 14 -12 26 -9 12 3 21 1 21 -6 0 -6 10 -11 22 -11 18 0 20 3 10 13
-13 12 -17 14 -52 16 -11 0 -20 7 -20 14 0 8 -9 22 -20 32 -11 10 -20 22 -20
28 0 16 -44 62 -59 62 -8 0 -17 7 -19 15 -5 13 -3 13 11 1 13 -10 17 -10 17
-1 0 10 3 10 15 0 17 -14 21 0 4 17 -7 7 -21 8 -41 2 -26 -7 -29 -6 -23 9 5
14 4 15 -6 5 -7 -7 -20 -13 -29 -13 -10 0 -5 9 15 25 17 13 26 24 21 25 -5 0
-3 7 4 15 10 12 10 15 0 15 -6 0 -14 -9 -17 -20 -3 -10 -16 -26 -29 -35 l-24
-15 20 -33 c11 -17 24 -39 29 -48 7 -11 6 -16 -5 -16 -7 0 -12 2 -9 5 2 2 -5
12 -16 21 -25 21 -41 75 -26 90 6 6 20 11 30 11 12 0 17 5 14 14 -3 7 13 31
37 55 48 47 75 57 31 11 -16 -17 -24 -30 -17 -30 6 0 16 8 21 18 8 12 9 3 6
-35 -5 -58 3 -70 31 -47 19 15 19 15 -1 10 -17 -5 -16 -3 5 14 14 11 19 20 12
20 -8 0 -10 5 -6 12 5 8 2 9 -9 5 -10 -3 -17 -2 -17 3 0 6 5 10 11 10 5 0 8 4
4 9 -3 5 8 19 24 30 37 27 54 27 21 0 -27 -23 -37 -54 -14 -45 9 3 12 1 9 -4
-3 -6 -1 -10 4 -10 11 0 15 13 12 37 -1 6 4 15 10 19 9 5 10 2 6 -9 -3 -9 -1
-18 6 -21 9 -3 9 -5 0 -5 -7 -1 -13 -6 -13 -11 0 -6 12 -3 28 7 l27 17 -19
-22 c-11 -12 -14 -22 -9 -22 6 0 16 7 23 15 7 8 16 15 21 15 5 0 -8 -16 -30
-35 -41 -37 -66 -48 -37 -16 15 17 15 19 1 25 -10 4 -14 2 -9 -5 4 -8 -1 -7
-17 1 -22 10 -22 10 -6 -3 12 -10 14 -17 8 -22 -6 -3 -11 -1 -11 5 0 6 -5 8
-11 4 -8 -4 -4 -11 10 -18 12 -7 18 -15 14 -20 -4 -4 0 -4 10 0 13 5 16 2 10
-12 -5 -13 -3 -15 8 -10 8 4 5 0 -5 -8 -11 -9 -26 -16 -33 -16 -7 0 -13 -6
-13 -12 0 -9 -3 -8 -10 2 -5 8 -12 11 -15 8 -12 -12 56 -87 73 -81 12 5 14 1
8 -20 -5 -20 -3 -27 8 -27 17 0 18 50 0 57 -8 3 -11 16 -9 35 3 23 0 28 -11
24 -8 -3 -14 -1 -14 4 0 6 4 10 9 10 5 0 16 6 24 14 8 8 28 16 45 19 31 5 81
35 82 50 0 4 6 7 13 7 26 -1 -66 -70 -92 -70 -33 0 -42 -7 -34 -26 7 -19 16
-18 43 6 13 11 27 20 32 20 5 0 17 7 26 16 11 12 27 15 56 11 22 -3 34 -2 27
2 -7 5 -12 12 -11 17 1 5 -4 10 -11 13 -7 2 -9 -1 -5 -8 4 -6 1 -11 -8 -11
-13 0 -14 5 -6 26 9 22 7 27 -10 31 -18 5 -24 16 -23 49 0 6 -6 11 -13 11 -9
0 -10 -7 -3 -24 14 -38 10 -51 -7 -20 -10 18 -21 26 -30 23 -43 -18 -49 -18
-30 -2 11 9 26 16 34 16 13 0 12 3 -1 18 -10 10 -14 22 -10 25 6 7 -10 11 -33
8 -6 -1 -11 6 -11 14 0 18 9 19 24 4 7 -7 13 -7 17 -1 3 6 -3 14 -14 17 -16 5
-18 10 -11 19 8 10 5 13 -15 12 -14 -1 -34 -12 -44 -25 -9 -13 -22 -21 -29
-17 -6 4 -11 2 -11 -4 0 -7 15 -9 43 -5 27 4 37 2 28 -3 -10 -7 -6 -12 15 -20
23 -8 25 -11 8 -11 -11 -1 -21 -8 -21 -16 0 -9 4 -11 11 -6 15 11 47 10 40 -1
-4 -5 -9 -7 -12 -4 -3 3 -11 -3 -19 -14 -8 -11 -19 -20 -25 -20 -6 0 -8 3 -5
7 4 3 2 12 -4 20 -6 7 -8 13 -3 13 5 0 2 5 -6 10 -11 7 -11 10 -2 10 7 0 10 5
7 10 -4 6 -12 4 -21 -5 -9 -8 -21 -15 -27 -15 -7 0 -3 7 7 15 11 8 15 15 9 15
-7 0 -15 -4 -18 -10 -3 -6 -11 -10 -16 -10 -6 0 -7 5 -3 12 4 6 -1 17 -11 24
-15 12 -16 16 -4 31 7 10 -1 5 -19 -11 -31 -29 -37 -51 -7 -26 11 9 15 9 15 1
0 -7 5 -9 12 -5 7 5 8 3 4 -5 -5 -7 -10 -10 -13 -7 -9 9 -66 -25 -95 -55 -15
-16 -37 -30 -50 -31 -37 -2 -42 -3 -63 -16 -19 -11 -19 -11 3 -12 13 0 32 5
44 11 11 6 22 8 25 6 3 -3 -9 -13 -27 -22 -24 -13 -38 -14 -60 -6 -16 5 -37 7
-48 4 -16 -4 -20 0 -18 20 1 31 91 86 100 61 4 -10 -6 -22 -30 -36 -19 -11
-32 -23 -29 -26 3 -3 20 5 37 18 19 14 33 19 36 12 4 -14 56 3 74 25 10 13 10
17 0 20 -6 3 -10 9 -6 14 3 5 0 9 -7 9 -8 0 -8 4 1 15 7 8 17 15 22 15 6 0 4
-7 -3 -17 -13 -15 -12 -15 11 -3 14 7 31 16 39 20 8 3 17 13 19 21 4 10 0 9
-15 -3 -11 -10 -25 -18 -32 -18 -7 0 -3 9 10 21 l24 20 -24 -11 c-13 -7 -44
-27 -68 -46 -43 -33 -71 -44 -58 -24 10 16 -8 11 -35 -10 -14 -11 -29 -20 -35
-20 -5 0 -21 -9 -35 -20 -29 -23 -68 -26 -76 -6 -3 8 -12 12 -20 9 -8 -3 -14
0 -14 6 0 6 7 11 15 11 8 0 15 5 15 10 0 6 10 10 23 10 22 0 61 19 42 21 -5 0
8 6 29 12 22 7 41 18 44 26 4 11 -1 10 -19 -2 -13 -10 -35 -17 -49 -16 l-25 1
25 9 25 8 -25 -2 c-18 -1 -26 -9 -28 -24 -2 -15 -10 -23 -23 -23 -27 0 -32 -2
-48 -17 -7 -8 -16 -11 -20 -8 -7 8 25 28 59 36 23 6 22 7 -7 8 -17 0 -35 -3
-38 -9 -10 -15 -35 -12 -35 5 0 8 -4 15 -10 15 -5 0 -7 -7 -4 -15 4 -8 2 -15
-4 -15 -5 0 -13 7 -16 16 -3 8 -11 12 -17 8 -8 -4 -8 -1 0 15 10 17 9 20 -4
15 -8 -4 -15 -2 -15 4 0 11 24 22 48 22 15 0 15 -2 2 -10 -22 -14 2 -12 49 5
40 14 47 11 42 -18 -1 -5 3 -6 9 -2 5 3 10 1 10 -5 0 -6 -8 -10 -17 -9 -33 3
-53 -1 -53 -11 0 -14 61 0 83 18 13 12 15 17 5 24 -10 6 -8 8 5 8 9 0 17 -4
17 -8 0 -5 6 -9 13 -9 7 0 13 10 13 22 0 21 -2 22 -30 9 -17 -7 -30 -18 -28
-24 1 -6 -2 -9 -8 -5 -16 10 -5 50 16 53 16 3 17 1 4 -7 -25 -18 -1 -12 41 10
25 12 38 15 33 7 -13 -21 -13 -38 -1 -38 8 0 8 -3 2 -8 -14 -10 -17 -32 -5
-32 6 0 10 5 10 10 0 6 6 10 13 10 6 0 23 10 37 21 20 17 21 20 5 14 -46 -16
-50 -17 -40 -8 18 14 15 32 -6 43 -15 8 -24 8 -34 0 -10 -8 -19 -9 -32 -1 -10
6 -13 11 -8 11 6 0 23 11 39 24 20 17 25 26 16 31 -9 5 -11 4 -6 -3 9 -14 -4
-15 -24 -2 -13 9 -13 10 0 10 12 0 12 2 2 9 -11 6 -10 10 4 15 15 6 16 8 0 25
-9 9 -13 21 -9 24 8 9 3 8 -22 -3z m8 -56 c11 -11 -25 -54 -46 -54 -11 0 -18
-3 -14 -6 11 -11 57 6 57 21 0 9 6 12 15 8 12 -4 9 -10 -15 -28 -29 -21 -29
-22 -9 -32 19 -8 17 -9 -15 -9 -21 0 -31 3 -23 8 9 6 8 8 -3 8 -8 0 -26 10
-40 21 l-25 20 25 -6 25 -6 -25 16 c-14 9 -17 14 -7 11 9 -3 32 3 50 14 35 22
41 23 50 14z m-76 -116 c1 -10 -4 -18 -12 -18 -7 0 -22 -2 -32 -5 -10 -3 -4 2
12 10 l30 16 -28 -6 c-21 -4 -27 -3 -21 6 5 9 2 10 -10 6 -10 -4 -23 -7 -29
-8 -7 0 -3 -5 8 -10 18 -8 18 -8 -5 -6 -31 3 -30 20 2 28 44 12 84 5 85 -13z
m259 -113 c-3 -8 0 -15 6 -15 7 0 6 -5 -2 -15 -7 -8 -22 -15 -34 -14 -21 0
-21 0 2 9 31 13 28 22 -5 14 -30 -7 -26 2 9 22 31 16 31 16 24 -1z m148 -27
c-10 -10 -22 -18 -28 -18 -6 0 -3 7 7 14 17 13 24 32 8 22 -5 -4 -11 -1 -13 5
-2 5 -25 -10 -52 -35 -55 -52 -85 -63 -35 -13 54 54 78 67 105 54 23 -10 23
-11 8 -29z m156 -58 c-33 -26 -52 -25 -21 0 13 11 28 20 35 20 6 0 0 -9 -14
-20z m-558 -27 c9 -22 12 -24 15 -10 6 23 23 22 23 -2 0 -22 -23 -34 -38 -19
-8 8 -9 4 -5 -12 4 -16 2 -21 -5 -16 -9 5 -14 86 -5 86 2 0 9 -12 15 -27z
m582 15 c-6 -10 -4 -10 7 0 7 6 22 12 34 12 16 0 14 -3 -10 -16 -16 -8 -38
-23 -48 -31 -17 -16 -60 -24 -85 -15 -19 7 5 32 32 32 11 0 30 7 40 15 24 18
40 19 30 3z m-341 -25 c-24 -11 -29 -19 -25 -39 5 -29 -3 -31 -18 -4 -7 14 -8
26 -1 38 6 9 11 13 11 9 0 -5 10 -1 22 7 12 8 25 13 31 9 5 -3 -4 -12 -20 -20z
m-165 -16 c5 -24 -15 -21 -21 4 -3 13 -1 19 6 16 7 -2 13 -11 15 -20z m-38
-39 c0 -19 -2 -20 -10 -8 -13 19 -13 30 0 30 6 0 10 -10 10 -22z m90 -10 c0
-5 -4 -6 -10 -3 -5 3 -10 -4 -10 -16 0 -18 -2 -20 -16 -8 -14 12 -14 14 1 25
11 8 14 18 9 26 -6 10 -4 10 9 -1 9 -7 17 -18 17 -23z m-40 13 c0 -5 -7 -14
-15 -21 -13 -10 -15 -9 -15 9 0 12 6 21 15 21 8 0 15 -4 15 -9z"/>
<path d="M1860 250 c0 -5 -11 -10 -24 -10 -14 0 -27 -4 -30 -8 -2 -4 11 -6 29
-4 19 2 36 10 39 18 3 8 1 14 -4 14 -6 0 -10 -4 -10 -10z"/>
<path d="M1835 530 c4 -14 18 -50 32 -80 21 -47 26 -52 35 -37 5 10 7 21 4 24
-3 4 -6 1 -6 -6 0 -7 -5 -9 -10 -6 -6 4 -8 11 -5 16 4 5 1 9 -4 9 -6 0 -10 3
-9 8 3 11 -13 55 -29 77 -14 19 -15 19 -8 -5z"/>
<path d="M1195 524 c-11 -8 -25 -12 -32 -10 -7 3 -15 1 -18 -4 -9 -15 39 -12
61 4 10 8 17 17 14 19 -3 3 -14 -1 -25 -9z"/>
<path d="M1587 475 c-21 -25 -43 -45 -48 -45 -6 0 -7 5 -4 10 3 6 1 10 -5 10
-6 0 -8 5 -4 11 3 6 -8 3 -25 -5 -17 -9 -31 -19 -31 -22 0 -3 5 -2 10 1 14 9
52 -4 45 -16 -4 -5 -13 -9 -21 -9 -10 0 -12 5 -8 13 5 6 -3 4 -16 -5 -14 -10
-41 -26 -60 -37 -19 -10 -48 -26 -65 -35 l-30 -18 28 6 c33 8 36 -1 5 -14 -13
-5 -16 -9 -8 -9 19 -1 45 15 46 29 1 5 2 15 3 20 0 6 8 10 17 10 9 0 30 9 47
21 l32 21 -30 -26 c-16 -14 -35 -26 -42 -26 -6 0 -15 -5 -19 -11 -11 -18 36 0
72 27 32 25 50 31 39 14 -12 -20 12 -9 60 28 42 31 50 42 51 70 0 17 0 32 -1
32 0 -1 -17 -21 -38 -45z m26 -2 c-5 -20 -51 -60 -79 -69 -11 -4 -2 5 18 20
21 15 42 35 48 46 13 25 20 26 13 3z"/>
<path d="M1568 487 c-28 -23 -35 -37 -20 -37 5 0 18 14 30 30 27 36 26 36 -10
7z"/>
<path d="M1793 493 c9 -2 17 -8 17 -13 0 -5 -8 -7 -17 -4 -14 5 -15 4 -4 -4
15 -11 41 -5 41 8 0 9 -26 21 -43 19 -7 -1 -4 -3 6 -6z"/>
<path d="M1255 425 l-30 -14 30 6 c17 3 34 10 40 14 14 13 -5 10 -40 -6z"/>
<path d="M1605 379 c-12 -19 3 -22 27 -5 l22 16 -21 0 c-12 0 -25 -5 -28 -11z"/>
<path d="M1453 320 c-18 -11 -33 -22 -33 -25 0 -8 58 23 65 35 9 14 5 13 -32
-10z"/>
<path d="M447 233 c-4 -3 -4 -38 -1 -77 5 -54 11 -75 26 -88 31 -27 42 -21 18
9 -16 20 -18 28 -8 34 9 6 14 2 16 -9 1 -10 16 -26 32 -37 17 -11 30 -26 30
-33 0 -7 -4 -11 -9 -7 -5 3 -12 1 -15 -4 -4 -5 7 -9 23 -9 26 1 29 3 20 20 -5
10 -7 23 -4 28 3 6 -1 7 -9 4 -19 -7 -21 7 -4 24 10 10 15 7 26 -10 13 -23 13
-23 9 5 -2 15 -1 27 3 27 4 0 11 7 14 16 5 13 4 14 -7 6 -8 -7 -18 -8 -22 -4
-5 4 -5 2 -2 -5 4 -7 -6 -15 -25 -22 -28 -10 -35 -9 -46 6 -7 10 -21 17 -30
15 -18 -3 -24 18 -26 91 -1 15 -1 27 -2 27 0 0 -4 -3 -7 -7z"/>
<path d="M1714 216 c-17 -13 -17 -16 -4 -30 13 -13 17 -13 35 0 19 15 18 15
-10 9 -28 -6 -29 -6 -11 9 25 20 16 30 -10 12z"/>
<path d="M1907 190 c-14 -11 -30 -20 -35 -20 -6 0 -12 -5 -14 -12 -2 -6 -19
-11 -36 -11 -23 0 -29 -3 -20 -9 9 -7 10 -11 1 -14 -7 -3 -4 -13 10 -28 12
-13 29 -34 37 -46 12 -17 21 -21 39 -15 16 5 20 10 13 17 -7 7 -7 19 -2 34 6
14 6 24 1 24 -5 0 -12 -14 -16 -30 -6 -29 -15 -37 -28 -23 -4 3 -2 12 5 20 6
7 8 16 4 20 -3 3 -6 1 -6 -5 0 -7 -5 -12 -10 -12 -5 0 -9 3 -9 8 3 19 -2 33
-11 27 -5 -3 -10 -1 -10 4 0 14 6 14 30 -1 15 -10 22 -10 32 0 17 17 65 15 72
-3 3 -8 1 -15 -4 -15 -5 0 -16 -8 -26 -17 -16 -17 -16 -18 7 -24 13 -3 33 0
44 8 11 7 27 13 37 13 9 0 19 4 22 9 3 4 -6 7 -20 5 -22 -2 -23 0 -12 13 11
14 10 15 -9 9 -12 -4 -24 -2 -28 4 -4 6 11 10 42 11 26 0 42 3 35 6 -6 2 -10
9 -6 14 9 15 -65 15 -101 0 -63 -26 -78 -31 -83 -26 -8 8 31 34 41 28 8 -5 29
3 79 28 10 5 26 10 35 10 10 1 5 5 -12 9 -49 12 -61 11 -88 -10z m33 -10 c-46
-25 -63 -25 -25 0 17 11 37 20 45 20 8 -1 -1 -9 -20 -20z m48 -37 c-10 -2 -26
-2 -35 0 -10 3 -2 5 17 5 19 0 27 -2 18 -5z m-18 -63 c-8 -6 -22 -10 -30 -9
-9 0 -5 6 10 14 27 14 44 10 20 -5z"/>
<path d="M414 145 c1 -39 5 -55 15 -55 8 0 11 6 7 16 -3 9 -6 33 -6 55 0 21
-4 39 -8 39 -4 0 -8 -25 -8 -55z"/>
<path d="M922 172 c3 -20 -1 -37 -9 -43 -7 -6 -13 -19 -13 -29 0 -19 39 -72
40 -54 0 6 -6 17 -14 23 -14 12 -10 65 4 56 9 -6 3 66 -7 75 -3 3 -3 -10 -1
-28z"/>
<path d="M891 161 c-1 -16 -5 -21 -15 -18 -10 4 -13 1 -9 -9 6 -16 -12 -20
-22 -4 -9 15 -27 12 -19 -2 6 -10 4 -10 -7 0 -7 6 -18 12 -23 12 -6 0 -4 -5 4
-10 11 -7 3 -9 -25 -6 -22 1 -49 0 -60 -5 -11 -4 25 -7 80 -6 55 1 98 6 97 11
-2 5 1 12 6 15 5 3 6 15 1 26 -7 19 -8 18 -8 -4z"/>
<path d="M1185 139 c-16 -5 -36 -7 -43 -4 -7 3 -10 0 -7 -5 4 -6 3 -19 0 -31
-7 -20 -7 -20 -22 -2 -13 16 -14 16 -9 1 4 -15 2 -16 -22 -5 -15 6 -35 20 -44
30 -12 14 -21 16 -34 9 -9 -5 -25 -7 -35 -5 -24 7 -24 -3 -1 -30 16 -21 79
-36 67 -16 -4 5 -12 9 -19 9 -7 0 -21 7 -32 15 -17 14 -18 15 0 9 10 -4 21 -1
26 6 6 10 14 4 30 -23 23 -38 43 -50 34 -19 -5 16 -5 16 6 0 6 -10 19 -18 28
-18 10 0 23 -5 30 -12 8 -8 12 -8 12 -1 0 5 11 9 25 8 48 -6 65 5 58 34 -8 33
-4 32 -38 23 -16 -5 -31 -15 -33 -23 -4 -11 -2 -12 9 -1 19 18 31 15 18 -6
-14 -23 -49 -23 -49 0 0 23 38 48 73 48 16 0 26 4 22 10 -7 12 -10 11 -50 -1z"/>
<path d="M2156 125 c-11 -8 -16 -15 -11 -15 5 0 0 -7 -11 -16 -10 -8 -13 -12
-6 -9 7 4 22 -1 33 -11 14 -13 23 -14 30 -7 8 8 6 14 -9 22 -10 6 -22 7 -26 3
-4 -3 -4 1 -1 11 6 13 11 14 27 6 16 -9 19 -8 16 7 -4 23 -19 26 -42 9z"/>
<path d="M118 113 c6 -11 8 -24 4 -28 -4 -5 -2 -5 4 -2 7 4 17 1 23 -7 9 -10
7 -17 -5 -27 -13 -11 -17 -10 -24 2 -14 22 -40 -10 -30 -36 8 -18 9 -18 10 5
1 14 4 20 6 14 3 -7 14 -9 26 -6 14 3 26 -2 36 -14 15 -20 15 -17 -5 34 -6 15
-5 15 10 3 9 -7 17 -22 17 -32 0 -36 15 -19 16 19 1 20 -1 29 -3 18 -4 -15
-12 -10 -50 30 -25 26 -41 39 -35 27z"/>
<path d="M675 120 c-3 -6 -17 -8 -31 -6 -27 5 -33 -8 -8 -18 23 -9 51 1 51 19
0 18 -3 19 -12 5z"/>
<path d="M1445 103 c-3 -15 -11 -30 -16 -34 -5 -3 2 -15 16 -27 14 -12 25 -18
25 -13 0 6 -4 12 -9 15 -5 3 -7 24 -4 46 6 46 -1 54 -12 13z"/>
<path d="M930 106 c0 -2 7 -17 15 -32 8 -16 15 -25 15 -20 0 5 6 4 13 -1 6 -5
28 -10 47 -11 l35 -2 -25 15 c-29 17 -44 19 -35 5 15 -25 -12 -7 -30 20 -17
26 -35 39 -35 26z"/>
<path d="M703 91 c-22 -6 -22 -7 8 -23 30 -17 30 -17 24 2 -5 15 -3 18 9 14 8
-3 13 -11 10 -18 -2 -6 3 -20 12 -31 8 -11 13 -15 10 -9 -6 11 20 29 37 25 4
-1 3 8 -3 19 -11 21 -30 27 -30 10 0 -5 5 -10 12 -10 6 0 8 -3 5 -6 -8 -8 -38
16 -33 25 6 9 -33 10 -61 2z"/>
<path d="M810 95 c0 -3 11 -10 25 -15 14 -5 25 -17 25 -27 0 -13 3 -14 12 -5
8 8 16 6 30 -10 10 -12 18 -17 18 -11 0 5 -9 18 -20 28 -11 10 -20 15 -20 11
0 -4 -12 2 -26 13 -26 20 -44 27 -44 16z"/>
<path d="M1548 93 c0 -5 -2 -12 -3 -18 -2 -5 -3 -16 -4 -22 -2 -23 -19 -14
-29 15 -6 15 -11 22 -11 15 -1 -7 -8 -10 -16 -7 -8 4 -15 1 -15 -6 0 -6 4 -9
9 -5 6 3 15 -3 20 -14 6 -11 24 -26 41 -34 31 -16 39 -10 18 11 -15 15 6 41
33 39 21 -1 25 -12 9 -22 -5 -3 -10 -1 -10 5 0 6 -5 8 -11 4 -8 -4 -6 -10 6
-17 13 -7 20 -5 28 8 8 14 11 15 18 4 13 -20 11 -31 -3 -23 -10 5 -10 4 -1 -6
7 -8 23 -15 35 -17 22 -3 22 -3 4 10 -18 13 -18 15 -2 24 14 8 10 12 -26 27
-24 10 -51 22 -60 27 -22 11 -28 11 -30 2z"/>
<path d="M2044 83 c-5 -8 -21 -16 -34 -17 -17 -1 -26 -8 -28 -21 -3 -20 -3
-20 13 -1 14 19 21 12 16 -16 0 -5 3 -8 8 -8 5 0 16 -2 23 -5 9 -4 19 4 26 19
11 25 10 25 -21 21 -18 -3 -25 -2 -17 1 8 4 19 13 23 20 4 8 13 14 18 14 6 0
8 -4 4 -9 -3 -6 3 -9 14 -8 10 0 17 6 15 12 -7 17 -48 16 -60 -2z"/>
<path d="M63 66 c-24 -11 -29 -21 -15 -29 4 -3 15 6 25 19 10 13 17 23 15 23
-2 -1 -13 -6 -25 -13z"/>
<path d="M402 68 c-19 -19 -14 -28 13 -28 14 0 25 -4 25 -10 0 -5 5 -10 11
-10 13 0 1 42 -15 52 -15 10 -20 10 -34 -4z"/>
<path d="M624 69 c-3 -6 1 -18 9 -27 15 -14 15 -17 -1 -29 -15 -11 -13 -12 11
-2 31 14 34 24 10 38 -16 9 -15 10 5 11 13 0 20 -4 17 -10 -3 -5 -1 -10 5 -10
6 0 8 -4 5 -10 -3 -6 1 -7 10 -4 11 5 14 2 9 -10 -3 -9 -1 -16 5 -16 17 0 13
28 -6 39 -14 8 -15 11 -3 11 8 1 -1 8 -20 15 -44 17 -47 17 -56 4z"/>
<path d="M10 44 c-11 -27 -13 -51 -5 -42 8 8 25 68 19 68 -2 0 -9 -12 -14 -26z"/>
<path d="M225 52 c-3 -8 -3 -17 0 -20 3 -3 5 0 5 7 0 8 6 11 16 7 8 -3 12 -2
9 4 -4 6 6 10 22 9 25 0 26 -1 8 -10 -19 -8 -19 -9 -1 -6 11 1 21 8 24 15 6
19 -76 13 -83 -6z"/>
<path d="M325 60 c-2 -3 10 -7 26 -8 16 -1 29 2 29 7 0 9 -49 10 -55 1z"/>
<path d="M2115 50 c-9 -10 -22 -18 -27 -17 -18 3 -20 -20 -3 -27 9 -3 14 -2
11 2 -2 4 13 8 35 8 21 1 39 -2 39 -7 0 -5 8 -9 18 -9 14 0 15 2 2 10 -10 6
-11 10 -2 10 6 0 12 4 12 9 0 12 -38 21 -42 9 -2 -5 -12 -6 -22 -2 -18 7 -18
8 0 21 10 7 13 13 7 13 -5 0 -18 -9 -28 -20z"/>
<path d="M472 38 c3 -7 13 -15 24 -17 16 -3 17 -1 5 13 -16 19 -34 21 -29 4z"/>
<path d="M1069 31 c7 -12 19 -25 27 -28 26 -10 22 1 -9 26 -29 24 -30 24 -18
2z"/>
<path d="M340 30 c19 -13 30 -13 30 0 0 6 -10 10 -22 10 -19 0 -20 -2 -8 -10z"/>
<path d="M1381 17 c-11 -16 -10 -17 7 -8 13 7 23 7 32 -2 12 -10 12 -9 2 5
-10 13 -10 17 0 21 7 3 3 5 -8 4 -12 -1 -27 -9 -33 -20z"/>
<path d="M1920 28 c0 -9 -10 -19 -22 -21 -20 -4 -20 -4 4 -6 31 -1 41 9 27 29
-7 13 -9 12 -9 -2z"/>
<path d="M245 20 c3 -5 15 -10 26 -10 10 0 19 5 19 10 0 6 -12 10 -26 10 -14
0 -23 -4 -19 -10z"/>
<path d="M934 16 c-9 -10 3 -13 55 -13 50 -1 60 1 43 8 -13 5 -28 7 -33 3 -5
-3 -9 0 -9 7 0 8 -4 9 -13 0 -8 -6 -17 -7 -23 -2 -5 6 -14 4 -20 -3z"/>
<path d="M1956 22 c-3 -6 -1 -14 5 -17 15 -10 25 3 12 16 -7 7 -13 7 -17 1z"/>
<path d="M790 10 c0 -5 14 -10 32 -10 36 0 35 4 -4 14 -17 4 -28 2 -28 -4z"/>
<path d="M1153 3 c9 -2 25 -2 35 0 9 3 1 5 -18 5 -19 0 -27 -2 -17 -5z"/>
</g>
</svg>
